<svg xmlns="http://www.w3.org/2000/svg" viewBox="0 0 16 16" height="16px" width="16px" fill="currentColor" aria-hidden="true" role="img"><path d="M12 1h-1.5v4.208c2.308.653 4 2.775 4 5.292v1A4.5 4.5 0 0 1 10 16H6a4.5 4.5 0 0 1-4.5-4.5v-1a5.5 5.5 0 0 1 4-5.292V1H4V0h8zm1.313 9.889a6.66 6.66 0 0 1-5.83.482 5.66 5.66 0 0 0-4.245.053l-.73.305A3.5 3.5 0 0 0 6 15h4a3.5 3.5 0 0 0 3.5-3.5v-.723zM6.5 5.965l-.728.205A4.5 4.5 0 0 0 2.5 10.5v.148l.352-.147a6.66 6.66 0 0 1 4.994-.061 5.67 5.67 0 0 0 4.956-.41l.618-.37a4.5 4.5 0 0 0-3.193-3.49L9.5 5.965V1h-3z"/></svg>