<svg xmlns="http://www.w3.org/2000/svg" viewBox="0 0 16 16" height="16px" width="16px" fill="currentColor" aria-hidden="true" role="img"><path d="M13.5 0a2.5 2.5 0 1 1-1.379 4.585l-1.678 1.678a2.984 2.984 0 0 1-.243 3.771l1.93 2.166a2 2 0 1 1-.763.646l-1.96-2.198a2.99 2.99 0 0 1-3.144-.205l-3.41 3.41-.002-.002a1.5 1.5 0 1 1-.701-.701l-.004-.004 3.41-3.41a2.98 2.98 0 0 1-.497-2.33L3.69 7.062A2 2 0 1 1 4 6q-.002.054-.006.107l1.43.358A3 3 0 0 1 7.163 5.12l-.137-2.198a1.5 1.5 0 1 1 1-.02l.132 2.102c.587.03 1.128.231 1.578.552l1.68-1.678A2.5 2.5 0 0 1 13.5 0M13 13a1 1 0 1 0 0 2 1 1 0 0 0 0-2M8 6a2 2 0 1 0 0 4 2 2 0 0 0 0-4M2 5a1 1 0 1 0 0 2 1 1 0 0 0 0-2m11.5-4a1.5 1.5 0 1 0 0 3 1.5 1.5 0 0 0 0-3"/></svg>