<svg xmlns="http://www.w3.org/2000/svg" viewBox="0 0 16 16" height="16px" width="16px" fill="currentColor" aria-hidden="true" role="img"><path fill-rule="evenodd" d="M12 7a3.5 3.5 0 0 1 2.687 5.744l1.243 1.43-.755.656-1.233-1.418A3.5 3.5 0 1 1 12 7m0 1a2.5 2.5 0 1 0 0 5 2.5 2.5 0 0 0 0-5" clip-rule="evenodd"/><path d="M8.258 13c.253.377.56.715.913 1H0v-1z"/><path fill-rule="evenodd" d="M2 1a1 1 0 0 1 1 1v9H0V2a1 1 0 0 1 1-1zm-1 9h1V2H1zm6-6.5a1 1 0 0 1 1 1v3.937A4.5 4.5 0 0 0 7.527 11H5V4.5a1 1 0 0 1 1-1zM6 10h1V4.5H6z" clip-rule="evenodd"/><path d="M12 1.7a1 1 0 0 1 1 1v3.41A4.5 4.5 0 0 0 12 6V2.7h-1v3.41c-.35.08-.686.2-1 .357V2.699a1 1 0 0 1 1-1z"/></svg>