<svg xmlns="http://www.w3.org/2000/svg" viewBox="0 0 16 16" height="16px" width="16px" fill="currentColor" aria-hidden="true" role="img"><path d="M12 7a3.5 3.5 0 0 1 2.687 5.744l1.243 1.43-.755.656-1.233-1.418A3.5 3.5 0 1 1 12 7m-3.742 6c.253.377.56.715.913 1H0v-1zM12 8a2.5 2.5 0 1 0 0 5 2.5 2.5 0 0 0 0-5M2 1a1 1 0 0 1 1 1v9H0V2a1 1 0 0 1 1-1zm5 2.5a1 1 0 0 1 1 1v3.937A4.5 4.5 0 0 0 7.527 11H5V4.5a1 1 0 0 1 1-1zM1 10h1V2H1zm5 0h1V4.5H6zm6-8.3a1 1 0 0 1 1 1v3.41A4.5 4.5 0 0 0 12 6V2.7h-1v3.41c-.35.08-.686.2-1 .357V2.699a1 1 0 0 1 1-1z"/></svg>