<svg xmlns="http://www.w3.org/2000/svg" viewBox="0 0 16 16" height="16px" width="16px" fill="currentColor" aria-hidden="true" role="img"><path fill-rule="evenodd" d="M4 5a1 1 0 0 1 1 1v1h3a1 1 0 0 1 1 1v2h3a1 1 0 0 1 1 1v4h3v1H0V6a1 1 0 0 1 1-1zM1 15h3V6H1zm4 0h3V8H5zm4 0h3v-4H9zm6-7h1v1h-1v1h-1V9h-1V8h1V7h1zM11.135.794c.084-.389.628-.393.716-.004l.028.127.009.037v.002l.03.118v.002a4 4 0 0 0 .103.315c.186.5.482.954.867 1.326a3.5 3.5 0 0 0 1.82.93c.389.069.389.637 0 .707l-.128.024v.001a3.5 3.5 0 0 0-.5.148 3.5 3.5 0 0 0-1.192.757 3.6 3.6 0 0 0-.97 1.64v.003l-.03.115v.005l-.01.037-.027.126a.365.365 0 0 1-.716-.003l-.023-.108-.013-.059a4 4 0 0 0-.13-.432 3.6 3.6 0 0 0-.856-1.32 3.5 3.5 0 0 0-1.692-.912h-.002l-.128-.025c-.388-.068-.388-.633 0-.702a3.5 3.5 0 0 0 .635-.176c.44-.169.844-.426 1.187-.76a3.57 3.57 0 0 0 .95-1.613v-.001q.02-.07.037-.14V.957l.012-.055zm.362 1.783A4.55 4.55 0 0 1 10.09 4a4.5 4.5 0 0 1 1.407 1.423A4.6 4.6 0 0 1 12.91 4a4.5 4.5 0 0 1-1.413-1.423M6 2h1v1H6v1H5V3H4V2h1V1h1z" clip-rule="evenodd"/></svg>