<svg xmlns="http://www.w3.org/2000/svg" viewBox="0 0 16 16" height="16px" width="16px" fill="currentColor" aria-hidden="true" role="img"><path fill-rule="evenodd" d="M14.684 1.052A1 1 0 0 1 16 2v11a1 1 0 0 1-1.316.948l-4.746-1.582-.032.095a2.5 2.5 0 0 1-3.167 1.57l-1.102-.37a2.5 2.5 0 0 1-1.57-3.169l.024-.074-.407-.136A1 1 0 0 1 3.258 10H1a1 1 0 0 1-1-1V6a1 1 0 0 1 1-1h2.258a1 1 0 0 1 .426-.282zm-9.67 9.76a1.5 1.5 0 0 0 .942 1.9l1.103.372a1.5 1.5 0 0 0 1.9-.942l.03-.092-3.95-1.317zM4 5.667v3.666L15 13V2zM1 9h2V6H1z" clip-rule="evenodd"/></svg>