<svg xmlns="http://www.w3.org/2000/svg" viewBox="0 0 16 16" height="16px" width="16px" fill="currentColor" aria-hidden="true" role="img"><path fill-rule="evenodd" d="M7.172 1.103a6.069 6.069 0 1 0 0 12.138.552.552 0 1 1 0 1.104A7.172 7.172 0 1 1 7.172 0a7.17 7.17 0 0 1 7.173 7.172.552.552 0 1 1-1.104 0 6.07 6.07 0 0 0-6.069-6.069m3.434 6.513.026-.12a.403.403 0 0 1 .79-.004l.031.14.01.042v.001l.033.131v.002a4 4 0 0 0 .113.348c.206.552.532 1.052.957 1.462a3.9 3.9 0 0 0 2.009 1.027c.429.076.429.703 0 .78l-.141.027h-.002a4 4 0 0 0-.552.164 3.9 3.9 0 0 0-1.314.835 3.96 3.96 0 0 0-1.07 1.811v.002l-.032.128-.001.004-.01.041-.031.14a.403.403 0 0 1-.79-.004l-.026-.12a4 4 0 0 0-.053-.217 4 4 0 0 0-.104-.325 3.9 3.9 0 0 0-.945-1.456 3.86 3.86 0 0 0-1.867-1.005h-.002l-.142-.029c-.428-.075-.428-.697 0-.774a4 4 0 0 0 .7-.194c.486-.186.932-.47 1.31-.84a3.94 3.94 0 0 0 1.05-1.779v-.001l.04-.154v-.002zm.425 1.848a5 5 0 0 1-1.552 1.57 5 5 0 0 1 1.552 1.57 5 5 0 0 1 1.56-1.57 5 5 0 0 1-1.56-1.57m3.314 3.226c.304 0 .552.247.552.551v.552h.551a.552.552 0 1 1 0 1.104h-.551v.551a.552.552 0 0 1-1.104 0v-.551h-.552a.552.552 0 0 1 0-1.104h.552v-.552c0-.304.247-.551.552-.551" clip-rule="evenodd"/></svg>