<svg xmlns="http://www.w3.org/2000/svg" viewBox="0 0 16 16" height="16px" width="16px" fill="currentColor" aria-hidden="true" role="img"><path fill-rule="evenodd" d="M7.75 1.145a.5.5 0 0 1 .5 0l5.563 3.21c.154.09.25.256.25.434v6.422a.5.5 0 0 1-.25.434l-5.563 3.21a.5.5 0 0 1-.5 0l-5.562-3.21a.5.5 0 0 1-.25-.434V4.789a.5.5 0 0 1 .25-.433zm.5 1.154a.5.5 0 0 0-.5 0L3.188 4.933a.5.5 0 0 0-.25.433v5.268c0 .178.095.344.25.434L7.75 13.7a.5.5 0 0 0 .5 0l4.563-2.633a.5.5 0 0 0 .25-.434V5.366a.5.5 0 0 0-.25-.433zm-.375 3.273a.25.25 0 0 1 .25 0l1.915 1.106a.25.25 0 0 1 .125.217v2.21a.25.25 0 0 1-.125.217l-1.915 1.106a.25.25 0 0 1-.25 0L5.96 9.322a.25.25 0 0 1-.125-.216V6.895a.25.25 0 0 1 .125-.217zm.25 1.155a.25.25 0 0 0-.25 0l-.915.528a.25.25 0 0 0-.125.217v1.056c0 .09.048.173.125.217l.915.529a.25.25 0 0 0 .25 0l.915-.529a.25.25 0 0 0 .125-.217V7.472a.25.25 0 0 0-.125-.217z" clip-rule="evenodd"/></svg>