<svg xmlns="http://www.w3.org/2000/svg" viewBox="0 0 16 16" height="16px" width="16px" fill="currentColor" aria-hidden="true" role="img"><path d="M9.586 0a1 1 0 0 1 .707.293l4.414 4.414a1 1 0 0 1 .293.707V14a2 2 0 0 1-2 2H3a2 2 0 0 1-2-2V2a2 2 0 0 1 2-2zM3 1a1 1 0 0 0-1 1v12a1 1 0 0 0 1 1h10a1 1 0 0 0 1-1V6h-3a2 2 0 0 1-2-2V1zm4.911 6.07a.24.24 0 0 1 .24 0l2.791 1.61a.24.24 0 0 1 .12.209v3.222a.24.24 0 0 1-.12.208l-2.79 1.612a.24.24 0 0 1-.24 0L5.12 12.319a.24.24 0 0 1-.12-.208V8.89a.24.24 0 0 1 .12-.208zM6 9.326v2.346l2.031 1.173 2.031-1.173V9.327l-2.03-1.173zM8.866 10v1L8 11.5l-.866-.5v-1L8 9.5zM10 4a1 1 0 0 0 1 1h2.5L10 1.5z"/></svg>