<svg xmlns="http://www.w3.org/2000/svg" viewBox="0 0 16 16" height="16px" width="16px" fill="currentColor" aria-hidden="true" role="img"><g clip-path="url(#clip0_482_3306)"><path fill-rule="evenodd" d="M9.3 9.7 9 10H8v2H6v2H4v2H0v-3l6.3-6.3C6.1 6.2 6 5.6 6 5c0-2.8 2.2-5 5-5s5 2.2 5 5-2.2 5-5 5c-.6 0-1.2-.1-1.7-.3M7 9v2H5v2H3v2H1v-1.586l6.473-6.473-.245-.612C7.084 5.969 7 5.499 7 5c0-2.248 1.752-4 4-4s4 1.752 4 4-1.752 4-4 4c-.498 0-.968-.084-1.329-.228l-.612-.245L8.586 9zm5-4c-.533 0-1-.467-1-1s.467-1 1-1 1 .467 1 1-.467 1-1 1" clip-rule="evenodd"/></g><defs><clipPath id="clip0_482_3306"><path d="M0 0h16v16H0z"/></clipPath></defs></svg>