<svg xmlns="http://www.w3.org/2000/svg" viewBox="0 0 16 16" height="16px" width="16px" fill="currentColor" aria-hidden="true" role="img"><path d="M8 0a7.99 7.99 0 0 1 6.339 3.12c1.168 1.514 1.716 3.536 1.27 5.396l-.094.334c-.518 1.608-1.772 2.292-3.099 2.562l-.193.035c-.454.072-.915.078-1.35.083l-.608.015c-.585.03-1.09.123-1.425.476-.742.657-.382 1.27-.034 1.863.344.587.677 1.153-.086 1.721l-.17.11c-.407.233-.9.291-1.371.243A8 8 0 0 1 8 0m0 1a7 7 0 0 0-.72 13.964c.39.04.675-.037.842-.161l.03-.027-.012-.032a5 5 0 0 0-.197-.354c-.146-.25-.448-.734-.52-1.283-.088-.668.16-1.289.718-1.8.42-.429.94-.607 1.391-.688.445-.08.931-.083 1.327-.089.514-.006.95-.015 1.358-.098.606-.124 1.128-.335 1.531-.66.388-.314.715-.772.888-1.49.366-1.524-.078-3.24-1.088-4.552A6.99 6.99 0 0 0 8 1M4 5a2 2 0 1 1 0 4 2 2 0 0 1 0-4m8.5 1.5a1 1 0 1 1 0 2 1 1 0 0 1 0-2m-1-3a1 1 0 1 1 0 2 1 1 0 0 1 0-2M7.5 2a1.5 1.5 0 1 1 0 3 1.5 1.5 0 0 1 0-3"/></svg>