<svg xmlns="http://www.w3.org/2000/svg" viewBox="0 0 16 16" height="16px" width="16px" fill="currentColor" aria-hidden="true" role="img"><path d="M1 14.5a.5.5 0 0 0 .5.5H3v1H1.5A1.5 1.5 0 0 1 0 14.5V13h1zm9 1.5H6v-1h4zm6-1.5a1.5 1.5 0 0 1-1.5 1.5H13v-1h1.5a.5.5 0 0 0 .5-.5V13h1zm-4.146-8.146L7 11.207 4.146 8.354l.708-.708L7 9.793l4.147-4.147zM1 10H0V6h1zm15 0h-1V6h1zM3 1H1.5a.5.5 0 0 0-.5.5V3H0V1.5A1.5 1.5 0 0 1 1.5 0H3zm11.5-1A1.5 1.5 0 0 1 16 1.5V3h-1V1.5a.5.5 0 0 0-.5-.5H13V0zM10 1H6V0h4z"/></svg>