<svg xmlns="http://www.w3.org/2000/svg" viewBox="0 0 16 16" height="16px" width="16px" fill="currentColor" aria-hidden="true" role="img"><path d="M9 7a1 1 0 0 1 1 1v4a1 1 0 0 1-1 1H6l-3.17 2.774a.5.5 0 0 1-.83-.376V13H1a1 1 0 0 1-1-1V8a1 1 0 0 1 1-1v5h2v2.296L5.624 12H9V8H8V7zm-3.5 3a.5.5 0 0 1 0 1h-2a.5.5 0 0 1 0-1zM3.766 2.137a3.8 3.8 0 0 1 1.468 0l.217.044A2.55 2.55 0 0 1 7.5 4.68a2.96 2.96 0 0 1-.592 1.776l-.807 1.077a.5.5 0 0 0-.101.3V8.5a1 1 0 0 1-1 1H4a1 1 0 0 1-1-1v-.667a.5.5 0 0 0-.1-.3l-.808-1.077A2.96 2.96 0 0 1 1.5 4.681a2.55 2.55 0 0 1 2.05-2.5zm1.272.98a2.8 2.8 0 0 0-1.076 0l-.216.044A1.55 1.55 0 0 0 2.5 4.681c0 .423.138.836.392 1.174L3.7 6.934c.195.26.3.575.3.899V8.5h1v-.667c0-.324.105-.64.3-.9l.808-1.078A1.96 1.96 0 0 0 6.5 4.68c0-.739-.521-1.374-1.245-1.519zM15 0a1 1 0 0 1 1 1v4a1 1 0 0 1-1 1h-1v1.793a.5.5 0 0 1-.854.353L11 6h-1a1 1 0 0 1-1-1V1a1 1 0 0 1 1-1zm-5 5h1.414L13 6.586V5h2V1h-5z"/></svg>