<svg xmlns="http://www.w3.org/2000/svg" viewBox="0 0 16 16" height="16px" width="16px" fill="currentColor" aria-hidden="true" role="img"><path d="M8 0a1.998 1.998 0 0 1 .5 3.934V6.04A3 3 0 0 1 11 9c0 .641-.204 1.234-.547 1.722l2.225 1.779a2 2 0 1 1-.562.832l-2.37-1.896a2.98 2.98 0 0 1-3.492 0l-2.37 1.896a2 2 0 1 1-.562-.832l2.224-1.78A3 3 0 0 1 7.5 6.042V3.934A1.998 1.998 0 0 1 8 0M2 13a1 1 0 1 0 0 2 1 1 0 0 0 0-2m12 0a1 1 0 1 0 0 2 1 1 0 0 0 0-2M8 7a2 2 0 1 0 0 4 2 2 0 0 0 0-4m0-6a1 1 0 1 0 0 2 1 1 0 0 0 0-2"/></svg>