<svg xmlns="http://www.w3.org/2000/svg" viewBox="0 0 16 16" height="16px" width="16px" fill="currentColor" aria-hidden="true" role="img"><g clip-path="url(#clip0_482_3307)"><path d="M13.156 11C15.071 11 16 12.328 16 13.5s-.929 2.499-2.844 2.499c-1.137 0-2.573-1.076-3.424-1.816l-.232-.206-.231.206C8.417 14.923 6.982 16 5.844 16 3.929 16 3 14.673 3 13.501s.93-2.5 2.844-2.5c1.138 0 2.573 1.077 3.425 1.816q.125.109.231.206l.232-.206c.851-.74 2.287-1.817 3.424-1.817m-7.312 1.001c-1.35 0-1.844.867-1.844 1.5S4.495 15 5.844 15c.212 0 .526-.083.934-.286a7.7 7.7 0 0 0 1.189-.76c.203-.154.393-.31.561-.454a13 13 0 0 0-.561-.453 7.7 7.7 0 0 0-1.188-.76c-.408-.203-.723-.286-.935-.286M13.156 12c-.211 0-.527.083-.935.286a8 8 0 0 0-1.188.76c-.203.154-.392.31-.561.454.169.144.358.299.561.453.383.29.793.564 1.188.76.408.204.724.286.935.286 1.35 0 1.844-.866 1.844-1.499s-.495-1.5-1.844-1.5M11.5 1H10v4.405l2.903 4.534-.946.378L9 5.697V1H6v4.7L1.327 13H2v1H.984A.813.813 0 0 1 .3 12.75L5 5.407V1H3.5V0h8z"/></g><defs><clipPath id="clip0_482_3307"><path d="M0 0h16v16H0z"/></clipPath></defs></svg>