<svg xmlns="http://www.w3.org/2000/svg" viewBox="0 0 16 16" height="16px" width="16px" fill="currentColor" aria-hidden="true" role="img"><path fill-rule="evenodd" d="M13.157 11C15.07 11 16 12.328 16 13.5s-.929 2.499-2.843 2.499c-1.138 0-2.573-1.076-3.425-1.816l-.232-.206q-.106.096-.231.206C8.417 14.923 6.982 16 5.844 16 3.93 16 3.001 14.673 3 13.501s.93-2.5 2.844-2.5c1.138 0 2.573 1.077 3.425 1.816q.125.109.231.206l.232-.206c.852-.74 2.287-1.817 3.425-1.817m-7.313 1.001c-1.349 0-1.844.867-1.844 1.5S4.495 15 5.844 15c.212 0 .526-.083.935-.286a7.7 7.7 0 0 0 1.188-.76c.203-.154.393-.31.562-.454a13 13 0 0 0-.562-.453 7.7 7.7 0 0 0-1.187-.76c-.409-.203-.724-.286-.936-.286M13.157 12c-.212 0-.527.083-.936.286-.395.197-.805.47-1.187.76-.203.154-.393.31-.562.454.169.144.359.299.562.453.382.29.792.564 1.187.76.409.204.724.286.936.286 1.349 0 1.843-.866 1.843-1.499s-.495-1.5-1.843-1.5M11.499 1H10v4.405l2.903 4.534-.946.378L9 5.697V1H6v4.7L1.327 13H2v1H.985A.813.813 0 0 1 .3 12.75L5 5.407V1H3.5V0h8z" clip-rule="evenodd"/></svg>