<svg xmlns="http://www.w3.org/2000/svg" viewBox="0 0 16 16" height="16px" width="16px" fill="currentColor" aria-hidden="true" role="img"><path d="M4.8 0A1.2 1.2 0 0 1 6 1.2v1.3h7.4a1.7 1.7 0 0 1 1.7 1.7v2.6a1.7 1.7 0 0 1-1.7 1.7H4.2a.7.7 0 0 0-.7.7v2.6a.7.7 0 0 0 .7.7h4.393l-1.546-1.547.707-.707L10 12.492V11.2a1.2 1.2 0 0 1 1.2-1.2h3.6a1.2 1.2 0 0 1 1.2 1.2v3.6a1.2 1.2 0 0 1-1.2 1.2h-3.6a1.2 1.2 0 0 1-1.2-1.2v-1.293l-2.246 2.246-.707-.707L8.593 13.5H4.2a1.7 1.7 0 0 1-1.7-1.7V9.2a1.7 1.7 0 0 1 1.7-1.7h9.2a.7.7 0 0 0 .7-.7V4.2a.7.7 0 0 0-.7-.7H6v1.3A1.2 1.2 0 0 1 4.8 6H1.2A1.2 1.2 0 0 1 0 4.8V1.2A1.2 1.2 0 0 1 1.2 0zm6.4 11a.2.2 0 0 0-.2.2v3.6c0 .11.09.2.2.2h3.6a.2.2 0 0 0 .2-.2v-3.6a.2.2 0 0 0-.2-.2zM1.2 1a.2.2 0 0 0-.2.2v3.6c0 .11.09.2.2.2h3.6a.2.2 0 0 0 .2-.2V1.2a.2.2 0 0 0-.2-.2z"/></svg>