<svg xmlns="http://www.w3.org/2000/svg" viewBox="0 0 16 16" height="16px" width="16px" fill="currentColor" aria-hidden="true" role="img"><path fill-rule="evenodd" d="M10 13H6v2h4zm0-1H6a1 1 0 0 0-1 1v2a1 1 0 0 0 1 1h4a1 1 0 0 0 1-1v-2a1 1 0 0 0-1-1" clip-rule="evenodd"/><path fill-rule="evenodd" d="M8.5 9.5v3h-1v-3z" clip-rule="evenodd"/><path fill-rule="evenodd" d="M4.5 1v4.5a3.5 3.5 0 1 0 7 0V1zM4 0a.5.5 0 0 0-.5.5v5a4.5 4.5 0 0 0 9 0v-5A.5.5 0 0 0 12 0z" clip-rule="evenodd"/><path fill-rule="evenodd" d="M4.5 7V1H1.667A.667.667 0 0 0 1 1.667V3.5A3.5 3.5 0 0 0 4.5 7m-1-1.208V2H2v1.5a2.5 2.5 0 0 0 1.5 2.292m9 1.063a3.5 3.5 0 0 1-1 .145V1h2.833c.368 0 .667.298.667.667V3.5a3.5 3.5 0 0 1-2.5 3.355m0-1.063A2.5 2.5 0 0 0 14 3.5V2h-1.5z" clip-rule="evenodd"/></svg>