<svg xmlns="http://www.w3.org/2000/svg" viewBox="0 0 16 16" height="16px" width="16px" fill="currentColor" aria-hidden="true" role="img"><path fill-rule="evenodd" d="M.5 11.226V4.774A2 2 0 0 1 1.654 2.96l5.5-2.566a2 2 0 0 1 1.692 0l5.5 2.566A2 2 0 0 1 15.5 4.774v6.452a2 2 0 0 1-1.154 1.813l-5.5 2.566a2 2 0 0 1-1.692 0l-5.5-2.566A2 2 0 0 1 .5 11.226m1-6.484v6.484a1 1 0 0 0 .577.906L7.5 14.663V7.17L5 6.158V8.4L4 8V5.754zm4.306.664L8 6.294l5.955-2.41-.032-.016-2.607-1.217zM10.16 2.11 8.424 1.3a1 1 0 0 0-.846 0l-5.5 2.567-.032.015L4.57 4.906zm4.34 2.664v-.032l-6 2.428v7.493l5.423-2.53a1 1 0 0 0 .577-.907z" clip-rule="evenodd"/></svg>