<svg xmlns="http://www.w3.org/2000/svg" viewBox="0 0 16 16" height="16px" width="16px" fill="currentColor" aria-hidden="true" role="img"><path fill-rule="evenodd" d="m7.354 9.354-1.91 1.909a3 3 0 1 1-.707-.707l1.91-1.91zM3 11a2 2 0 1 0 0 4 2 2 0 0 0 0-4" clip-rule="evenodd"/><path d="M8.5 12h-1v-2h1zM6 8.5H4v-1h2zm6 0h-2v-1h2z"/><path fill-rule="evenodd" d="M13 0a3 3 0 1 1-1.737 5.443l-1.91 1.91-.707-.707 1.91-1.91A3 3 0 0 1 13 0m0 1a2 2 0 1 0 0 4 2 2 0 0 0 0-4" clip-rule="evenodd"/><path d="M8.5 6h-1V4h1z"/></svg>