<svg xmlns="http://www.w3.org/2000/svg" viewBox="0 0 16 16" height="16px" width="16px" fill="currentColor" aria-hidden="true" role="img"><path d="M11.5 10.5a.5.5 0 0 1 .5.5h2a1 1 0 0 1 1 1v2l-.005.102a1 1 0 0 1-.893.893L14 15h-2a.5.5 0 0 1-1 0H1l-.103-.005A1 1 0 0 1 0 14v-2a1 1 0 0 1 1-1h10a.5.5 0 0 1 .5-.5M1 14h10v-2H1zm11 0h2v-2h-2zM3.5 5.5A.5.5 0 0 1 4 6h5l.103.005A1 1 0 0 1 10 7v2a1 1 0 0 1-.897.995L9 10H4a.5.5 0 0 1-1 0H1a1 1 0 0 1-1-1V7a1 1 0 0 1 1-1h2a.5.5 0 0 1 .5-.5M4 9h5V7H4zM1 9h2V7H1zM14.5.5a.5.5 0 0 1 .5.5v4a.5.5 0 0 1-1 0V1a.5.5 0 0 1 .5-.5M11 1a1 1 0 0 1 1 1v2l-.005.103a1 1 0 0 1-.893.892L11 5H1l-.103-.005A1 1 0 0 1 0 4V2a1 1 0 0 1 1-1zM1 4h10V2H1z"/></svg>