<svg xmlns="http://www.w3.org/2000/svg" viewBox="0 0 16 16" height="16px" width="16px" fill="currentColor" aria-hidden="true" role="img"><path d="M2 5H1v10h14V5h-1V4h1a1 1 0 0 1 1 1v10a1 1 0 0 1-1 1H1l-.103-.005A1 1 0 0 1 0 15V5a1 1 0 0 1 .897-.995L1 4h1zm2 3.001C4 9.461 5.57 11 7.999 11c2.428 0 3.999-1.54 3.999-2.999V8H12V6.4C11.088 7.372 9.636 8 8 8s-3.088-.628-4-1.6zM8 1C5.571 1 4 2.54 4 4s1.571 3 4 3 4-1.54 4-3-1.571-3-4-3m4.998 7.001-.007.206C12.857 10.32 10.674 12 8 12l-.257-.005C5.101 11.888 3 10.141 3 8.001V4c0-2.21 2.239-4 5-4s5 1.79 5 4v4z"/></svg>