<svg xmlns="http://www.w3.org/2000/svg" viewBox="0 0 16 16" height="16px" width="16px" fill="currentColor" aria-hidden="true" role="img"><path fill-rule="evenodd" d="M10.54 10.48h-.03l-.1.52H9.5V3.94h1.15v1.82l-.03.82q.31-.27.68-.44a1.8 1.8 0 0 1 .74-.17q.92 0 1.43.68t.51 1.81q0 .84-.3 1.44-.3.59-.78.91-.471.31-1.02.31-.7 0-1.34-.64m1.92-.74q.33-.43.33-1.26 0-.74-.25-1.15t-.81-.41q-.52 0-1.08.55v2.29q.26.22.51.32.26.09.48.09.49 0 .82-.43m-9.01 1.38q-.64 0-1.05-.4-.4-.4-.4-1.04 0-.79.69-1.22.69-.44 2.2-.6a1.2 1.2 0 0 0-.21-.67q-.19-.29-.69-.29-.36 0-.71.14a5 5 0 0 0-.67.34l-.42-.77a5 5 0 0 1 .92-.45 3.2 3.2 0 0 1 1.1-.19q.92 0 1.37.55.46.54.46 1.57V11h-.95l-.08-.54h-.04q-.33.28-.71.47-.37.19-.81.19m.37-.9q.3 0 .54-.14.25-.15.53-.4v-1.1q-1 .13-1.39.39-.39.25-.39.62 0 .33.2.48t.51.15" clip-rule="evenodd"/><path fill-rule="evenodd" d="M15 2a1 1 0 0 1 1 1v10a1 1 0 0 1-1 1H1a1 1 0 0 1-1-1V3a1 1 0 0 1 1-1zM8 3v10h7V3zM7 13V3H1v10z" clip-rule="evenodd"/></svg>