<svg xmlns="http://www.w3.org/2000/svg" viewBox="0 0 16 16" height="16px" width="16px" fill="currentColor" aria-hidden="true" role="img"><path d="M10.757 5.679a1 1 0 0 1 1.414 0L15.393 8.9a1 1 0 0 1 0 1.415L10.707 15h3.114v1H7.35a1 1 0 0 1-.707-.293l-2.25-2.25a1 1 0 0 1 0-1.414zM5.1 12.75 7.35 15h1.943l.678-.679L6.749 11.1zm2.357-2.357 3.222 3.221 4.006-4.007-3.221-3.221zM5.972.335l2.273 6.497-.784.785L7.245 7h-4.49l-1.283 3.665-.944-.33 1.4-4 2.1-6L4.146 0h1.708zM3.104 6h3.792l-1.75-5h-.292z"/></svg>