<svg xmlns="http://www.w3.org/2000/svg" viewBox="0 0 16 16" height="16px" width="16px" fill="currentColor" aria-hidden="true" role="img"><path fill-rule="evenodd" d="M12.104.892a1.5 1.5 0 1 1 2.723 1.26l-3.558 7.692-.013-.007q.151.145.26.285c.821 1.052.008 2.646-.536 3.864l-.086.183c-.793 1.595-2.022 1.8-2.325 1.827L8.5 16H1.708l-.081-.007a.523.523 0 0 1-.295-.865c.862-.933 2.214-2.478 3.153-3.943.852-1.33 1.708-2.945 3.283-2.843q.383.023.83.132zM7.703 9.34c-.373-.024-.71.13-1.115.566-.438.472-.797 1.092-1.262 1.818-.745 1.162-1.723 2.355-2.533 3.276H3.5c.076 0 .274-.066.6-.307a7.3 7.3 0 0 0 .97-.906c.669-.73 1.26-1.567 1.483-2.01l.894.447c-.278.556-.936 1.47-1.642 2.239-.17.186-.348.368-.527.537H6c.335 0 .724-.172 1.112-.505.382-.327.718-.773.94-1.218l.895.447c-.224.449-.54.897-.914 1.276h.45a1.6 1.6 0 0 0 .477-.148c.305-.152.756-.486 1.107-1.274.293-.657.581-1.254.723-1.826.14-.566.069-.848-.062-1.015-.158-.203-.494-.501-1.175-.842-.765-.383-1.38-.525-1.85-.555m5.973-8.273a.5.5 0 0 0-.665.245l-3.46 7.482a8 8 0 0 1 .894.448l3.474-7.51a.5.5 0 0 0-.243-.665" clip-rule="evenodd"/></svg>