<svg xmlns="http://www.w3.org/2000/svg" viewBox="0 0 16 16" height="16px" width="16px" fill="currentColor" aria-hidden="true" role="img"><g clip-path="url(#clip0_482_2951)"><path d="M1 14.5a.5.5 0 0 0 .5.5H3v1H1.5A1.5 1.5 0 0 1 0 14.5V13h1zm9 1.5H6v-1h4zm5.354-8.646L12.707 10l2.646 2.646-.707.707L12 10.708l-2.646 2.646-.708-.707L11.293 10 8.646 7.354l.708-.708L12 9.293l2.646-2.647zM1 10H0V6h1zm2-9H1.5a.5.5 0 0 0-.5.5V3H0V1.5A1.5 1.5 0 0 1 1.5 0H3zm11.5-1A1.5 1.5 0 0 1 16 1.5V3h-1V1.5a.5.5 0 0 0-.5-.5H13V0zM10 1H6V0h4z"/></g><defs><clipPath id="clip0_482_2951"><path d="M0 0h16v16H0z"/></clipPath></defs></svg>