<svg xmlns="http://www.w3.org/2000/svg" viewBox="0 0 16 16" height="16px" width="16px" fill="currentColor" aria-hidden="true" role="img"><path d="m8.33 7.625 2.5 2.2-.33.375-.33.375-1.67-1.47V15h-1V9.105l-1.67 1.47-.33-.375-.33-.376 2.5-2.199.33-.291zM8 2a4.416 4.416 0 0 1 4.326 3.531 4.255 4.255 0 0 1-.58 8.469H10v-1h1.746a3.254 3.254 0 1 0-.155-6.504l-.063.003a.034.034 0 0 1-.034-.027l-.144-.726a3.416 3.416 0 0 0-6.7 0l-.144.726a.034.034 0 0 1-.034.027l-.063-.003A3.254 3.254 0 1 0 4.254 13H6v1H4.254a4.254 4.254 0 0 1-.58-8.469A4.416 4.416 0 0 1 8 2"/></svg>