<svg xmlns="http://www.w3.org/2000/svg" viewBox="0 0 16 16" height="16px" width="16px" fill="currentColor" aria-hidden="true" role="img"><path d="M8 2a4.415 4.415 0 0 1 4.326 3.532 4.254 4.254 0 0 1-.58 8.468H4.254a4.254 4.254 0 0 1-.581-8.468A4.416 4.416 0 0 1 8 2m0 1a3.416 3.416 0 0 0-3.35 2.746l-.144.726-.013.02a.03.03 0 0 1-.021.007l-.063-.003A3.254 3.254 0 0 0 1 9.746l.004.167a3.255 3.255 0 0 0 3.083 3.083l.167.004h7.492l.167-.004a3.255 3.255 0 0 0 3.083-3.083L15 9.746a3.254 3.254 0 0 0-3.41-3.25l-.062.003-.021-.008a.03.03 0 0 1-.013-.02l-.144-.725A3.416 3.416 0 0 0 8 3"/></svg>