<svg xmlns="http://www.w3.org/2000/svg" viewBox="0 0 16 16" height="16px" width="16px" fill="currentColor" aria-hidden="true" role="img"><path d="M10 13.503a.5.5 0 0 1-.5.5v.497a.5.5 0 0 1-.5.5H7a.5.5 0 0 1-.5-.5v-.497a.5.5 0 0 1-.5-.5V13h4zM8 1q5 0 8 5-2.202 3.67-5.483 4.647l-.01.353a1 1 0 0 1-1 .992H6.554a1.034 1.034 0 0 1-1.046-.884l-.006-.456Q2.208 9.682 0 6q3-5 8-5m0 1a4 4 0 0 0-4 4c0 1.083.469 1.913 1.37 2.7 1.313 1.147.939 1.577 1.074 2.269l.004.031h3.103l.005-.031c.123-.63-.161-1.123.925-2.143l.149-.126C11.56 7.958 12 7.083 12 6a4 4 0 0 0-4-4m0 2a2 2 0 1 1 0 4 2 2 0 0 1 0-4m.75.5a.75.75 0 1 0 0 1.5.75.75 0 0 0 0-1.5"/></svg>