<svg width="16" height="16" viewBox="0 0 16 16" fill="none" xmlns="http://www.w3.org/2000/svg">
<g clip-path="url(#clip0_488_2666)">
<path d="M14 0C15.1046 0 16 0.895431 16 2V14C16 15.1046 15.1046 16 14 16H2C0.895431 16 0 15.1046 0 14V2C0 0.895431 0.895431 0 2 0H14ZM2 1C1.44772 1 1 1.44772 1 2V14C1 14.5523 1.44772 15 2 15H14C14.5523 15 15 14.5523 15 14V2C15 1.44772 14.5523 1 14 1H2ZM7.47754 4.14941L4.97754 12.1494L4.02246 11.8506L6.52246 3.85059L7.47754 4.14941ZM11.9775 4.14941L9.47754 12.1494L8.52246 11.8506L11.0225 3.85059L11.9775 4.14941Z" fill="#404040"/>
</g>
<defs>
<clipPath id="clip0_488_2666">
<rect width="16" height="16" fill="white"/>
</clipPath>
</defs>
</svg>
