<svg xmlns="http://www.w3.org/2000/svg" viewBox="0 0 16 16" height="16px" width="16px" fill="currentColor" aria-hidden="true" role="img"><path fill-rule="evenodd" d="M16 8c0 4.4-3.6 8-8 8s-8-3.6-8-8C0 3.683 3.465.136 7.752.004L8 0c4.4 0 8 3.6 8 8M5.308 1.538c-.862.431-1.616.862-2.262 1.508s-1.077 1.4-1.508 2.262C1.215 6.169 1 7.03 1 8s.215 1.83.538 2.692.862 1.616 1.508 2.262 1.4 1.077 2.262 1.507C6.169 14.785 7.03 15 8 15s1.83-.215 2.692-.539c.754-.376 1.425-.753 2.015-1.274l.247-.233c.646-.646 1.185-1.4 1.507-2.262C14.785 9.831 15 8.97 15 8s-.215-1.83-.539-2.692c-.322-.862-.861-1.616-1.507-2.262s-1.4-1.077-2.262-1.508C9.831 1.215 8.97 1 8 1s-1.83.215-2.692.538m7.446 2.036-2.715 6.334a.25.25 0 0 1-.13.131l-6.335 2.715a.25.25 0 0 1-.328-.328l2.715-6.334a.25.25 0 0 1 .13-.131l6.335-2.715a.25.25 0 0 1 .328.328m-7.851 7.522 3.84-1.646-2.194-2.194zm2.353-4.547L9.45 8.743l1.646-3.84z" clip-rule="evenodd"/></svg>