<svg xmlns="http://www.w3.org/2000/svg" viewBox="0 0 16 16" height="16px" width="16px" fill="currentColor" aria-hidden="true" role="img"><path d="M6 0a1 1 0 0 1 1 1v2H6V1H1v6.5h1.793L1.646 6.354l.708-.708L4.707 8l-2.353 2.354-.708-.708L2.793 8.5H1V15h5v-2h1v2a1 1 0 0 1-1 1H1a1 1 0 0 1-1-1V1a1 1 0 0 1 1-1zm9 0a1 1 0 0 1 1 1v14a1 1 0 0 1-1 1h-5a1 1 0 0 1-1-1v-2h1v2h5V8.5h-1.793l1.146 1.146-.707.707L11.294 8l2.354-2.354.707.708L13.207 7.5H15V1h-5v2H9V1l.005-.103A1 1 0 0 1 10 0zM7 12H6v-2h1zm3 0H9v-2h1zM7 9H6V7h1zm3 0H9V7h1zM7 6H6V4h1zm3 0H9V4h1z"/></svg>