<svg xmlns="http://www.w3.org/2000/svg" viewBox="0 0 16 16" height="16px" width="16px" fill="currentColor" aria-hidden="true" role="img"><path d="M3.809 6.207a1 1 0 0 1 1.452-.23l.087.078 4.638 4.638a1 1 0 0 1-.058 1.47l-.094.07-2.545 1.698a1 1 0 0 1-1.262-.125l-1.542-1.542-2.12 2.12-.708-.706 2.121-2.121-1.542-1.542-.06-.066a1 1 0 0 1-.065-1.196zm-.866 3.1L6.734 13.1l2.546-1.7-4.638-4.64zm11.442-6.943-2.121 2.121 1.542 1.542.06.065c.282.337.313.825.065 1.197l-1.698 2.545a1 1 0 0 1-1.452.23l-.087-.078-4.64-4.638a1 1 0 0 1 .06-1.47l.093-.07 2.546-1.697a1 1 0 0 1 1.262.125l1.542 1.542 2.12-2.12zM6.762 4.641l4.64 4.638 1.697-2.545-3.791-3.79z"/></svg>