<svg xmlns="http://www.w3.org/2000/svg" viewBox="0 0 16 16" height="16px" width="16px" fill="currentColor" aria-hidden="true" role="img"><path d="m9.554 9.153-1.4 1.4 1.292 1.294 1.4-1.4.708.706-1.4 1.4.23.231a1 1 0 0 1-.107 1.508L8.693 15.48a1 1 0 0 1-1.306-.093l-1.033-1.033L4.707 16 4 15.293l1.646-1.646-1.033-1.034a1 1 0 0 1-.092-1.307l1.187-1.583a1 1 0 0 1 1.507-.108l.231.232 1.4-1.4zM5.32 11.906l2.774 2.774 1.584-1.189-3.17-3.169zM12 0a2 2 0 0 1 2 2v2h-1V2a1 1 0 0 0-1-1H2a1 1 0 0 0-1 1v1h9v1H1v7a1 1 0 0 0 1 1h1v1H2a2 2 0 0 1-2-2V2a2 2 0 0 1 2-2zm4 4.707-1.646 1.647 1.033 1.033a1 1 0 0 1 .092 1.306l-1.187 1.584a1 1 0 0 1-1.507.108l-3.17-3.17a1 1 0 0 1 .108-1.507l1.584-1.187a1 1 0 0 1 1.306.092l1.034 1.033L15.293 4zm-5.678 1.8 3.17 3.17 1.188-1.583-2.774-2.774z"/></svg>