<svg xmlns="http://www.w3.org/2000/svg" viewBox="0 0 16 16" height="16px" width="16px" fill="currentColor" aria-hidden="true" role="img"><path fill-rule="evenodd" d="M15.005 1h-4V.002H15a1 1 0 0 1 1 1v4L15.005 5zM1 5V1h4l.003-.995h-4a1 1 0 0 0-1 1V5zm9 2V5a2 2 0 1 0-4 0v2h1V5l.007-.117A1 1 0 0 1 9 5v2zm1.75.308 1.3-.75a.5.5 0 1 0-.5-.866l-1.3.75a.5.5 0 1 0 .5.866m-7.5 1.384a.5.5 0 0 1 .573.814l-.074.052-1.299.75a.5.5 0 0 1-.574-.814l.074-.052zm8.982 1.433a.5.5 0 0 0-.183-.683l-1.299-.75a.5.5 0 1 0-.5.866l1.3.75a.5.5 0 0 0 .682-.183m-6.225.992L7 11V9H6v2l.005.15A2 2 0 0 0 10 11V9H9v2l-.007.117a1 1 0 0 1-1.986 0M3.45 5.692l1.3.75a.5.5 0 0 1-.419.904l-.082-.038-1.299-.75a.5.5 0 0 1 .333-.926l.085.022zM15 11.002v4h-4l-.002.995h4a1 1 0 0 0 1-1v-3.995zm-14.005 4h4V16H1a1 1 0 0 1-1-1v-4l.995.003z" clip-rule="evenodd"/></svg>