<svg xmlns="http://www.w3.org/2000/svg" viewBox="0 0 16 16" height="16px" width="16px" fill="currentColor" aria-hidden="true" role="img"><g clip-path="url(#clip0_392_2887)"><path d="M3 2.05a2.501 2.501 0 0 1 0 4.9V16H2V6.95a2.5 2.5 0 0 1 0-4.9V0h1zM8.5 9.1a2.5 2.5 0 0 1 2 2.45l-.013.256A2.5 2.5 0 0 1 8.5 13.998V16h-1v-2.002a2.5 2.5 0 0 1-1.987-2.192L5.5 11.55a2.5 2.5 0 0 1 2-2.45V0h1zM14 4.05a2.501 2.501 0 0 1 0 4.9V16h-1V8.95a2.5 2.5 0 0 1 0-4.9V0h1zm-6 6a1.5 1.5 0 1 0 0 3 1.5 1.5 0 0 0 0-3M13.5 5a1.5 1.5 0 1 0 0 3 1.5 1.5 0 0 0 0-3m-11-2a1.5 1.5 0 1 0 0 3 1.5 1.5 0 0 0 0-3"/></g><defs><clipPath id="clip0_392_2887"><path d="M0 0h16v16H0z"/></clipPath></defs></svg>