<svg xmlns="http://www.w3.org/2000/svg" viewBox="0 0 16 16" height="16px" width="16px" fill="currentColor" aria-hidden="true" role="img"><path d="M1 13.6c0 .22.18.4.4.4H2v1H1a1 1 0 0 1-1-1v-1h1zM7 15H4v-1h3zm5 0H9v-1h3zm4-1a1 1 0 0 1-1 1h-1v-1h.6a.4.4 0 0 0 .4-.4V13h1zM7 6V5H4v3h2V6.5a.5.5 0 0 1 .5-.5zm-6 5H0V9h1zm6 0h4V7H7zm9 0h-1V9h1zM1 7H0V5h1zm15 0h-1V5h1zM2 2h-.6a.4.4 0 0 0-.4.4V3H0V2a1 1 0 0 1 1-1h1zm13-1a1 1 0 0 1 1 1v1h-1v-.6a.4.4 0 0 0-.4-.4H14V1zM7 2H4V1h3zm5 0H9V1h3zm-.5 4a.5.5 0 0 1 .5.5v5a.5.5 0 0 1-.4.49l-.1.01h-5l-.1-.01a.5.5 0 0 1-.39-.39L6 11.5V9H3.5a.5.5 0 0 1-.49-.4L3 8.5v-4a.5.5 0 0 1 .5-.5h4l.1.01a.5.5 0 0 1 .4.49V6z"/></svg>