<svg xmlns="http://www.w3.org/2000/svg" viewBox="0 0 16 16" height="16px" width="16px" fill="currentColor" aria-hidden="true" role="img"><path fill-rule="evenodd" d="M3 2.05a2.501 2.501 0 0 1 0 4.9V16H2V6.95a2.5 2.5 0 0 1 0-4.9V0h1zM2.5 3a1.5 1.5 0 1 0 0 3 1.5 1.5 0 0 0 0-3m6 6.1a2.5 2.5 0 0 1 2 2.45l-.013.256A2.5 2.5 0 0 1 8.5 13.998V16h-1v-2.002a2.5 2.5 0 0 1-1.987-2.192L5.5 11.55a2.5 2.5 0 0 1 2-2.45V0h1zm-.5.95a1.5 1.5 0 1 0 0 3 1.5 1.5 0 0 0 0-3m6-6a2.501 2.501 0 0 1 0 4.9V16h-1V8.95a2.5 2.5 0 0 1 0-4.9V0h1zm-.5.95a1.5 1.5 0 1 0 0 3 1.5 1.5 0 0 0 0-3" clip-rule="evenodd"/></svg>