<svg xmlns="http://www.w3.org/2000/svg" viewBox="0 0 16 16" height="16px" width="16px" fill="currentColor" aria-hidden="true" role="img"><path fill-rule="evenodd" d="M7.893 2.012a.5.5 0 0 1 .319.035l7.5 3.5a.5.5 0 0 1 0 .906L13 7.718V12a.5.5 0 0 1-.084.277l-.062.077-.01.01-.085.076a4 4 0 0 1-.24.195c-.21.156-.516.36-.92.562C10.787 13.603 9.586 14 8 14s-2.787-.397-3.599-.803a6 6 0 0 1-.92-.562 4 4 0 0 1-.325-.272l-.01-.01A.5.5 0 0 1 3 12V7.718l-2-.934V12.5a.5.5 0 0 1-1 0V6q0-.045.008-.09l.007-.028.018-.059.009-.024.04-.073q.005-.01.013-.019l.044-.052.014-.015.056-.046.015-.011.064-.036 7.5-3.5zm.319 7.941a.5.5 0 0 1-.424 0L4 8.185v3.583q.035.03.081.066c.166.125.422.296.768.469C5.537 12.647 6.586 13 8 13s2.463-.353 3.151-.697a5 5 0 0 0 .768-.469q.045-.035.081-.066V8.185zM2.754 5.5H8a.5.5 0 1 1 0 1H2.754L8 8.947 14.316 6 8 3.052z" clip-rule="evenodd"/></svg>