<svg xmlns="http://www.w3.org/2000/svg" viewBox="0 0 16 16" height="16px" width="16px" fill="currentColor" aria-hidden="true" role="img"><path d="M12.5 1A1.5 1.5 0 0 1 14 2.5v3.756a4.5 4.5 0 0 0-1-.229V2.5a.5.5 0 0 0-.5-.5h-11a.5.5 0 0 0-.5.5v9a.5.5 0 0 0 .5.5h6.756q.19.535.502 1H8v2h2v1H5v-1h2v-2H1.5A1.5 1.5 0 0 1 0 11.5v-9A1.5 1.5 0 0 1 1.5 1zm0 6a3.5 3.5 0 1 1 0 7 3.5 3.5 0 0 1 0-7m0 1a2.5 2.5 0 1 0 0 5 2.5 2.5 0 0 0 0-5m0 .668a.5.5 0 0 1 .5.5V10h.833a.5.5 0 0 1 0 1H13v.835a.5.5 0 0 1-1 0V11h-.833a.5.5 0 0 1 0-1H12v-.832a.5.5 0 0 1 .5-.5M3.5 4a.5.5 0 0 1 .5.5V10H3V4.5a.5.5 0 0 1 .5-.5m3 3a.5.5 0 0 1 .5.5V10H6V7.5a.5.5 0 0 1 .5-.5m3-2a.5.5 0 0 1 .5.5v1.258c-.378.253-.715.56-1 .913V5.5a.5.5 0 0 1 .5-.5"/></svg>