<svg xmlns="http://www.w3.org/2000/svg" viewBox="0 0 16 16" height="16px" width="16px" fill="currentColor" aria-hidden="true" role="img"><path d="M14 0a1 1 0 1 1 0 2v1.5h1a1 1 0 0 1 1 1v2l-.005.103A1 1 0 0 1 15 7.5h-1v1h1a1 1 0 0 1 1 1v2l-.005.102A1 1 0 0 1 15 12.5h-1V14a1 1 0 1 1-1 1H3a1 1 0 1 1-1-1v-1.5H1l-.103-.005A1 1 0 0 1 0 11.5v-2a1 1 0 0 1 .897-.995L1 8.5h1v-1H1l-.103-.005A1 1 0 0 1 0 6.5v-2a1 1 0 0 1 .897-.995L1 3.5h1V2a1 1 0 1 1 1-1h10a1 1 0 0 1 1-1M3 14h10v-1.5H3zm-2-2.5h14v-2H1zm2-4v1h10v-1zm-2-1h14v-2H1zm2-3h10V2H3z"/></svg>