<svg xmlns="http://www.w3.org/2000/svg" viewBox="0 0 16 16" height="16px" width="16px" fill="currentColor" aria-hidden="true" role="img"><path d="M13 1a3.535 3.535 0 0 1 0 5L9.854 9.146l1.267 1.268a2.5 2.5 0 1 1-.707.707L9.146 9.854 8 11 6.854 9.854 5.585 11.12a2.5 2.5 0 1 1-.707-.707l1.268-1.268L3 6a3.536 3.536 0 0 1 0-5l5 5zM3.5 11a1.5 1.5 0 1 0 0 3 1.5 1.5 0 0 0 0-3m9 0a1.5 1.5 0 1 0 0 3 1.5 1.5 0 0 0 0-3M3.145 2.56a2.54 2.54 0 0 0 .562 2.733L8 9.586 9.085 8.5zm5.562 4.147 1.086 1.086 2.5-2.5c.74-.74.927-1.821.563-2.734z"/></svg>