<svg xmlns="http://www.w3.org/2000/svg" viewBox="0 0 16 16" height="16px" width="16px" fill="currentColor" aria-hidden="true" role="img"><path fill-rule="evenodd" d="M13.302 1.414c.365.286.667.672.696 1.152l.002.047V6.6a5.5 5.5 0 0 0-1-.393v-2.13a6 6 0 0 1-1.235.551c-1.237.409-2.919.652-4.77.652-1.852 0-3.531-.243-4.765-.652A6 6 0 0 1 1 4.078V7.5c0 .077.046.229.314.44.262.206.674.413 1.23.597 1.01.334 2.404.558 3.99.595a5.5 5.5 0 0 0-.36.989c-1.524-.06-2.895-.288-3.944-.634A6 6 0 0 1 1 8.937V12.5c0 .072.04.214.304.41.26.194.67.387 1.227.554 1.026.31 2.448.505 4.067.533q.276.538.658 1.002L6.995 15c-1.845 0-3.52-.207-4.752-.578-.613-.184-1.146-.418-1.537-.71C.318 13.422 0 13.019 0 12.5v-10q.001-.126.056-.23c.107-.345.354-.63.64-.856.388-.305.92-.559 1.534-.762C3.464.244 5.143 0 6.995 0s3.533.244 4.77.652c.615.203 1.148.456 1.537.762M1 2.64c0 .077.046.23.314.44.262.207.674.415 1.23.599 1.107.366 2.675.601 4.45.601 1.777 0 3.348-.235 4.457-.601.557-.184.97-.392 1.234-.6.267-.209.314-.36.315-.437v-.004c0-.076-.048-.228-.315-.437-.263-.207-.677-.415-1.234-.6C10.341 1.236 8.771 1 6.995 1s-3.344.235-4.45.602c-.557.184-.969.392-1.231.598-.268.21-.314.363-.314.44" clip-rule="evenodd"/><path fill-rule="evenodd" d="M11.306 13.685 9 11.781l.625-.78 1.569 1.314 2.269-2.521.743.669z" clip-rule="evenodd"/><path fill-rule="evenodd" d="M11.5 16a4.5 4.5 0 1 1 0-9 4.5 4.5 0 0 1 0 9m0-1a3.5 3.5 0 1 0 0-7 3.5 3.5 0 0 0 0 7" clip-rule="evenodd"/></svg>