<svg xmlns="http://www.w3.org/2000/svg" viewBox="0 0 16 16" height="16px" width="16px" fill="currentColor" aria-hidden="true" role="img"><path d="M10.5 2c3.037 0 5.5.836 5.5 1.866l-.001 8.27-.004.071C15.876 13.206 13.462 14 10.5 14s-5.377-.794-5.496-1.79L5 12.13V8.597l-.24.25-2.4 2.5-.72-.694L3.227 9H0V8h3.227L1.64 6.347l.72-.694 2.4 2.5.24.25V3.865c0-1.005 2.341-1.824 5.273-1.864zM15 9c-.962.543-2.498 1-4.499 1s-3.618-.456-4.58-.998l.002 2.914c0 .055.341.33 1.077.58.938.317 2.104.504 3.501.504s2.483-.187 3.42-.505c.295-.1.527-.204.698-.296l.152-.087q.066-.041.113-.076l.074-.06q.041-.04.042-.056l-.002-.005H15zm0-3.908c-.962.542-2.5.908-4.501.908-2 0-3.616-.366-4.578-.908l.002 2.82c0 .019.037.062.115.12l.112.076c.177.11.457.25.85.383.938.318 2.103.509 3.5.509s2.484-.19 3.422-.509c.736-.25 1.078-.523 1.078-.575l-.002-.005H15zM10.5 3c-1.334 0-2.577.173-3.472.468C6.326 3.698 6 3.952 6 4s.326.301 1.028.532C7.923 4.827 9.166 5 10.5 5s2.576-.173 3.47-.468C14.674 4.302 15 4.048 15 4s-.327-.301-1.03-.532C13.077 3.173 11.835 3 10.5 3"/></svg>