<svg xmlns="http://www.w3.org/2000/svg" viewBox="0 0 16 16" height="16px" width="16px" fill="currentColor" aria-hidden="true" role="img"><path d="M7.995.5c1.852 0 3.533.244 4.77.652.615.204 1.148.457 1.538.762.35.275.639.643.686 1.098q.01.049.011.101V13c0 .52-.32.923-.708 1.212-.392.292-.926.526-1.54.71-1.234.37-2.912.578-4.757.578s-3.52-.207-4.752-.578c-.612-.184-1.146-.418-1.537-.71C1.318 13.922 1 13.519 1 13V3q.001-.121.055-.224c.105-.347.353-.636.64-.862.389-.305.92-.558 1.534-.762C4.463.744 6.143.5 7.995.5M14 9.435a6 6 0 0 1-1.235.551c-1.237.408-2.919.65-4.77.65s-3.53-.242-4.765-.65A6 6 0 0 1 2 9.436V13c0 .072.04.214.304.41.26.194.67.387 1.227.555 1.11.334 2.681.535 4.464.535s3.357-.202 4.469-.536c.559-.168.97-.36 1.231-.554.265-.197.305-.339.305-.41zm0-4.86a6 6 0 0 1-1.235.553c-1.237.408-2.918.652-4.77.652s-3.532-.244-4.766-.652A6 6 0 0 1 2 4.578V8c0 .077.046.23.313.44.263.206.675.413 1.231.597 1.107.366 2.675.6 4.451.6s3.347-.234 4.456-.6c.557-.184.971-.391 1.234-.598.27-.21.315-.363.315-.439zM7.995 1.5c-1.776 0-3.344.235-4.451.602-.556.184-.968.392-1.23.598-.268.21-.314.364-.314.44 0 .078.046.23.313.44.263.207.675.415 1.231.599 1.107.366 2.675.601 4.451.601s3.347-.235 4.456-.601c.557-.184.971-.392 1.234-.599.269-.21.315-.363.315-.44 0-.075-.045-.229-.315-.44-.263-.207-.677-.414-1.234-.598-1.11-.367-2.68-.602-4.456-.602"/></svg>