<svg xmlns="http://www.w3.org/2000/svg" viewBox="0 0 16 16" height="16px" width="16px" fill="currentColor" aria-hidden="true" role="img"><path d="M13.628 5.283a.75.75 0 0 1 .372.648v6.138l-.007.099a.75.75 0 0 1-.365.549l-5.25 3.062-.09.045a.75.75 0 0 1-.666-.045l-5.25-3.062a.75.75 0 0 1-.365-.549L2 12.069V5.931a.75.75 0 0 1 .372-.648l1.523-.888.73.73-1.298.757L8 8.43l4.672-2.55-2.245-1.309.73-.73zM3 11.926l4.5 2.624V9.296L3 6.84zm5.5-2.63v5.254l4.5-2.624V6.84zM12.354.854 7.5 5.707 4.646 2.854l.708-.708L7.5 4.293 11.647.146z"/></svg>