<svg xmlns="http://www.w3.org/2000/svg" viewBox="0 0 16 16" height="16px" width="16px" fill="currentColor" aria-hidden="true" role="img"><g clip-path="url(#clip0_392_2900)"><path d="M11 6c1.275 0 2.45.158 3.325.428.435.133.825.304 1.117.516.281.205.548.508.556.912l.002.016v6.252l-.013.15c-.056.34-.295.6-.545.782-.292.213-.682.383-1.117.516-.875.27-2.05.428-3.325.428s-2.45-.158-3.325-.428c-.435-.133-.825-.303-1.117-.516-.285-.208-.558-.518-.558-.932V7.872l.001-.016c.008-.404.276-.707.557-.912.292-.212.682-.383 1.117-.516C8.55 6.158 9.725 6 11 6m3.941 6.34q-.286.132-.616.232c-.875.27-2.05.428-3.325.428s-2.45-.158-3.325-.428a5 5 0 0 1-.609-.227l-.007 1.771c.004.011.028.062.145.148.16.116.425.243.799.358.743.229 1.803.378 2.997.378s2.254-.15 2.997-.378c.374-.115.639-.242.799-.358.117-.086.142-.137.145-.148zM12 0a2 2 0 0 1 2 2v3h-1V4H1v7a1 1 0 0 0 1 1h3v1H2a2 2 0 0 1-2-2V2a2 2 0 0 1 2-2zm2.941 9.34a5 5 0 0 1-.616.232c-.875.27-2.05.428-3.325.428s-2.45-.158-3.325-.428q-.317-.098-.594-.221l-.009 1.787a.5.5 0 0 0 .132.126c.16.116.425.243.799.358.743.229 1.803.378 2.997.378s2.254-.15 2.997-.378c.374-.115.639-.242.799-.358.117-.086.142-.137.145-.148zM11 7c-1.194 0-2.254.15-2.997.378-.374.115-.639.242-.799.358a.5.5 0 0 0-.138.132q.019.063.02.123c.022.098.057.228.118.273.16.116.425.243.799.358C8.746 8.851 9.806 9 11 9s2.254-.15 2.997-.378c.374-.115.639-.242.799-.358.1-.073.133-.368.143-.388a.5.5 0 0 0-.143-.14c-.16-.116-.425-.243-.799-.358C13.254 7.149 12.194 7 11 7M2 1a1 1 0 0 0-1 1v1h12V2a1 1 0 0 0-1-1z"/></g><defs><clipPath id="clip0_392_2900"><path d="M0 0h16v16H0z"/></clipPath></defs></svg>