<svg xmlns="http://www.w3.org/2000/svg" viewBox="0 0 16 16" height="16px" width="16px" fill="currentColor" aria-hidden="true" role="img"><path d="M11.5 7a4.5 4.5 0 1 1 0 9 4.5 4.5 0 0 1 0-9M7.995.5c1.852 0 3.533.244 4.77.652.615.204 1.148.457 1.538.762.35.275.638.642.686 1.096q.01.05.011.103v4.144a5.5 5.5 0 0 0-1-.656V4.575a6 6 0 0 1-1.235.553c-1.237.408-2.918.652-4.77.652s-3.532-.244-4.766-.652A6 6 0 0 1 2 4.578V8l.012.071c.025.085.1.21.301.368.263.207.675.414 1.231.598.75.248 1.712.432 2.808.527a5.5 5.5 0 0 0-.268.98c-1.086-.104-2.062-.296-2.854-.558A6 6 0 0 1 2 9.436V13c0 .072.04.214.304.41.26.194.67.387 1.227.555.87.261 2.024.439 3.341.505q.364.566.85 1.026c-1.736-.02-3.308-.222-4.479-.574-.612-.184-1.146-.418-1.537-.71C1.318 13.922 1 13.519 1 13V3q.002-.12.054-.222c.105-.348.353-.637.641-.864.389-.305.92-.558 1.534-.762C4.463.744 6.143.5 7.995.5M11.5 8a3.5 3.5 0 1 0 0 7 3.5 3.5 0 0 0 0-7m.5 3h1.5v1H12v1.5h-1V12H9.5v-1H11V9.5h1zM7.995 1.5c-1.776 0-3.344.235-4.451.602-.556.184-.968.392-1.23.598-.268.21-.314.364-.314.44 0 .078.046.23.313.44.263.207.675.415 1.231.599 1.107.366 2.675.601 4.451.601s3.347-.235 4.456-.601c.557-.184.971-.392 1.234-.599.269-.21.315-.363.315-.44 0-.075-.045-.229-.315-.44-.263-.207-.677-.414-1.234-.598-1.11-.367-2.68-.602-4.456-.602"/></svg>