<svg xmlns="http://www.w3.org/2000/svg" viewBox="0 0 16 16" height="16px" width="16px" fill="currentColor" aria-hidden="true" role="img"><path d="M12 1a1 1 0 0 1 1 1v5.547l.046-.046a1 1 0 0 1 1.415 0l1.242 1.242.069.075a1 1 0 0 1-.069 1.34l-5.29 5.29-.068.06a1 1 0 0 1-.58.23l-2.446.145.146-2.444c.013-.214.093-.418.23-.582l.06-.066.792-.791H1l-.103-.005a1 1 0 0 1-.892-.893L0 11V2a1 1 0 0 1 1-1zM8.463 13.498l-.078 1.32 1.32-.078 3.664-3.664-1.242-1.242zM1 11h3V5H1zm4 0h3V5H5zm4 0h.547L12 8.547V5H9zm3.834-1.873 1.242 1.242.92-.919-1.242-1.242zM1 4h11V2H1z"/></svg>