<svg xmlns="http://www.w3.org/2000/svg" viewBox="0 0 16 16" height="16px" width="16px" fill="currentColor" aria-hidden="true" role="img"><path d="M7.126 1.073a1 1 0 0 1 1.748 0l1.68 3.026Q11.014 4 11.5 4a4.502 4.502 0 0 1 0 9.002 4.5 4.5 0 0 1-1.5-.258v1.38c0 .415-.273.725-.558.932-.292.213-.682.383-1.117.517C7.45 15.842 6.275 16 5 16s-2.45-.159-3.325-.428c-.435-.134-.825-.304-1.117-.517-.285-.207-.558-.518-.558-.931V7.862c.006-.407.276-.713.558-.918.292-.213.682-.383 1.117-.517.748-.23 1.717-.378 2.78-.417l-.073.002zm1.815 11.269q-.286.13-.616.23C7.45 12.842 6.275 13 5 13s-2.45-.159-3.325-.428a5 5 0 0 1-.608-.227l-.008 1.772c.004.013.03.063.145.146.16.117.425.244.799.359C2.746 14.85 3.806 15 5 15s2.254-.15 2.997-.378c.374-.115.639-.242.799-.359.114-.082.14-.133.145-.146zM11.5 5q-.219 0-.43.026l1.105 1.987a1 1 0 0 1-.735 1.476l-.14.01H10v3.162A3.501 3.501 0 1 0 11.5 5M8.942 9.34a5 5 0 0 1-.617.231C7.45 9.842 6.275 10 5 10s-2.45-.159-3.325-.428a5 5 0 0 1-.594-.22l-.008 1.79a.6.6 0 0 0 .131.121c.16.117.425.244.799.359C2.746 11.85 3.806 12 5 12s2.254-.15 2.997-.378c.374-.115.639-.242.799-.359.118-.086.142-.136.145-.147zM5 7c-1.194 0-2.254.15-2.997.379-.374.115-.639.24-.799.357a.5.5 0 0 0-.136.129q.02.069.02.135c.021.096.056.22.116.263.16.117.425.244.799.359C2.746 8.85 3.806 9 5 9s2.254-.15 2.997-.378c.374-.115.639-.242.799-.359.039-.028.068-.09.089-.158l.053-.23a.5.5 0 0 0-.142-.139c-.16-.116-.425-.242-.799-.357-.743-.23-1.803-.38-2.997-.38m5 .876-.006-.1-.006-.03a1 1 0 0 1 .012.13m-.02-.178q-.005-.026-.012-.05.007.024.012.05m-4.453-1.69h-.052c1.09.034 2.085.184 2.85.42.435.133.825.303 1.117.516.191.139.374.325.476.556h1.383L8 1.56z"/></svg>