<svg xmlns="http://www.w3.org/2000/svg" viewBox="0 0 16 16" height="16px" width="16px" fill="currentColor" aria-hidden="true" role="img"><path d="M12.379 3a1.5 1.5 0 0 1 1.06.44l2.121 2.12A1.5 1.5 0 0 1 16 6.622V13.5a1.5 1.5 0 0 1-1.5 1.5h-7A1.5 1.5 0 0 1 6 13.5V11s.65.65 1 .65v1.85a.5.5 0 0 0 .5.5h7a.5.5 0 0 0 .5-.5V6.621a.5.5 0 0 0-.146-.353l-2.122-2.122A.5.5 0 0 0 12.38 4H7.5a.5.5 0 0 0-.5.5V5H6v-.5A1.5 1.5 0 0 1 7.5 3zM8.5 1a1.5 1.5 0 0 1 1.415 1H1.5a.5.5 0 0 0-.5.5v9a.5.5 0 0 0 .5.5H5v1H1.5A1.5 1.5 0 0 1 0 11.5v-9A1.5 1.5 0 0 1 1.5 1zM9 5.72a.6.6 0 0 1 .995-.451l3.748 3.28a.6.6 0 0 1 0 .902l-3.748 3.28A.6.6 0 0 1 9 12.28V11H7.803a1.5 1.5 0 0 1-.832-.252l-.996-.664A.5.5 0 0 0 5.697 10H3a.5.5 0 0 1 0-1h2.697a1.5 1.5 0 0 1 .832.252l.996.664a.5.5 0 0 0 .278.084H10v1.398L12.74 9 10 6.602V8H8.53a.6.6 0 0 1-.333-.1l-.97-.648A1.5 1.5 0 0 0 6.395 7H5.5a.5.5 0 0 1 0-1h.895a2.5 2.5 0 0 1 1.386.42l.87.58H9zM3.5 6a.5.5 0 1 1 0 1 .5.5 0 0 1 0-1"/></svg>