<svg xmlns="http://www.w3.org/2000/svg" viewBox="0 0 16 16" height="16px" width="16px" fill="currentColor" aria-hidden="true" role="img"><path d="M11 6c1.275 0 2.45.158 3.325.428.435.133.825.304 1.117.516.285.208.558.518.558.932v6.248c0 .414-.273.724-.558.932-.292.213-.682.383-1.117.516-.875.27-2.05.428-3.325.428s-2.45-.158-3.325-.428c-.435-.133-.825-.303-1.117-.516-.285-.208-.558-.518-.558-.932V7.861c.006-.406.276-.712.558-.917.292-.212.682-.383 1.117-.516C8.55 6.158 9.725 6 11 6m3.941 6.342q-.286.13-.616.23c-.875.27-2.05.428-3.325.428s-2.45-.158-3.325-.428a5 5 0 0 1-.608-.226l-.008 1.771c.005.013.03.064.145.147.16.116.425.243.799.358.743.229 1.803.378 2.997.378s2.254-.15 2.997-.378c.374-.115.639-.242.799-.358.114-.083.14-.134.145-.147zM12 0a2 2 0 0 1 2 2v3h-1V4H1v7a1 1 0 0 0 1 1h3v1H2a2 2 0 0 1-2-2V2a2 2 0 0 1 2-2zm2.942 9.342q-.287.13-.617.23c-.875.27-2.05.428-3.325.428s-2.45-.158-3.325-.428a5 5 0 0 1-.594-.22l-.008 1.79a.6.6 0 0 0 .131.122c.16.116.425.243.799.358.743.229 1.803.378 2.997.378s2.254-.15 2.997-.378c.374-.115.639-.242.799-.358.117-.086.142-.137.145-.148zM11 7c-1.194 0-2.254.15-2.997.378-.374.115-.639.242-.799.358a.5.5 0 0 0-.136.128q.02.07.02.136c.021.096.057.22.116.264.16.116.425.243.799.358C8.746 8.851 9.806 9 11 9s2.254-.15 2.997-.378c.374-.115.639-.242.799-.358.078-.057.115-.253.132-.343l.01-.045a.5.5 0 0 0-.142-.14c-.16-.116-.425-.243-.799-.358C13.254 7.149 12.194 7 11 7M2 1a1 1 0 0 0-1 1v1h12V2a1 1 0 0 0-1-1z"/></svg>