<svg xmlns="http://www.w3.org/2000/svg" viewBox="0 0 16 16" height="16px" width="16px" fill="currentColor" aria-hidden="true" role="img"><path d="M7.995.5c1.852 0 3.533.244 4.77.652.615.204 1.148.457 1.538.762.35.275.638.642.686 1.096q.01.05.011.103V13c0 .52-.32.923-.708 1.212-.392.292-.926.526-1.54.71-1.234.37-2.912.578-4.757.578s-3.52-.207-4.752-.578c-.612-.184-1.146-.418-1.537-.71C1.318 13.922 1 13.519 1 13V3a.5.5 0 0 1 .055-.222c.105-.348.352-.637.64-.864.389-.305.92-.558 1.534-.762C4.463.744 6.143.5 7.995.5m0 1c-1.776 0-3.344.235-4.451.602-.556.184-.968.392-1.23.598a1 1 0 0 0-.271.3H2v10c0 .072.04.214.304.41.26.194.67.387 1.227.555 1.11.334 2.681.535 4.464.535s3.357-.202 4.469-.536c.559-.168.97-.36 1.231-.554.265-.197.305-.339.305-.41V3h-.04a1 1 0 0 0-.275-.3c-.263-.207-.677-.414-1.234-.598-1.11-.367-2.68-.602-4.456-.602M7.015 4c-.76 0-1.375.616-1.375 1.375V7.04L4.44 8l1.2.96v1.665c0 .76.615 1.375 1.375 1.375v1a2.375 2.375 0 0 1-2.375-2.375V9.44l-1.215-.97a.6.6 0 0 1 0-.938L4.64 6.56V5.375A2.375 2.375 0 0 1 7.015 3zM9 3a2.375 2.375 0 0 1 2.375 2.375V6.56l1.215.971a.6.6 0 0 1 0 .938l-1.215.971v1.185A2.375 2.375 0 0 1 9 13v-1c.76 0 1.375-.616 1.375-1.375V8.96l1.2-.96-1.2-.96V5.375C10.375 4.615 9.759 4 9 4z"/></svg>