<svg xmlns="http://www.w3.org/2000/svg" viewBox="0 0 16 16" height="16px" width="16px" fill="currentColor" aria-hidden="true" role="img"><path d="M.5 13.334a.5.5 0 0 1 .5.5v1.12h1.125a.5.5 0 0 1 0 1H.5a.5.5 0 0 1-.5-.5v-1.62a.5.5 0 0 1 .5-.5m15.001 0a.5.5 0 0 1 .5.5v1.62a.5.5 0 0 1-.5.5h-1.625a.5.5 0 0 1 0-1h1.125v-1.12a.5.5 0 0 1 .5-.5M6 1.529A.75.75 0 0 1 7.227.951l7.857 6.47a.75.75 0 0 1 0 1.158l-7.857 6.47A.75.75 0 0 1 6 14.47V11H.75a.75.75 0 0 1-.75-.75v-4.5A.75.75 0 0 1 .75 5H6zM7 5.25a.75.75 0 0 1-.75.75H1v4h5.25a.75.75 0 0 1 .75.75v3.19L14.214 8 7 2.06zM2.125 0a.5.5 0 0 1 0 1H1v1.12a.5.5 0 0 1-1 0V.5A.5.5 0 0 1 .5 0zm13.376 0a.5.5 0 0 1 .5.5v1.62a.5.5 0 0 1-1 0V1h-1.125a.5.5 0 1 1 0-1z"/></svg>