<svg xmlns="http://www.w3.org/2000/svg" viewBox="0 0 16 16" height="16px" width="16px" fill="currentColor" aria-hidden="true" role="img"><path d="M9.586 0a1 1 0 0 1 .707.293l4.414 4.414a1 1 0 0 1 .293.707V14a2 2 0 0 1-2 2H3a2 2 0 0 1-2-2V2a2 2 0 0 1 2-2zM3 1a1 1 0 0 0-1 1v12a1 1 0 0 0 1 1h10a1 1 0 0 0 1-1V6h-3a2 2 0 0 1-2-2V1zm2.25 9.25a.75.75 0 1 1 0 1.5.75.75 0 0 1 0-1.5m2.75 0a.75.75 0 1 1 0 1.5.75.75 0 0 1 0-1.5m2.75 0a.75.75 0 1 1 0 1.5.75.75 0 0 1 0-1.5M10 4a1 1 0 0 0 1 1h2.5L10 1.5z"/></svg>