<svg xmlns="http://www.w3.org/2000/svg" viewBox="0 0 16 16" height="16px" width="16px" fill="currentColor" aria-hidden="true" role="img"><path d="M5.5 2c3.038 0 5.5.836 5.5 1.866l-.001 8.27-.004.071C10.876 13.206 8.462 14 5.5 14c-2.961 0-5.376-.794-5.495-1.79L0 12.13V3.866c0-1.005 2.341-1.824 5.273-1.864zM10 9c-.962.543-2.498 1-4.499 1s-3.617-.456-4.58-.998l.002 2.914c0 .055.341.33 1.077.58.938.317 2.104.504 3.501.504s2.483-.187 3.42-.505c.295-.1.528-.204.7-.296l.15-.087q.066-.041.113-.076l.075-.06q.04-.04.041-.056l-.002-.005H10zm5.56-.847.334.347-.334.347-2.399 2.5L12.8 11l-.36-.347L14.026 9H11V8h3.026L12.44 6.347 12.8 6l.361-.347zM10 5.092C9.038 5.634 7.5 6 5.499 6c-2 0-3.616-.366-4.578-.908l.002 2.821c0 .019.038.062.115.12l.113.075c.176.11.457.25.849.383C2.938 8.81 4.103 9 5.5 9s2.484-.19 3.422-.509C9.658 8.241 10 7.968 10 7.916l-.002-.005H10zM5.5 3c-1.334 0-2.577.173-3.472.468C1.326 3.698 1 3.952 1 4s.326.301 1.028.532C2.923 4.827 4.166 5 5.5 5s2.577-.173 3.472-.468C9.674 4.302 10 4.048 10 4s-.326-.301-1.028-.532C8.077 3.173 6.834 3 5.5 3"/></svg>