<svg xmlns="http://www.w3.org/2000/svg" viewBox="0 0 16 16" height="16px" width="16px" fill="currentColor" aria-hidden="true" role="img"><path d="M7.995.5c1.852 0 3.533.244 4.77.652.615.204 1.148.457 1.538.762.365.286.666.672.695 1.151l.002.048V13c0 .52-.32.923-.708 1.212-.392.292-.926.526-1.54.71-1.234.37-2.912.578-4.757.578s-3.52-.207-4.752-.578c-.612-.184-1.146-.418-1.537-.71C1.318 13.922 1 13.519 1 13V3q0-.126.057-.23c.106-.345.352-.631.638-.856.389-.305.92-.558 1.534-.762C4.463.744 6.143.5 7.995.5m0 1c-1.776 0-3.344.235-4.451.602-.556.184-.968.392-1.23.598a1 1 0 0 0-.274.3H2v10c0 .072.04.214.304.41.26.194.67.387 1.227.555 1.11.334 2.681.535 4.464.535s3.357-.201 4.469-.535c.559-.168.97-.36 1.231-.555.265-.197.305-.339.305-.41V3h-.04a1 1 0 0 0-.275-.3c-.263-.207-.677-.414-1.234-.598-1.11-.367-2.68-.602-4.456-.602M3.544 9.037c1.107.366 2.675.6 4.451.6s3.347-.234 4.456-.6q.303-.1.549-.208v1.067l-.235.09c-1.237.408-2.919.65-4.77.65s-3.53-.242-4.765-.65l-.229-.09-.025-1.083zm0-4.858c1.107.366 2.675.601 4.451.601s3.347-.235 4.456-.601q.3-.1.542-.206L13 3.97v1.07l-.235.088c-1.237.408-2.918.652-4.77.652s-3.532-.244-4.766-.652L3 5.045v-1.08z"/></svg>