<svg xmlns="http://www.w3.org/2000/svg" viewBox="0 0 16 16" height="16px" width="16px" fill="currentColor" aria-hidden="true" role="img"><path d="M4 0a1 1 0 0 1 1 1v3a1 1 0 0 1-.67.944L5.79 7.5H8V5a1 1 0 0 1 1-1h6a1 1 0 0 1 1 1v6a1 1 0 0 1-1 1H9a1 1 0 0 1-1-1V8.5H5.79l-1.46 2.556A1 1 0 0 1 5 12v3a1 1 0 0 1-1 1H1a1 1 0 0 1-1-1v-3a1 1 0 0 1 1-1h2.21l1.714-3L3.21 5H1a1 1 0 0 1-1-1V1a1 1 0 0 1 1-1zM1 15h3v-3H1zm8-4h6V5H9zm4.5-3a.5.5 0 0 1 .5.5v1a.5.5 0 0 1-.5.5h-1a.5.5 0 0 1-.5-.5v-1a.5.5 0 0 1 .5-.5zm-2-2a.5.5 0 0 1 .5.5v1a.5.5 0 0 1-.5.5h-1a.5.5 0 0 1-.5-.5v-1a.5.5 0 0 1 .5-.5zM1 4h3V1H1z"/></svg>