<svg xmlns="http://www.w3.org/2000/svg" viewBox="0 0 16 16" height="16px" width="16px" fill="currentColor" aria-hidden="true" role="img"><path d="M7.995 0c1.57 0 2.999.192 4.05.515.524.16.982.361 1.321.608.299.218.575.529.623.936q.01.048.011.101v7.77l-.014.172c-.064.386-.34.676-.63.876-.341.236-.801.422-1.323.567-.935.26-2.17.418-3.533.45V13H9l.103.005A1 1 0 0 1 10 14h6v1h-6a1 1 0 0 1-1 1H7a1 1 0 0 1-.995-.898L6 15H0v-1h6a1 1 0 0 1 1-1h.5v-1.007c-1.367-.03-2.602-.187-3.538-.45-.52-.144-.98-.33-1.32-.566-.29-.202-.564-.491-.628-.877L2 9.929V2.07q.002-.12.054-.222c.101-.306.333-.547.578-.726C2.97.876 3.428.675 3.95.515 5 .192 6.426 0 7.995 0M7 15h2v-1H7zm6-7.717a5.5 5.5 0 0 1-.955.383c-1.052.322-2.48.513-4.05.513S5 7.988 3.95 7.666A5.5 5.5 0 0 1 3 7.284V9.93l.023.052a.7.7 0 0 0 .189.174c.21.146.55.295 1.02.426.932.26 2.257.419 3.763.419s2.835-.158 3.77-.419c.47-.131.81-.28 1.022-.427a.7.7 0 0 0 .19-.173L13 9.93zm0-3.818a5.5 5.5 0 0 1-.954.384c-1.052.322-2.481.514-4.05.514-1.57 0-2.996-.192-4.046-.514A5.5 5.5 0 0 1 3 3.467V6c0 .002 0 .021.027.063.03.046.09.11.195.187.212.155.553.316 1.021.46.93.285 2.252.469 3.752.469s2.825-.184 3.758-.469c.47-.144.81-.305 1.024-.46a.8.8 0 0 0 .196-.187C13 6.02 13 6 13 6zM7.995 1c-1.5 0-2.822.185-3.752.47-.468.145-.809.305-1.021.46a.8.8 0 0 0-.195.188C3 2.161 3 2.18 3 2.182s0 .021.027.063c.03.046.09.111.195.188.212.155.553.316 1.021.46.93.285 2.252.47 3.752.47s2.824-.185 3.757-.47c.47-.144.812-.306 1.025-.461a.8.8 0 0 0 .196-.188c.027-.042.027-.06.027-.062s0-.02-.027-.063a.8.8 0 0 0-.196-.187c-.213-.156-.556-.317-1.025-.461C10.819 1.185 9.495 1 7.995 1"/></svg>