<svg xmlns="http://www.w3.org/2000/svg" viewBox="0 0 16 16" height="16px" width="16px" fill="currentColor" aria-hidden="true" role="img"><path d="M5 0c0 .89.298 1.72.68 2.371.288.488.6.835.828 1.028a2.98 2.98 0 0 1 2.983 0c.229-.193.541-.54.828-1.028C10.702 1.721 11 .891 11 0h1c0 1.11-.369 2.113-.82 2.879-.273.465-.595.87-.909 1.165C10.724 4.569 11 5.252 11 6v.27c.597.345 1 .99 1 1.73v.999l1-.75V6h1v2.75l-.2.15-1.8 1.35v.25h3v1h-3v.249l1.8 1.35.2.151V16h-1v-2.25l-1.107-.831a4 4 0 0 1-7.787 0L3 13.75V16H2v-2.75l.2-.15L4 11.749V11.5H1v-1h3v-.25L2.2 8.9 2 8.75V6h1v2.249l1 .75V8c0-.74.403-1.385 1-1.73V6c0-.748.275-1.43.728-1.956a5.4 5.4 0 0 1-.909-1.165C4.37 2.113 4 1.109 4 0zm1 7a1 1 0 0 0-1 1v4a3 3 0 0 0 2.5 2.958V7zm2.5 7.958A3 3 0 0 0 11 12V8a1 1 0 0 0-1-1H8.5zM8 4a2 2 0 0 0-2 2h4a2 2 0 0 0-2-2"/></svg>