<svg xmlns="http://www.w3.org/2000/svg" viewBox="0 0 16 16" height="16px" width="16px" fill="currentColor" aria-hidden="true" role="img"><path d="M5 0c0 .89.298 1.72.68 2.371.288.488.6.835.828 1.028a2.98 2.98 0 0 1 2.983 0c.229-.193.541-.54.828-1.028C10.702 1.721 11 .891 11 0h1c0 1.11-.369 2.113-.82 2.879-.273.465-.595.87-.909 1.165.24.279.43.602.555.956H9.73A1.998 1.998 0 0 0 6 6h2v1H6a1 1 0 0 0-1 1v4a3 3 0 0 0 3 3v1a4 4 0 0 1-3.894-3.08L3 13.75V16H2v-2.75l.2-.15L4 11.749V11.5H1v-1h3v-.25L2.2 8.9 2 8.75V6h1v2.249l1 .75V8c0-.74.403-1.385 1-1.73V6c0-.748.275-1.43.728-1.956a5.4 5.4 0 0 1-.909-1.165C4.37 2.113 4 1.109 4 0zm6.501 8.042a3 3 0 0 1 2.458 2.454l2.042.004-.002 1-2.039-.004a3 3 0 0 1-2.459 2.46L11.5 16h-1l.001-2.043a3 3 0 0 1-2.458-2.46l-2.042.003-.002-1 2.045-.004A3 3 0 0 1 10.5 8.043V6h1zM11.002 9c-1.074 0-1.95.847-1.996 1.91v.186A1.998 1.998 0 0 0 13.003 11a2 2 0 0 0-2-2m0 1a1 1 0 1 1 0 2 1 1 0 0 1 0-2"/></svg>