<svg xmlns="http://www.w3.org/2000/svg" viewBox="0 0 16 16" height="16px" width="16px" fill="currentColor" aria-hidden="true" role="img"><path d="M1 13.5a.5.5 0 0 0 .5.5H4v1H1.5l-.153-.008a1.5 1.5 0 0 1-1.34-1.339L0 13.5V12h1zm10 .5a1 1 0 0 1-.898.995L10 15H7v-1h3v-1h1zm3.653-12.992A1.5 1.5 0 0 1 16 2.5v8a1.5 1.5 0 0 1-1.347 1.492L14.5 12h-10a1.5 1.5 0 0 1-1.492-1.347L3 10.5v-8A1.5 1.5 0 0 1 4.5 1h10zM4.5 2a.5.5 0 0 0-.5.5v8a.5.5 0 0 0 .5.5h10a.5.5 0 0 0 .5-.5v-8a.5.5 0 0 0-.5-.5zM2 7H1v2H0V7a1 1 0 0 1 1-1h1zm10 0H7V6h5z"/></svg>