<svg xmlns="http://www.w3.org/2000/svg" viewBox="0 0 16 16" height="16px" width="16px" fill="currentColor" aria-hidden="true" role="img"><path d="M8 0c4.4 0 8 3.6 8 8s-3.6 8-8 8-8-3.6-8-8 3.6-8 8-8m0 1c-.97 0-1.83.107-2.692.538-.862.323-1.616.862-2.262 1.508S1.86 4.446 1.538 5.2C1.108 6.17 1 7.03 1 8s.107 1.83.538 2.692c.323.862.862 1.616 1.508 2.262s1.4 1.185 2.262 1.508C6.169 14.785 7.03 15 8 15s1.83-.215 2.692-.538 1.616-.862 2.262-1.508 1.185-1.4 1.508-2.262C14.785 9.831 15 8.97 15 8s-.107-1.83-.538-2.8c-.323-.861-.862-1.615-1.508-2.262-.646-.538-1.4-1.077-2.154-1.4C9.83 1.108 8.97 1 8 1m4.065 3.576-.07.494-.01.067A4.5 4.5 0 0 1 7.531 9H5.207l2 2-.707.707L3.293 8.5 6.5 5.293 7.207 6l-2 2h2.324a3.5 3.5 0 0 0 3.465-3.005l.009-.065.071-.495z"/></svg>