<svg xmlns="http://www.w3.org/2000/svg" viewBox="0 0 16 16" height="16px" width="16px" fill="currentColor" aria-hidden="true" role="img"><path d="M14.26.008c.509.035.932.196 1.233.509 1.203 1.202.209 4.248-2.236 7.49C14.992 10.309 16 12.516 16 14.033l-.008.223c-.035.509-.196.932-.509 1.233-1.202 1.202-4.244.21-7.482-2.23-2.302 1.734-4.508 2.74-6.024 2.741l-.224-.008c-.509-.037-.932-.208-1.233-.509-1.212-1.201-.216-4.241 2.226-7.478C1.01 5.7 0 3.49 0 1.973l.008-.224C.045 1.24.216.817.517.516 1.719-.697 4.764.302 8.004 2.748 10.309 1.01 12.518 0 14.037 0zM3.388 8.818c-.755 1.024-1.347 2.013-1.754 2.906-.395.867-.593 1.592-.625 2.14-.033.547.1.797.215.91l.003.002c.104.105.321.224.75.224.803 0 2.024-.393 3.51-1.257.549-.32 1.12-.697 1.7-1.124a28 28 0 0 1-2-1.816l-.585-.604a27 27 0 0 1-1.214-1.382m9.23 0a28 28 0 0 1-1.811 1.995l-.604.585c-.46.434-.926.84-1.389 1.22 1.026.753 2.015 1.346 2.909 1.752.867.395 1.593.592 2.141.625.55.033.8-.1.912-.213l.007-.007.007-.005c.094-.091.21-.29.21-.737 0-.803-.393-2.025-1.257-3.51a19 19 0 0 0-1.125-1.706M8.003 4.015a26.6 26.6 0 0 0-3.988 3.987A26.4 26.4 0 0 0 8 11.99a26.4 26.4 0 0 0 3.988-3.984 26.6 26.6 0 0 0-3.985-3.99m-.01 2.654a1.323 1.323 0 1 1 0 2.646 1.323 1.323 0 0 1 0-2.646M14.037 1c-.803 0-2.026.393-3.51 1.257q-.833.484-1.714 1.13c.537.442 1.077.92 1.61 1.433l.39.383a28 28 0 0 1 1.802 1.99c.757-1.029 1.352-2.02 1.759-2.916.395-.867.592-1.593.625-2.141.033-.55-.1-.8-.213-.912l-.007-.007-.006-.007c-.09-.094-.289-.21-.736-.21M1 1.973c0 .803.393 2.025 1.257 3.51.32.551.7 1.125 1.129 1.708.443-.538.923-1.08 1.438-1.614l.383-.39A28 28 0 0 1 7.189 3.39c-1.027-.757-2.018-1.352-2.913-1.76-.867-.394-1.592-.592-2.14-.624-.547-.033-.797.101-.91.215l-.002.003c-.105.104-.224.322-.224.75"/></svg>