<svg xmlns="http://www.w3.org/2000/svg" viewBox="0 0 16 16" height="16px" width="16px" fill="currentColor" aria-hidden="true" role="img"><path d="M14 0a1 1 0 0 1 1 1l-.001 3.362.553.367a1 1 0 0 1 .448.833v9.435a1 1 0 0 1-1 1H1a1 1 0 0 1-1-1v-9.47c0-.341.174-.658.46-.842l.537-.346V1.017a1 1 0 0 1 .997-1L3.648.01 6.3 0zM7.983 10.72a.96.96 0 0 0-.538.233l-5.293 4.072h11.664l-5.285-4.088a1.1 1.1 0 0 0-.548-.216m1.822-.295L15 14.502V6.388zM1 14.5l5.2-4.071L1 6.387zM2.2 1a.2.2 0 0 0-.2.2V6l3 2.026 2.027 1.558.138.112.153-.075a1.7 1.7 0 0 1 .664-.133c.298 0 .591.073.854.212l.25-.21 1.911-1.466h-.013L14 6V1.2a.2.2 0 0 0-.2-.2zM10 7H6V6h4zm1-3H5V3h6z"/></svg>