<svg xmlns="http://www.w3.org/2000/svg" viewBox="0 0 16 16" height="16px" width="16px" fill="currentColor" aria-hidden="true" role="img"><g clip-path="url(#clip0_482_3308)"><path d="M.5 4.774v6.452a2 2 0 0 0 1.154 1.813l5.5 2.566a2 2 0 0 0 1.692 0l5.5-2.566a2 2 0 0 0 1.154-1.813V4.774a2 2 0 0 0-1.154-1.813L8.846.395a2 2 0 0 0-1.692 0l-5.5 2.566A2 2 0 0 0 .5 4.774m1 0v-.032l6 2.428v7.493l-5.423-2.53a1 1 0 0 1-.577-.907zm.545-.89.032-.016 5.5-2.567a1 1 0 0 1 .846 0l5.5 2.567.032.015L8 6.293zm12.455.858v6.484a1 1 0 0 1-.577.906L8.5 14.663V7.17z"/></g><defs><clipPath id="clip0_482_3308"><path d="M0 0h16v16H0z"/></clipPath></defs></svg>