<svg xmlns="http://www.w3.org/2000/svg" viewBox="0 0 16 16" height="16px" width="16px" fill="currentColor" aria-hidden="true" role="img"><g clip-path="url(#clip0_538_377)"><path d="M6.586 7.293 5.172 8.707l2.121 2.121 1.414-1.413.707.707L8 11.535l.552.552a1 1 0 0 1-.06 1.47l-.093.07-2.545 1.697a1 1 0 0 1-1.262-.125L3.05 13.657.929 15.778l-.707-.707 2.12-2.12-1.541-1.543-.059-.065a1 1 0 0 1-.066-1.197l1.697-2.545a1 1 0 0 1 1.453-.23l.087.077.552.552 1.414-1.414zm9.035 4.793L14.207 13.5l1.414 1.414-.707.707-1.414-1.414-1.414 1.414-.707-.707 1.414-1.414-1.414-1.414.707-.707 1.414 1.414 1.414-1.414zM1.508 10.7l3.79 3.791 2.547-1.697-1.26-1.259-3.379-3.38zM15.778.93l-2.122 2.12L15.2 4.592l.059.065a1 1 0 0 1 .066 1.197l-1.698 2.545a1 1 0 0 1-1.452.23l-.087-.077-4.639-4.639a1 1 0 0 1 .06-1.47l.093-.07L10.146.676A1 1 0 0 1 11.409.8l1.541 1.54L15.07.222zM8.154 3.205l4.639 4.64 1.697-2.546-3.79-3.791z"/></g><defs><clipPath id="clip0_538_377"><path d="M0 0h16v16H0z"/></clipPath></defs></svg>