<svg xmlns="http://www.w3.org/2000/svg" viewBox="0 0 16 16" height="16px" width="16px" fill="currentColor" aria-hidden="true" role="img"><g clip-path="url(#clip0_349_58)"><path d="M8.291 15.26a.988.988 0 0 0 1.454.306 2.94 2.94 0 0 0 .923-3.545l-.899-2.02h3.6a2.5 2.5 0 0 0 2.409-3.17l-1.39-5A2.5 2.5 0 0 0 11.98.001H5.5A1.5 1.5 0 0 0 4 1.5v6.13zM1 8a1 1 0 0 1-1-1V1a1 1 0 0 1 1-1h1a1 1 0 0 1 1 1v6a1 1 0 0 1-1 1z"/></g><defs><clipPath id="clip0_349_58"><path d="M0 0h16v16H0z"/></clipPath></defs></svg>