<svg xmlns="http://www.w3.org/2000/svg" viewBox="0 0 16 16" height="16px" width="16px" fill="currentColor" aria-hidden="true" role="img"><g clip-path="url(#clip0_349_59)"><path fill-rule="evenodd" d="M9.698 15.664a1 1 0 0 1-1.386-.367L4.64 8.768A1 1 0 0 1 4 9H1a1 1 0 0 1-1-1V1a1 1 0 0 1 1-1h3a1 1 0 0 1 .905.575A2.5 2.5 0 0 1 6.5 0h5.48a2.5 2.5 0 0 1 2.409 1.83l1.389 5a2.5 2.5 0 0 1-2.41 3.17H10.27l.79 1.776a3 3 0 0 1-1.198 3.79zM5 2.5v4.869l4.184 7.438.162-.098a2 2 0 0 0 .799-2.527L8.73 9h4.638a1.5 1.5 0 0 0 1.445-1.902l-1.389-5A1.5 1.5 0 0 0 11.98 1H6.5A1.5 1.5 0 0 0 5 2.5M4 8V1H1v7z" clip-rule="evenodd"/></g><defs><clipPath id="clip0_349_59"><path d="M0 0h16v16H0z"/></clipPath></defs></svg>