<svg xmlns="http://www.w3.org/2000/svg" viewBox="0 0 16 16" height="16px" width="16px" fill="currentColor" aria-hidden="true" role="img"><path d="M15 12a1 1 0 0 1 1 1v2a1 1 0 0 1-1 1h-2a1 1 0 0 1-1-1v-2a1 1 0 0 1 1-1zm-2 3h2v-2h-2zM11 3H9v4.5h2v1H9V13h2v1H9a1 1 0 0 1-1-1V8.5H6V10a1 1 0 0 1-1 1H1a1 1 0 0 1-1-1V6a1 1 0 0 1 1-1h4a1 1 0 0 1 1 1v1.5h2V3a1 1 0 0 1 1-1h2zM1 6v4h4V6zm14 0a1 1 0 0 1 1 1v2a1 1 0 0 1-1 1h-2a1 1 0 0 1-1-1V7a1 1 0 0 1 1-1zm-2 3h2V7h-2zm2-9a1 1 0 0 1 1 1v2a1 1 0 0 1-1 1h-2a1 1 0 0 1-1-1V1a1 1 0 0 1 1-1zm-2 3h2V1h-2z"/></svg>