<svg xmlns="http://www.w3.org/2000/svg" viewBox="0 0 16 16" height="16px" width="16px" fill="currentColor" aria-hidden="true" role="img"><path d="M13.154.004a2.997 2.997 0 0 1 .068 5.984 2.987 2.987 0 0 1 0 4.023 2.998 2.998 0 0 1-.068 5.985L13 16H5a3 3 0 0 1-3-3c0-.774.295-1.478.776-2.01a2.999 2.999 0 0 1 0-5.981A3 3 0 0 1 2 3a3 3 0 0 1 3-3h8zM5 11a2 2 0 1 0 0 4h8a2 2 0 1 0 0-4zm4 1c.6 0 1 .4 1 1s-.4 1-1 1-1-.4-1-1 .4-1 1-1M3 6a2 2 0 1 0 0 4h8a2 2 0 1 0 0-4zm1 1c.6 0 1 .4 1 1s-.4 1-1 1c-.5 0-1-.4-1-1s.4-1 1-1m6 0c.6 0 1 .4 1 1s-.4 1-1 1c-.5 0-1-.4-1-1s.4-1 1-1M5 1a2 2 0 1 0 0 4h8a2 2 0 1 0 0-4zm1 1c.6 0 1 .4 1 1s-.4 1-1 1-1-.4-1-1 .5-1 1-1m6 0c.6 0 1 .4 1 1s-.4 1-1 1-1-.4-1-1 .5-1 1-1"/></svg>