<svg xmlns="http://www.w3.org/2000/svg" viewBox="0 0 16 16" height="16px" width="16px" fill="currentColor" aria-hidden="true" role="img"><path d="M6.054 2.015a3 3 0 0 1 1.825.864L8 3l.121-.121A3 3 0 0 1 10.242 2H15a1 1 0 0 1 1 1v10a1 1 0 0 1-.898.995L15 14h-4.528c-.31 0-.616.072-.894.21l-1.13.566-.108.046a1 1 0 0 1-.787-.046l-1.131-.565a2 2 0 0 0-.662-.197L5.528 14H1a1 1 0 0 1-.995-.898L0 13V3a1 1 0 0 1 1-1h4.758zM1 13h4.528a3 3 0 0 1 1.341.316l.631.316V3.914l-.328-.328A2 2 0 0 0 5.758 3H1zm9.242-10a2 2 0 0 0-1.414.586l-.328.328v9.718l.63-.316A3 3 0 0 1 10.473 13H15V3z"/></svg>