<svg xmlns="http://www.w3.org/2000/svg" viewBox="0 0 16 16" height="16px" width="16px" fill="currentColor" aria-hidden="true" role="img"><path fill-rule="evenodd" d="M9 1H1v14h14V7h1v8a1 1 0 0 1-1 1H1a1 1 0 0 1-1-1V1a1 1 0 0 1 1-1h8zm-.992 3.268a2.62 2.62 0 0 1 3.707 0l-.707.707a1.62 1.62 0 0 0-2.293 0l-2 2a1.622 1.622 0 0 0 2.293 2.293l1.5-1.5.707.707-1.5 1.5a2.621 2.621 0 1 1-3.707-3.707zm3.5-3.5a2.622 2.622 0 0 1 3.707 3.707l-2 2a2.62 2.62 0 0 1-3.707 0l.707-.707c.633.633 1.66.633 2.293 0l2-2a1.622 1.622 0 0 0-2.293-2.293l-1.5 1.5-.707-.707z" clip-rule="evenodd"/></svg>