<svg xmlns="http://www.w3.org/2000/svg" viewBox="0 0 16 16" height="16px" width="16px" fill="currentColor" aria-hidden="true" role="img"><path fill-rule="evenodd" d="M7.5.289a1 1 0 0 1 1 0l5.928 3.423a1 1 0 0 1 .5.866v6.844a1 1 0 0 1-.5.867L8.5 15.712a1 1 0 0 1-1 0l-5.929-3.423a1 1 0 0 1-.499-.867V4.578a1 1 0 0 1 .5-.866zM2.071 4.578v6.844L8 14.846l5.928-3.423V4.578L8 1.155zM12 5.75v4.5L8 12.5l-4-2.25v-4.5L8 3.5zM5 9.665l2.5 1.406V8.293L5 6.886zm3.5-1.372v2.778L11 9.665V6.886zM5.53 6.037 8 7.427l2.47-1.39L8 4.647z" clip-rule="evenodd"/></svg>