<svg xmlns="http://www.w3.org/2000/svg" viewBox="0 0 16 16" height="16px" width="16px" fill="currentColor" aria-hidden="true" role="img"><path fill-rule="evenodd" d="M16 16H8v-1h8zM11.427.492a1 1 0 0 1 1.414 0l2.83 2.83a1 1 0 0 1 0 1.413l-9.18 9.18a.5.5 0 0 1-.13.1l-.08.034L.98 15.817a.5.5 0 0 1-.654-.543l.021-.09L2.114 9.88a.5.5 0 0 1 .072-.14l.049-.056zM1.932 13.586l.615.651 2.653-.881-2.393-2.393zm1.364-3.549 2.829 2.83 6.717-6.718-2.828-2.829zm9.192-8.483a.5.5 0 0 0-.638-.059l-.07.059-1.059 1.06 2.828 2.828 1.06-1.06a.5.5 0 0 0 .059-.638l-.06-.07z" clip-rule="evenodd"/></svg>