<svg xmlns="http://www.w3.org/2000/svg" viewBox="0 0 16 16" height="16px" width="16px" fill="currentColor" aria-hidden="true" role="img"><path d="M13.046 7.5c.39-.39 1.024-.39 1.415 0l1.242 1.242.069.075a1 1 0 0 1-.069 1.34l-5.29 5.29-.068.06a1 1 0 0 1-.58.23l-2.446.146.146-2.445a1 1 0 0 1 .23-.58l.06-.068zm-4.583 5.997-.078 1.32 1.32-.078 3.663-3.664-1.242-1.242zM3 11a1 1 0 0 1 1 1v1a1 1 0 0 1-.897.995L3 14H2l-.103-.005a1 1 0 0 1-.892-.893L1 13v-1a1 1 0 0 1 1-1zm-1 2h1v-1H2zm10.833-3.874 1.242 1.242.921-.919-1.242-1.242zM3 6.5a1 1 0 0 1 1 1v1a1 1 0 0 1-.897.995L3 9.5H2l-.103-.005a1 1 0 0 1-.892-.892L1 8.5v-1a1 1 0 0 1 1-1zm-1 2h1v-1H2zm8.5 0H6v-1h4.5zM3 2a1 1 0 0 1 1 1v1a1 1 0 0 1-.897.995L3 5H2l-.103-.005a1 1 0 0 1-.892-.892L1 4V3a1 1 0 0 1 1-1zM2 4h1V3H2zm13 0H6V3h9z"/></svg>