<svg xmlns="http://www.w3.org/2000/svg" viewBox="0 0 16 16" height="16px" width="16px" fill="currentColor" aria-hidden="true" role="img"><path fill-rule="evenodd" d="M12.793.332a1 1 0 0 1 1.415 0l1.476 1.476c.39.39.39 1.025 0 1.415L3.21 15.696l-.076.07a1 1 0 0 1-1.261 0l-.077-.07L.32 14.219l-.07-.076a1 1 0 0 1 0-1.262l.07-.076zm.475 12.108-1.06 1.06 1.06 1.061-.707.707-1.06-1.06-1.061 1.06-.707-.707 1.06-1.06-1.06-1.061.707-.707 1.06 1.06 1.061-1.06zM1.027 13.512l1.475 1.476 1.89-1.89-1.476-1.476zm2.596-2.597 1.475 1.476 7.294-7.292-1.476-1.477zm12.292-3.122-.707.707.707.707-.707.707-.707-.707-.708.707-.708-.707.707-.708-.706-.706.707-.707.707.706.707-.706zM7.622 1.086 6.207 2.5l1.415 1.414-.707.708L5.5 3.207 4.086 4.622l-.707-.708L4.792 2.5 3.378 1.086 4.085.38 5.5 1.793 6.915.38zm4 1.83L13.1 4.391l1.877-1.877L13.5 1.04z" clip-rule="evenodd"/></svg>