<svg xmlns="http://www.w3.org/2000/svg" viewBox="0 0 16 16" height="16px" width="16px" fill="currentColor" aria-hidden="true" role="img"><path d="M10 11a1 1 0 0 1 1 1v2l-.005.102a1 1 0 0 1-.893.893L10 15H1l-.103-.005A1 1 0 0 1 0 14v-2a1 1 0 0 1 1-1zm-9 3h9v-2H1zm10.354-7.646L10.207 7.5H16v1h-5.793l1.146 1.146-.707.707L8.294 8l2.354-2.354zM6 6a1 1 0 0 1 1 1v2l-.005.103a1 1 0 0 1-.892.892L6 10H3l-.103-.005A1 1 0 0 1 2 9V7a1 1 0 0 1 1-1zM3 9h3V7H3zm7-8a1 1 0 0 1 1 1v2l-.005.103a1 1 0 0 1-.893.892L10 5H1l-.103-.005A1 1 0 0 1 0 4V2a1 1 0 0 1 1-1zM1 4h9V2H1z"/></svg>