<svg xmlns="http://www.w3.org/2000/svg" viewBox="0 0 16 16" height="16px" width="16px" fill="currentColor" aria-hidden="true" role="img"><path fill-rule="evenodd" d="M4.437 5.75c.356-1 1.77-1 2.125 0 .21.59.855.888 1.432.686l.114-.047c.958-.454 1.957.545 1.502 1.502l-.047.115a1.127 1.127 0 0 0 .687 1.431c.999.356.999 1.77 0 2.125l-.114.047a1.13 1.13 0 0 0-.526 1.5c.44.927-.483 1.893-1.412 1.54l-.09-.039a1.13 1.13 0 0 0-1.546.64l-.037.09c-.406.908-1.744.878-2.088-.09a1.13 1.13 0 0 0-1.546-.64l-.09.038c-.899.343-1.793-.551-1.45-1.45l.038-.09a1.13 1.13 0 0 0-.526-1.499l-.113-.047c-.968-.344-.999-1.681-.091-2.088l.09-.037c.63-.224.927-.943.64-1.546-.454-.957.545-1.956 1.502-1.502a1.13 1.13 0 0 0 1.5-.526zM5.5 6a.14.14 0 0 0-.077.02c-.01.007-.028.02-.043.065a2.127 2.127 0 0 1-2.917 1.208c-.043-.02-.066-.017-.077-.015a.14.14 0 0 0-.068.04.14.14 0 0 0-.04.068c-.002.012-.006.034.015.077a2.127 2.127 0 0 1-1.208 2.917c-.044.015-.058.033-.065.043A.14.14 0 0 0 1 10.5c0 .035.01.062.02.077.007.01.02.027.065.043a2.127 2.127 0 0 1 1.208 2.917c-.02.042-.017.065-.015.076a.14.14 0 0 0 .04.068q.04.037.068.04c.011.003.034.006.077-.014a2.127 2.127 0 0 1 2.917 1.208c.015.044.033.058.043.064.015.01.042.02.077.02s.062-.01.077-.02c.01-.006.027-.02.043-.064a2.127 2.127 0 0 1 2.917-1.208c.042.02.065.017.076.014a.14.14 0 0 0 .068-.04.14.14 0 0 0 .04-.068c.003-.011.006-.034-.014-.076a2.127 2.127 0 0 1 1.208-2.917c.044-.016.058-.034.064-.043A.14.14 0 0 0 10 10.5a.14.14 0 0 0-.02-.077c-.006-.01-.02-.028-.064-.043a2.127 2.127 0 0 1-1.208-2.917c.02-.043.017-.065.014-.077a.14.14 0 0 0-.04-.068.14.14 0 0 0-.068-.04c-.011-.002-.034-.005-.076.015A2.127 2.127 0 0 1 5.62 6.085c-.016-.044-.034-.058-.043-.065A.14.14 0 0 0 5.5 6m0 3a1.5 1.5 0 1 1 0 3 1.5 1.5 0 0 1 0-3m0 1a.5.5 0 1 0 0 1 .5.5 0 0 0 0-1M11.449.684c.402-.913 1.699-.912 2.101 0 .177.4.563.661.99.684l.184-.005c.992-.108 1.64 1.014 1.051 1.82l-.097.157a1.15 1.15 0 0 0 .097 1.199c.552.755.018 1.788-.87 1.825l-.18-.006a1.15 1.15 0 0 0-1.175.678l-.086.16c-.443.7-1.485.7-1.93 0l-.085-.16a1.15 1.15 0 0 0-1.174-.678l-.182.006c-.827-.035-1.348-.937-.965-1.67l.096-.155a1.15 1.15 0 0 0 .097-1.2l-.097-.157c-.589-.805.06-1.927 1.051-1.819.497.054.972-.22 1.174-.679m1.05.316a.16.16 0 0 0-.082.021.14.14 0 0 0-.053.067 2.15 2.15 0 0 1-2.197 1.27.14.14 0 0 0-.084.01.16.16 0 0 0-.06.062.16.16 0 0 0-.023.082c0 .018.005.044.03.08a2.15 2.15 0 0 1 0 2.537.14.14 0 0 0-.03.079c-.001.022.005.053.022.083s.04.05.06.06c.016.009.04.018.085.013.93-.101 1.82.412 2.197 1.269.018.04.038.057.053.066q.03.02.083.021c.034 0 .063-.01.083-.021a.14.14 0 0 0 .052-.066 2.15 2.15 0 0 1 2.198-1.269.14.14 0 0 0 .084-.013c.02-.01.043-.03.06-.06A.16.16 0 0 0 15 5.208a.14.14 0 0 0-.032-.08 2.15 2.15 0 0 1 0-2.536.14.14 0 0 0 .032-.08.16.16 0 0 0-.023-.082.16.16 0 0 0-.06-.061.14.14 0 0 0-.084-.012 2.15 2.15 0 0 1-2.198-1.27.14.14 0 0 0-.052-.066A.16.16 0 0 0 12.5 1m0 2.5a.5.5 0 1 1 0 1 .5.5 0 0 1 0-1" clip-rule="evenodd"/></svg>