<svg xmlns="http://www.w3.org/2000/svg" viewBox="0 0 16 16" height="16px" width="16px" fill="currentColor" aria-hidden="true" role="img"><path fill-rule="evenodd" d="m7.172 13.707.707.707-.707.707.707.707.707-.707.707.707.707-.707-.707-.707.707-.707L9.293 13l-.707.707L7.879 13zM13.895.691a4.501 4.501 0 0 0-6.624 5.35l-6.11 6.11A1.9 1.9 0 1 0 3.85 14.84l6.11-6.11a4.501 4.501 0 0 0 5.35-6.624l-2.75 2.748L11.5 4.5l-.354-1.06zm-4.87 1.335a3.5 3.5 0 0 1 3.09-.97L10.003 3.17l.707 2.121 2.12.708 2.113-2.113a3.5 3.5 0 0 1-.968 3.09 3.5 3.5 0 0 1-3.674.814l-.6-.218-6.559 6.561a.901.901 0 0 1-1.273-1.274l6.56-6.56-.218-.599a3.5 3.5 0 0 1 .814-3.673m2.707 9.414 1.06 1.06-1.06 1.06.707.708 1.06-1.06 1.061 1.06.707-.707-1.06-1.06 1.06-1.061-.707-.707-1.06 1.06-1.06-1.06zM.758 3.707l1.414 1.414L.758 6.535l.707.707 1.414-1.414 1.414 1.414L5 6.535 3.586 5.121 5 3.707 4.293 3 2.879 4.414 1.465 3z" clip-rule="evenodd"/></svg>