<svg xmlns="http://www.w3.org/2000/svg" viewBox="0 0 16 16" height="16px" width="16px" fill="currentColor" aria-hidden="true" role="img"><g clip-path="url(#clip0_380_2720)"><path d="M7.293.707a1 1 0 0 1 1.414 0l6.586 6.586a1 1 0 0 1 0 1.414l-6.586 6.586-.077.069a1 1 0 0 1-1.261 0l-.076-.069L.707 8.707A1 1 0 0 1 .638 7.37l.069-.076zM1.413 8 8 14.586 14.586 8 8 1.414zM8 10.25a.75.75 0 1 1 0 1.5.75.75 0 0 1 0-1.5M8.5 9h-1V4h1z"/></g><defs><clipPath id="clip0_380_2720"><path d="M0 0h16v16H0z"/></clipPath></defs></svg>