<svg xmlns="http://www.w3.org/2000/svg" viewBox="0 0 16 16" height="16px" width="16px" fill="currentColor" aria-hidden="true" role="img"><path fill-rule="evenodd" d="M12 1h-1.5v4.411l5.155 9.096a1 1 0 0 1-.731 1.483l-.14.01H1.216l-.14-.01a1 1 0 0 1-.79-1.356l.06-.127L5.5 5.41V1H4V0h8zM7.64 9.735a2.64 2.64 0 0 0-3.149.114l-.649.518L1.217 15h13.567l-2.99-5.278-.141.09a3.64 3.64 0 0 1-4.014-.077M6.5 5.675l-.13.23-1.462 2.578a3.64 3.64 0 0 1 3.298.428c.872.6 2.017.622 2.911.056l.182-.116L9.63 5.904l-.13-.23V1h-3z" clip-rule="evenodd"/></svg>