<svg xmlns="http://www.w3.org/2000/svg" viewBox="0 0 16 16" height="16px" width="16px" fill="currentColor" aria-hidden="true" role="img"><path d="M5 6a3 3 0 0 1 3 3c0 .81-.323 1.543-.845 2.083C8.801 11.335 10 12.193 10 14v2H0v-2c0-1.807 1.198-2.665 2.844-2.917A3 3 0 0 1 5 6m-1 6c-1.657 0-3 .343-3 2v1h8v-1c0-1.657-1.343-2-3-2zm1-5a2 2 0 1 0 0 4 2 2 0 0 0 0-4m10-7a1 1 0 0 1 1 1v5a1 1 0 0 1-.898.995L15 7h-2l-3 2V7H9a1 1 0 0 1-.995-.897L8 6V1a1 1 0 0 1 1-1zM9 6h2v1.13l1.445-.962.252-.168H15V1H9zm3.5-2a.5.5 0 0 1 0 1h-2a.5.5 0 0 1 0-1zm1-2a.5.5 0 0 1 0 1h-3a.5.5 0 0 1 0-1z"/></svg>