<svg xmlns="http://www.w3.org/2000/svg" viewBox="0 0 16 16" height="16px" width="16px" fill="currentColor" aria-hidden="true" role="img"><path d="M8.194 1a2.5 2.5 0 0 1 2.475 2.854l-.02.146H9.637l.04-.288A1.5 1.5 0 0 0 8.195 2h-.08a2.5 2.5 0 0 0-2.449 1.998L5.049 7H7v1H4.844l-1.027 5.002A2.5 2.5 0 0 1 1.368 15H1v-1h.368a1.5 1.5 0 0 0 1.47-1.198L3.823 8H2V7h2.028l.658-3.203A3.5 3.5 0 0 1 8.113 1zm7.16 5.854L12.707 9.5l2.646 2.646-.707.707L12 10.208l-2.646 2.646-.708-.707L11.293 9.5 8.646 6.854l.708-.708L12 8.793l2.646-2.647z"/></svg>