<svg xmlns="http://www.w3.org/2000/svg" viewBox="0 0 16 16" height="16px" width="16px" fill="currentColor" aria-hidden="true" role="img"><path fill-rule="evenodd" d="m8.418 1.007.042.08 1.788 4.217 4.571.388a.5.5 0 0 1 .348.811l-.063.065-3.472 3.008 1.043 4.47a.5.5 0 0 1-.664.581l-.081-.04L8 12.217l-3.93 2.372a.5.5 0 0 1-.757-.453l.012-.089 1.043-4.47L.896 6.568a.5.5 0 0 1 .196-.86l.089-.016 4.571-.388L7.54 1.086a.5.5 0 0 1 .878-.08M8 2.562 6.437 6.249l-3.992.339 3.034 2.627-.911 3.903L8 11.048l3.431 2.07-.91-3.903 3.033-2.627-3.991-.339z" clip-rule="evenodd"/></svg>