<svg xmlns="http://www.w3.org/2000/svg" viewBox="0 0 16 16" height="16px" width="16px" fill="currentColor" aria-hidden="true" role="img"><path fill-rule="evenodd" d="M6.585.914a2 2 0 0 1 2.83 0l5.92 5.921a2 2 0 0 1 0 2.83l-4.75 4.75-.146.132A2 2 0 0 1 9.17 15H6.827l-.197-.01a2 2 0 0 1-1.07-.443l-.146-.133-4.75-4.75a2 2 0 0 1 0-2.829zm2.122.707a1 1 0 0 0-1.415 0l-5.92 5.921a1 1 0 0 0 0 1.415l4.75 4.75a1 1 0 0 0 .706.293h2.343c.265 0 .52-.105.707-.293l4.75-4.75c.39-.39.39-1.024 0-1.415zm.757 9.233-1.575 1.574-.707-.707 1.575-1.575zm-.536-3L6.12 10.66l-.707-.707L8.22 7.146zm-.25-3.286L4.354 8.893l-.707-.707L7.97 3.86z" clip-rule="evenodd"/></svg>