<svg xmlns="http://www.w3.org/2000/svg" viewBox="0 0 16 16" height="16px" width="16px" fill="currentColor" aria-hidden="true" role="img"><path d="M9.586 0a1 1 0 0 1 .707.293l4.414 4.414a1 1 0 0 1 .293.707V14a2 2 0 0 1-2 2H3a2 2 0 0 1-2-2V2a2 2 0 0 1 2-2zM3 1a1 1 0 0 0-1 1v12a1 1 0 0 0 1 1h10a1 1 0 0 0 1-1V6h-3a2 2 0 0 1-2-2V1zm7 10a1 1 0 0 1 1 1h1v1h-1a1 1 0 0 1-.898.995L10 14H9l-.103-.005a1 1 0 0 1-.892-.893L8 13H4v-1h4a1 1 0 0 1 1-1zm-1 2h1v-1H9zM7 7a1 1 0 0 1 1 1h4v1H8a1 1 0 0 1-.897.995L7 10H6l-.103-.005a1 1 0 0 1-.892-.892L5 9H4V8h1a1 1 0 0 1 1-1zM6 9h1V8H6zm4-5a1 1 0 0 0 1 1h2.5L10 1.5z"/></svg>