<svg xmlns="http://www.w3.org/2000/svg" viewBox="0 0 16 16" height="16px" width="16px" fill="currentColor" aria-hidden="true" role="img"><path d="M5 1a2 2 0 0 1 2 2v1.355a2.84 2.84 0 0 1 2 0V3a2 2 0 0 1 2-2h.476l.168.007a2 2 0 0 1 1.761 1.46l2.166 7.854A3.5 3.5 0 0 1 12.5 15.5l-.021-.001-.021.001a3.46 3.46 0 0 1-3.453-3.28L9 12.042V8.855a2.84 2.84 0 0 0-2 0v3.187l-.005.178a3.46 3.46 0 0 1-3.453 3.28l-.022-.001-.02.001a3.5 3.5 0 0 1-3.072-5.179l2.167-7.853a2 2 0 0 1 1.76-1.461L4.523 1zm7.5 8.5a2.5 2.5 0 0 0-.017 4.999q.048 0 .094-.003.024 0 .047-.003a2.458 2.458 0 0 0 2.204-3.105l-.185-.67A2.5 2.5 0 0 0 12.5 9.5m-9 0a2.5 2.5 0 0 0-2.144 1.218l-.184.67a2.458 2.458 0 0 0 2.205 3.105l.043.002q.048.004.097.004A2.5 2.5 0 0 0 3.5 9.5M4.523 2c-.45 0-.845.3-.964.734L1.854 8.91A3.5 3.5 0 0 1 3.5 8.5c.98 0 1.865.403 2.5 1.052V3a1 1 0 0 0-1-1zM11 2a1 1 0 0 0-1 1v6.552A3.5 3.5 0 0 1 12.5 8.5c.595 0 1.154.149 1.645.41L12.44 2.734A1 1 0 0 0 11.476 2zM9 5.469a1.83 1.83 0 0 0-2 0v2.336a3.85 3.85 0 0 1 2 0z"/></svg>