<svg xmlns="http://www.w3.org/2000/svg" viewBox="0 0 16 16" height="16px" width="16px" fill="currentColor" aria-hidden="true" role="img"><path fill-rule="evenodd" d="M15.99 5.204A2 2 0 0 1 14 7h-2l-.204-.01a2 2 0 0 1-1.785-1.786L10 5v-.5H7.452a1 1 0 0 1-.09.13l-.069.077-2.586 2.586-.075.068a1 1 0 0 1-.132.09V10H5a2 2 0 0 1 1.99 1.796L7 12v.5h2v1H7v.5a2 2 0 0 1-2 2H3l-.204-.01a2 2 0 0 1-1.785-1.786L1 14v-2l.01-.204a2 2 0 0 1 1.786-1.785L3 10h.5V7.452a1 1 0 0 1-.207-.16L.707 4.708.639 4.63a1 1 0 0 1 0-1.262l.068-.076L3.293.707l.076-.068a1 1 0 0 1 1.263 0l.075.068 2.586 2.586q.094.095.16.207H10V3l.01-.204A2 2 0 0 1 12 1h2a2 2 0 0 1 1.99 1.796L16 3v2zM4 1.414 1.414 4 4 6.586 6.586 4zM6 12a1 1 0 0 0-1-1H3a1 1 0 0 0-1 1v2a1 1 0 0 0 1 1h2a1 1 0 0 0 1-1zm10 1a3 3 0 0 1-3 3l-.154-.004A3 3 0 0 1 10 13l.004-.154a3 3 0 0 1 2.842-2.842L13 10a3 3 0 0 1 3 3M15 3a1 1 0 0 0-1-1h-2a1 1 0 0 0-1 1v2a1 1 0 0 0 1 1h2a1 1 0 0 0 1-1zm0 10a2 2 0 1 0-4 0 2 2 0 0 0 4 0" clip-rule="evenodd"/></svg>