<svg xmlns="http://www.w3.org/2000/svg" viewBox="0 0 16 16" height="16px" width="16px" fill="currentColor" aria-hidden="true" role="img"><path d="M8 4.257c1.206.807 2 2.182 2 3.742s-.794 2.936-2 3.743A4.5 4.5 0 0 1 6 8c0-1.56.794-2.936 2-3.743"/><path fill-rule="evenodd" d="M10.5 2.5A5.5 5.5 0 1 1 8 12.9a5.5 5.5 0 1 1 0-9.8c.75-.384 1.6-.6 2.5-.6M8 3.1a5.5 5.5 0 0 0-.998.656A5.49 5.49 0 0 0 5 7.999 5.49 5.49 0 0 0 8 12.9c.357-.182.691-.404.998-.657l.001.001A5.49 5.49 0 0 0 11 8a5.49 5.49 0 0 0-3-4.9" clip-rule="evenodd"/></svg>