<svg xmlns="http://www.w3.org/2000/svg" viewBox="0 0 16 16" height="16px" width="16px" fill="currentColor" aria-hidden="true" role="img"><path d="M8 0a8 8 0 1 1 0 16A8 8 0 0 1 8 0m1.588 11.92a16 16 0 0 1-3.177 0c.116.511.25.976.404 1.386.247.658.516 1.121.765 1.402.25.282.394.292.42.292s.17-.01.42-.292c.249-.28.518-.744.765-1.402.153-.41.287-.875.403-1.385m-8.222-1.684a7.01 7.01 0 0 0 5.066 4.584c-.453-.741-.826-1.794-1.078-3.046-1.638-.286-3.033-.83-3.988-1.538m13.267 0c-.955.707-2.35 1.252-3.988 1.538-.252 1.253-.625 2.305-1.078 3.046a7.01 7.01 0 0 0 5.066-4.584M9.966 6.891a18 18 0 0 1-3.933 0Q6.001 7.43 6 8c0 1.035.078 2.011.214 2.892a14.7 14.7 0 0 0 3.571 0 19 19 0 0 0 .18-4.001M1.457 5.51A7 7 0 0 0 1 8c0 .522.449 1.263 1.79 1.934.661.33 1.472.603 2.388.79a21.3 21.3 0 0 1-.142-3.975c-1.451-.254-2.692-.688-3.579-1.24m13.086 0c-.888.552-2.129.986-3.58 1.239Q11 7.361 11 8c0 .956-.063 1.874-.179 2.724.917-.187 1.728-.46 2.389-.79C14.551 9.263 15 8.522 15 8c0-.877-.163-1.716-.457-2.49M8 1c-.026 0-.17.01-.42.292-.249.28-.518.744-.765 1.402-.32.855-.568 1.952-.703 3.202a17 17 0 0 0 3.775 0c-.135-1.25-.382-2.347-.702-3.202-.247-.658-.516-1.121-.765-1.402C8.17 1.01 8.026 1 8 1m-1.568.179a7 7 0 0 0-4.548 3.416c.238.157.524.316.862.464.66.288 1.465.526 2.375.691.211-1.922.684-3.545 1.31-4.571m3.135 0c.627 1.026 1.1 2.648 1.31 4.571.913-.165 1.72-.402 2.38-.691.338-.148.622-.307.86-.463a7 7 0 0 0-4.55-3.417"/></svg>