<svg xmlns="http://www.w3.org/2000/svg" viewBox="0 0 16 16" height="16px" width="16px" fill="currentColor" aria-hidden="true" role="img"><path d="M3.6 10c.22 0 .4.18.4.4v5.2a.4.4 0 0 1-.4.4H.4a.4.4 0 0 1-.4-.4v-5.2c0-.22.18-.4.4-.4zm6 0c.22 0 .4.18.4.4v5.2a.4.4 0 0 1-.4.4H6.4a.4.4 0 0 1-.4-.4v-5.2c0-.22.18-.4.4-.4zm6 0c.22 0 .4.18.4.4v5.2a.4.4 0 0 1-.4.4h-3.2a.4.4 0 0 1-.4-.4v-5.2c0-.22.18-.4.4-.4zm.4-1H0V8h16zM3.6 0c.22 0 .4.18.4.4v5.2a.4.4 0 0 1-.4.4H.4a.4.4 0 0 1-.4-.4V.4C0 .18.18 0 .4 0zm6 0c.22 0 .4.18.4.4v5.2a.4.4 0 0 1-.4.4H6.4a.4.4 0 0 1-.4-.4V.4c0-.22.18-.4.4-.4zM1 5h2V1H1zm6 0h2V1H7z"/></svg>