<svg xmlns="http://www.w3.org/2000/svg" viewBox="0 0 16 16" height="16px" width="16px" fill="currentColor" aria-hidden="true" role="img"><path d="M11.5 0a.5.5 0 0 1 0 1h-.214a2.2 2.2 0 0 0 0 2h.214a.5.5 0 0 1 .5.5v3h-1V4H2a2 2 0 0 1-1-.268V14a1 1 0 0 0 1 1h9v-1h1v1a1 1 0 0 1-1 1H2a2 2 0 0 1-2-2V2a2 2 0 0 1 2-2zM13 7a3 3 0 1 1-2.998 3.111A1.2 1.2 0 0 0 9.5 10q-.256 0-.502.111a3 3 0 1 1-.137-1.015 2.2 2.2 0 0 1 1.278 0A3 3 0 0 1 13 7M6 8a2 2 0 1 0 0 4 2 2 0 0 0 0-4m7 0a2 2 0 1 0 0 4 2 2 0 0 0 0-4M2 1a1 1 0 0 0 0 2h8.206a3.2 3.2 0 0 1 0-2z"/></svg>