<svg xmlns="http://www.w3.org/2000/svg" viewBox="0 0 16 16" height="16px" width="16px" fill="currentColor" aria-hidden="true" role="img"><path d="M2.5 11a2.5 2.5 0 1 1 0 5 2.5 2.5 0 0 1 0-5M14 12a2 2 0 1 1 0 4 2 2 0 0 1 0-4M2.5 12a1.5 1.5 0 1 0 0 3 1.5 1.5 0 0 0 0-3m6 0a1.5 1.5 0 1 1 0 3 1.5 1.5 0 0 1 0-3m5.5 1a1 1 0 1 0 0 2 1 1 0 0 0 0-2m-5.5 0a.5.5 0 1 0 0 1 .5.5 0 0 0 0-1m0-8a2.5 2.5 0 1 1 0 5 2.5 2.5 0 0 1 0-5m-6 1a1.5 1.5 0 1 1 0 3 1.5 1.5 0 0 1 0-3m6 0a1.5 1.5 0 1 0 0 3 1.5 1.5 0 0 0 0-3m5.5.5a1 1 0 1 1 0 2 1 1 0 0 1 0-2M2.5 7a.5.5 0 1 0 0 1 .5.5 0 0 0 0-1M14 0a2 2 0 1 1 0 4 2 2 0 0 1 0-4M2.5 1a1 1 0 1 1 0 2 1 1 0 0 1 0-2m6 0a1 1 0 1 1 0 2 1 1 0 0 1 0-2M14 1a1 1 0 1 0 0 2 1 1 0 0 0 0-2"/></svg>