<svg xmlns="http://www.w3.org/2000/svg" viewBox="0 0 16 16" height="16px" width="16px" fill="currentColor" aria-hidden="true" role="img"><path fill-rule="evenodd" d="M2.5 11a2.5 2.5 0 1 1 0 5 2.5 2.5 0 0 1 0-5m0 1a1.5 1.5 0 1 0 0 3 1.5 1.5 0 0 0 0-3M14 12a2 2 0 1 1 0 4 2 2 0 0 1 0-4m0 1a1 1 0 1 0 0 2 1 1 0 0 0 0-2m-5.5-1a1.5 1.5 0 1 1 0 3 1.5 1.5 0 0 1 0-3m0 1a.5.5 0 1 0 0 1 .5.5 0 0 0 0-1m0-8a2.5 2.5 0 1 1 0 5 2.5 2.5 0 0 1 0-5m0 1a1.5 1.5 0 1 0 0 3 1.5 1.5 0 0 0 0-3m-6 0a1.5 1.5 0 1 1 0 3 1.5 1.5 0 0 1 0-3m0 1a.5.5 0 1 0 0 1 .5.5 0 0 0 0-1" clip-rule="evenodd"/><path d="M14 6.5a1 1 0 1 1 0 2 1 1 0 0 1 0-2"/><path fill-rule="evenodd" d="M14 0a2 2 0 1 1 0 4 2 2 0 0 1 0-4m0 1a1 1 0 1 0 0 2 1 1 0 0 0 0-2" clip-rule="evenodd"/><path d="M2.5 1a1 1 0 1 1 0 2 1 1 0 0 1 0-2m6 0a1 1 0 1 1 0 2 1 1 0 0 1 0-2"/></svg>