<svg xmlns="http://www.w3.org/2000/svg" viewBox="0 0 16 16" height="16px" width="16px" fill="currentColor" aria-hidden="true" role="img"><path fill-rule="evenodd" d="M8 7a2.5 2.5 0 1 0 0-5 2.5 2.5 0 0 0 0 5m0-.985a1.515 1.515 0 1 1 0-3.03 1.515 1.515 0 0 1 0 3.03m-5.154 5.293A3.385 3.385 0 0 1 6.23 7.923h3.385A3.385 3.385 0 0 1 13 11.308V14H2.846zM6.23 8.923a2.385 2.385 0 0 0-2.384 2.385V13H12v-1.692a2.385 2.385 0 0 0-2.385-2.385zM4.546 5a1.546 1.546 0 1 1-3.093 0 1.546 1.546 0 0 1 3.093 0m-1 0a.546.546 0 1 0-1.093 0 .546.546 0 0 0 1.093 0M13 6.546a1.546 1.546 0 1 0 0-3.093 1.546 1.546 0 0 0 0 3.093m0-1a.546.546 0 1 1 0-1.093.546.546 0 0 1 0 1.093" clip-rule="evenodd"/><path d="M13.99 11H16V8.97C16 7.83 14.985 7 13.846 7h-2.061q-.428.002-.785.146A4.4 4.4 0 0 1 12.494 8h1.352c.707 0 1.155.496 1.155.97V10h-1.2q.151.48.188 1M4.886 7.133A2.2 2.2 0 0 0 4.123 7H2.062C.923 7 0 7.83 0 8.969v2.03h1.856a4.4 4.4 0 0 1 .188-1H1V8.97C1 8.442 1.414 8 2.062 8h1.29a4.4 4.4 0 0 1 1.534-.867"/></svg>