<svg xmlns="http://www.w3.org/2000/svg" viewBox="0 0 16 16" height="16px" width="16px" fill="currentColor" aria-hidden="true" role="img"><path d="M10.586 0a1 1 0 0 1 .707.293l4.414 4.414a1 1 0 0 1 .293.707V14a2 2 0 0 1-2 2H4a2 2 0 0 1-2-2V2a2 2 0 0 1 2-2zM4 1a1 1 0 0 0-1 1v12a1 1 0 0 0 1 1h10a1 1 0 0 0 1-1V6h-2.628a4 4 0 0 0 .128-1h2.086L11 1.414v.464a4 4 0 0 0-1-.586V1zm4.5 1c.547 0 1.058.149 1.5.404l.066.04q.102.063.199.134l.045.033a3 3 0 0 1 .46.43 3 3 0 0 1 .186.24 3 3 0 0 1 .534 1.945l-.004.051a3 3 0 0 1-1.233 2.158l-.003 1.232-.625.833.75 1-.75 1 .815 1.088L8.5 14.14l-1.75-1.4-.003-5.306A3 3 0 0 1 8.5 2m0 1a2 2 0 0 0-1.003 3.731l.25.145.003 5.384.75.6.56-.448-.685-.912.75-1-.75-1 .875-1.167.004-1.458.249-.144a2 2 0 0 0 .957-2.123 2 2 0 0 0-.456-.923A2 2 0 0 0 8.5 3m0 .75a.5.5 0 1 1 0 1 .5.5 0 0 1 0-1"/></svg>