<svg xmlns="http://www.w3.org/2000/svg" viewBox="0 0 16 16" height="16px" width="16px" fill="currentColor" aria-hidden="true" role="img"><g clip-path="url(#clip0_2042_131)"><path d="M8 0a8 8 0 1 1 0 16A8 8 0 0 1 8 0m0 1a7 7 0 1 0 0 14A7 7 0 0 0 8 1m0 10.376a.812.812 0 1 1 0 1.623.812.812 0 0 1 0-1.623m.332-8.34q.98 0 1.68.406.714.392 1.092 1.064.391.657.392 1.456v.168q0 .785-.378 1.442-.378.659-1.134 1.05C9.49 8.874 8.626 9 8.626 9v1.5H7.282V8.208c.72-.197 1.91-.273 2.436-.86q.49-.532.49-1.302 0-.574-.238-.98a1.5 1.5 0 0 0-.672-.63 2 2 0 0 0-.966-.224q-.63 0-1.092.266a1.8 1.8 0 0 0-.7.7c-.168.289-.252.485-.252.868H5c0-.55.122-.924.364-1.4a2.97 2.97 0 0 1 1.12-1.162q.742-.447 1.848-.448"/></g><defs><clipPath id="clip0_2042_131"><path d="M0 0h16v16H0z"/></clipPath></defs></svg>