<svg xmlns="http://www.w3.org/2000/svg" viewBox="0 0 16 16" height="16px" width="16px" fill="currentColor" aria-hidden="true" role="img"><path d="m14.205 1.44-1.84 2.174c.568.435 1.077.915 1.524 1.386.8.857 1.526 1.886 2.108 3a13.8 13.8 0 0 1-2.108 3c-1.382 1.457-3.345 3-5.89 3-1.34 0-2.52-.429-3.537-1.047l-1.903 2.251-.763-.645L13.44.795zM10.29 6.065a3 3 0 0 1-3.82 4.514l-1.35 1.598c.86.497 1.817.823 2.879.823 2.121 0 3.835-1.287 5.161-2.685A12.7 12.7 0 0 0 14.857 8a12.7 12.7 0 0 0-1.697-2.314 12 12 0 0 0-1.442-1.307zM7.999 2c.926 0 1.776.205 2.548.535l-.682.805A5.4 5.4 0 0 0 8 3C5.878 3 4.164 4.287 2.837 5.686A12.7 12.7 0 0 0 1.14 8a12.7 12.7 0 0 0 1.697 2.315q.293.31.612.607l-.646.765A15 15 0 0 1 2.108 11 13.8 13.8 0 0 1 0 8a13.8 13.8 0 0 1 2.108-3C3.49 3.543 5.454 2 8 2m-.868 7.798c.263.128.557.202.869.202a2 2 0 0 0 1.632-3.157zM8 5q.315 0 .61.062l-.81.948A2 2 0 0 0 6 8q.002.058.006.115l-.809.948A3 3 0 0 1 8 5"/></svg>