<svg xmlns="http://www.w3.org/2000/svg" viewBox="0 0 16 16" height="16px" width="16px" fill="currentColor" aria-hidden="true" role="img"><path fill-rule="evenodd" d="m14.5 1.543-1.635 1.932 1.716 1.226c.263.187.419.49.419.813V15a1 1 0 0 1-1 1H2.276l-.708.838-.763-.646L13.736.896zM3.122 15H5v-2.222zM6 11.595V15h4v-5H7.35zM8.195 9H10a1 1 0 0 1 1 1v5h3V5.514l-1.782-1.273zM7.42.416a1 1 0 0 1 1.162 0l2.493 1.78-.647.767L8 1.229 2 5.514v7.431L1 14.13V5.514c0-.322.156-.626.419-.813z" clip-rule="evenodd"/></svg>