<svg xmlns="http://www.w3.org/2000/svg" viewBox="0 0 16 16" height="16px" width="16px" fill="currentColor" aria-hidden="true" role="img"><path d="M14 0a2 2 0 1 1-1.015 3.72l-2.542 2.543a2.98 2.98 0 0 1 0 3.473l2.542 2.542a2 2 0 1 1-.707.707l-2.542-2.542a2.98 2.98 0 0 1-3.473 0L3.72 12.985a2 2 0 1 1-.707-.707l2.542-2.542A3 3 0 0 1 5 8c0-.648.207-1.247.556-1.737L3.014 3.72A2 2 0 1 1 4 2c0 .37-.104.715-.28 1.013l2.543 2.542a2.99 2.99 0 0 1 3.473.001l2.542-2.542A2 2 0 0 1 14 0M2 13a1 1 0 1 0 0 2 1 1 0 0 0 0-2m12 0a1 1 0 1 0 0 2 1 1 0 0 0 0-2M8 6a2 2 0 1 0 0 4 2 2 0 0 0 0-4M2 1a1 1 0 1 0 0 2 1 1 0 0 0 0-2m12 0a1 1 0 1 0 0 2 1 1 0 0 0 0-2"/></svg>