<svg xmlns="http://www.w3.org/2000/svg" viewBox="0 0 16 16" height="16px" width="16px" fill="currentColor" aria-hidden="true" role="img"><path d="M9.044 15.93Q8.531 15.998 8 16c-.354 0-.703-.026-1.045-.07l.129-.99a7 7 0 0 0 1.832 0zM3.74 13.555a7 7 0 0 0 1.58.914l-.383.923a8 8 0 0 1-1.806-1.046zm9.128.791a8 8 0 0 1-1.806 1.046l-.382-.923a7 7 0 0 0 1.58-.914zM8 0a8 8 0 0 1 .454.014l.1.006q.243.016.483.048l.007.001c.704.093 1.38.278 2.015.543l.003-.005a8 8 0 0 1 1.806 1.046l-.607.792a7 7 0 0 0-.414-.293l-.004.005A6.95 6.95 0 0 0 8 1C4.15 1 1 4.15 1 8q.001.443.055.87a6.95 6.95 0 0 0 1.102 2.973l-.005.004q.139.212.293.414l-.792.607a8 8 0 0 1-1.046-1.806l.005-.003A7.9 7.9 0 0 1 .02 8.554l-.006-.1a8 8 0 0 1-.004-.812l.005-.104a8 8 0 0 1 .044-.492l.01-.09a8 8 0 0 1 .543-2.017l-.005-.002a8 8 0 0 1 1.046-1.806l.008.006A8 8 0 0 1 3.137 1.66l-.006-.008A8 8 0 0 1 4.938.607l.001.005A8 8 0 0 1 6.955.07l.09-.011A8 8 0 0 1 8 0m7.392 11.062a8 8 0 0 1-1.046 1.806l-.791-.607a7 7 0 0 0 .914-1.581z"/><path d="m8.5 7.71 3.248 1.855-.496.87L7.5 8.29V2h1zm7.43-.755q.068.513.07 1.045c0 .354-.026.702-.07 1.044l-.99-.128a7 7 0 0 0 0-1.832zM14.346 3.13a8 8 0 0 1 1.046 1.808l-.923.382a7 7 0 0 0-.914-1.58z"/></svg>