<svg xmlns="http://www.w3.org/2000/svg" viewBox="0 0 16 16" height="16px" width="16px" fill="currentColor" aria-hidden="true" role="img"><path d="M12 1v4h3V1zm0 14h3v-4h-3zM1 10h3V5H1zm15-5a1 1 0 0 1-.898.995L15 6h-3a1 1 0 0 1-1-1V2.893A2.2 2.2 0 0 0 8.474 4.7l-.07.415A3.45 3.45 0 0 1 6.785 7.5a3.45 3.45 0 0 1 1.62 2.384l.069.415A2.2 2.2 0 0 0 11 12.106V11l.005-.102A1 1 0 0 1 12 10h3a1 1 0 0 1 .995.898L16 11v4a1 1 0 0 1-.898.995L15 16h-3a1 1 0 0 1-1-1v-1.88a3.203 3.203 0 0 1-3.513-2.657l-.069-.415A2.45 2.45 0 0 0 5 8v2l-.005.102a1 1 0 0 1-.892.893L4 11H1a1 1 0 0 1-1-1V5a1 1 0 0 1 1-1h3a1 1 0 0 1 .995.897L5 5v2c1.198 0 2.22-.866 2.418-2.048l.07-.415A3.204 3.204 0 0 1 11 1.88V1l.005-.103A1 1 0 0 1 12 0h3a1 1 0 0 1 .995.897L16 1z"/></svg>