<svg xmlns="http://www.w3.org/2000/svg" viewBox="0 0 16 16" height="16px" width="16px" fill="currentColor" aria-hidden="true" role="img"><path d="m15.707 13.5-2.354 2.354-.707-.707L13.794 14h-2.975a6 6 0 0 0 1.155-1h1.82l-1.146-1.146.707-.707zM12.44 8.23q.06.377.06.77a5 5 0 0 1-2.188 4.135A5 5 0 0 1 7.535 14H0v-1h7.528a4 4 0 0 0 3.956-4.345 1.5 1.5 0 0 0 .354-.123zM7.5 4c.711 0 1.387.15 2 .417l.167.275v.947a4 4 0 0 0-3.356-.459A4.002 4.002 0 0 0 4.854 12H3.5a5.002 5.002 0 0 1 4-8m7.613-4a.5.5 0 0 1 .429.759l-2.209 3.655v1.943a.5.5 0 0 1-.276.448l-1.622.811-.044.023-.064.026q-.025.008-.052.014v-.001a.5.5 0 0 1-.608-.487V4.414L8.458.76A.5.5 0 0 1 8.887 0zm-3.446 4.135v2.107l.07.105.596-.298V4.135L14.227 1H9.772z"/></svg>