<svg xmlns="http://www.w3.org/2000/svg" viewBox="0 0 16 16" height="16px" width="16px" fill="currentColor" aria-hidden="true" role="img"><path d="M13 1a2 2 0 0 1 2 2v1h-3v2h-1V3c0-.364.097-.706.268-1H5a2 2 0 0 0-2 2v8h6v.882q0 .234.058.454A1 1 0 0 0 11 13v-2h1v2a2 2 0 0 1-2 2H2a2 2 0 0 1-2-2v-1h2V4a3 3 0 0 1 3-3zM1 13a1 1 0 0 0 1 1h6.232a3 3 0 0 1-.13-.368A2 2 0 0 1 8 13zm7.99-7.842.375.33L7.603 7.5H10.5A4.5 4.5 0 0 1 15 12v2h-1v-2a3.5 3.5 0 0 0-3.5-3.5H7.603l1.762 2.013-.376.329-.377.33-2.488-2.843L5.835 8l.289-.33 2.488-2.842zM13 2a1 1 0 0 0-.59.193l-.01.007a1 1 0 0 0-.149.138A1 1 0 0 0 12 3h2a1 1 0 0 0-1-1"/></svg>