<svg xmlns="http://www.w3.org/2000/svg" viewBox="0 0 16 16" height="16px" width="16px" fill="currentColor" aria-hidden="true" role="img"><path d="M8 0c3 0 5.5 2.239 5.5 5 0 1.91-.911 2.907-2.299 4.733a1 1 0 0 0-.201.6V11a1 1 0 0 1-1 1H6v.5a.5.5 0 0 0 .5.5H10v1H6.64l.156.621A.5.5 0 0 0 7.28 15H9v1H7.281a1.5 1.5 0 0 1-1.456-1.136l-.308-1.233A1.5 1.5 0 0 1 5 12.5v-2.167a1 1 0 0 0-.114-.464l-.087-.136C3.41 7.907 2.5 6.91 2.5 5 2.5 2.239 5 0 8 0m0 1C5.456 1 3.5 2.883 3.5 5c0 1.503.639 2.213 2.095 4.129.264.348.405.772.405 1.204V11h4v-.667c0-.432.141-.856.405-1.204l.942-1.243C12.14 6.808 12.5 6.126 12.5 5c0-2.117-1.956-4-4.5-4m-.5 1a.5.5 0 0 1 0 1c-.337 0-.717.174-1.021.479C6.174 3.783 6 4.163 6 4.5a.5.5 0 0 1-1 0c0-.663.326-1.283.771-1.729C6.217 2.326 6.837 2 7.5 2"/></svg>