<svg xmlns="http://www.w3.org/2000/svg" viewBox="0 0 16 16" height="16px" width="16px" fill="currentColor" aria-hidden="true" role="img"><path d="M10.5 2.5A5.5 5.5 0 1 1 8 12.898 5.5 5.5 0 1 1 8 3.1c.75-.383 1.6-.6 2.5-.6m-5 1A4.5 4.5 0 1 0 7 12.242 5.49 5.49 0 0 1 5 8a5.49 5.49 0 0 1 2-4.243A4.5 4.5 0 0 0 5.5 3.5m5 0c-.526 0-1.031.09-1.501.257A5.49 5.49 0 0 1 11 8a5.49 5.49 0 0 1-2.001 4.242A4.5 4.5 0 1 0 10.5 3.5M8 4.258A4.5 4.5 0 0 0 6 8c0 1.56.794 2.934 2 3.741A4.5 4.5 0 0 0 10 8c0-1.56-.794-2.935-2-3.742"/></svg>