<svg xmlns="http://www.w3.org/2000/svg" viewBox="0 0 16 16" height="16px" width="16px" fill="currentColor" aria-hidden="true" role="img"><g clip-path="url(#clip0_482_3197)"><path d="M11.443 5.79a3.3 3.3 0 0 1-.447 1.16L9.228 9.778a1.5 1.5 0 0 0-.228.795V12.5c0 .452-.201.856-.518 1.13l-.307 1.234A1.5 1.5 0 0 1 6.719 16H5.28a1.5 1.5 0 0 1-1.456-1.136l-.308-1.233A1.5 1.5 0 0 1 3 12.5v-1.927a1.5 1.5 0 0 0-.228-.795L2.08 8.67l.793-.616.748 1.195A2.5 2.5 0 0 1 4 10.573V11h4v-.427a2.5 2.5 0 0 1 .38-1.324l1.278-2.046zm-6.647 8.831A.5.5 0 0 0 5.28 15h1.44a.5.5 0 0 0 .485-.379L7.36 14H4.641zM4 12.5a.5.5 0 0 0 .5.5h3a.5.5 0 0 0 .5-.5V12H4zM16 4h-1V1.7L7.81 7.392l-.35.276-2.502-2.503-4.151 3.23-.614-.79 4.5-3.5.348-.271 2.497 2.497L14.274 1H12V0h4zM6.308 0a5.19 5.19 0 0 1 4.446 2.51l-.793.628A4.19 4.19 0 0 0 6.308 1h-.616a4.193 4.193 0 0 0-4.188 4.318l-.899.699A3.3 3.3 0 0 1 .5 5.192 5.193 5.193 0 0 1 5.692 0z"/></g><defs><clipPath id="clip0_482_3197"><path d="M0 0h16v16H0z"/></clipPath></defs></svg>