<svg xmlns="http://www.w3.org/2000/svg" viewBox="0 0 16 16" height="16px" width="16px" fill="currentColor" aria-hidden="true" role="img"><path fill-rule="evenodd" d="M16 2v12a2 2 0 0 1-2 2H2a2 2 0 0 1-2-2V2a2 2 0 0 1 2-2h12a2 2 0 0 1 2 2M2 1a1 1 0 0 0-.993.883L1 2v12a1 1 0 0 0 .883.993L2 15h12a1 1 0 0 0 .993-.883L15 14V2a1 1 0 0 0-.883-.993L14 1zm6.81 9H7.59l-.51-1.77h-2.2L4.37 10H3.19l2.13-6.54h1.36zM5.96 4.36l-.134.549-.141.546-.149.539-.156.526-.23.8h1.67l-.23-.8-.105-.35a28 28 0 0 1-.2-.72L6 4.36z" clip-rule="evenodd"/></svg>