<svg xmlns="http://www.w3.org/2000/svg" viewBox="0 0 16 16" height="16px" width="16px" fill="currentColor" aria-hidden="true" role="img"><path d="M12.644 5A3.357 3.357 0 0 1 16 8.357l-.013.318a3.93 3.93 0 0 1-.772 2.04l-.614.818a.5.5 0 0 0-.101.3V14.5A1.5 1.5 0 0 1 13 16h-1a1.5 1.5 0 0 1-1.5-1.5v-2.667a.5.5 0 0 0-.057-.231l-.043-.069-.614-.82A3.93 3.93 0 0 1 9 8.358 3.36 3.36 0 0 1 12.357 5zM11.5 14.5l.01.1a.5.5 0 0 0 .49.4h1a.5.5 0 0 0 .5-.5V13h-2zM15 2a1 1 0 0 1 1 1v2.58a4.4 4.4 0 0 0-1-.887V3h-4v1.217a4.3 4.3 0 0 0-1 .476V3H6v2h3.58a4.4 4.4 0 0 0-.887 1H6v6h3.5v1H1a1 1 0 0 1-1-1V3a1 1 0 0 1 1-1zM1 12h4V6H1zm11.357-6A2.36 2.36 0 0 0 10 8.357c0 .634.206 1.25.586 1.757l.614.82.069.1a1.5 1.5 0 0 1 .231.799V12h2v-.167c0-.324.105-.64.3-.9l.614-.819A2.93 2.93 0 0 0 15 8.357l-.012-.24A2.36 2.36 0 0 0 12.644 6zM1 5h4V3H1zM14.103.005a1 1 0 0 1 .892.892L15 1H1l.005-.103A1 1 0 0 1 2 0h12z"/></svg>