<svg xmlns="http://www.w3.org/2000/svg" viewBox="0 0 16 16" height="16px" width="16px" fill="currentColor" aria-hidden="true" role="img"><path d="M8 5c1.933 0 3.5 1.57 3.5 3.502a4.1 4.1 0 0 1-.585 2.111L10 12.14v2.36A1.5 1.5 0 0 1 8.5 16h-1A1.5 1.5 0 0 1 6 14.5v-2.361l-.916-1.526A4.1 4.1 0 0 1 4.5 8.502 3.5 3.5 0 0 1 8 5m-1 9.5a.5.5 0 0 0 .5.5h1a.5.5 0 0 0 .5-.5V14H7zM7.995 0c1.852 0 3.533.244 4.77.652.615.204 1.148.457 1.538.762.365.286.666.672.695 1.151l.002.048V12.5c0 .52-.32.923-.708 1.212-.392.292-.926.526-1.54.71-.45.135-.96.25-1.515.339q.013-.129.013-.261v-.756c.447-.078.855-.171 1.214-.28.559-.167.97-.36 1.231-.554.265-.197.305-.339.305-.41V9.366c-.35.204-.78.38-1.257.527l-.192.056a5.4 5.4 0 0 0 .188-1.108c.418-.148.738-.308.956-.467.275-.2.304-.332.305-.373V4.366c-.35.204-.78.38-1.257.527-.397.122-.84.228-1.32.316a4.8 4.8 0 0 0-1.087-.846 12.4 12.4 0 0 0 2.113-.426c.562-.173.98-.369 1.246-.563C13.972 3.173 14 3.04 14 3v-.5h-.04a1 1 0 0 0-.275-.3c-.263-.207-.677-.414-1.234-.598C11.341 1.235 9.771 1 7.995 1s-3.344.235-4.451.602c-.556.184-.968.392-1.23.598a1 1 0 0 0-.274.3H2V3c0 .04.027.172.305.374.266.194.684.39 1.246.563.59.181 1.308.328 2.113.426-.403.229-.77.514-1.089.846a12 12 0 0 1-1.318-.316A6 6 0 0 1 2 4.366V8c0 .04.027.172.305.374.218.159.539.32.956.467q.036.565.188 1.108l-.192-.056A6 6 0 0 1 2 9.366V12.5c0 .072.04.214.304.41.26.194.67.387 1.227.555.36.108.77.202 1.219.28v.755q0 .132.012.262a12 12 0 0 1-1.519-.34c-.612-.184-1.146-.418-1.537-.71C1.318 13.422 1 13.019 1 12.5v-10q0-.126.057-.23c.106-.345.352-.631.638-.856.389-.305.92-.558 1.534-.762C4.463.244 6.143 0 7.995 0M8 6C6.62 6 5.5 7.12 5.5 8.502c0 .562.153 1.115.442 1.597l.915 1.525a1 1 0 0 1 .143.515V13h2v-.861a1 1 0 0 1 .143-.515l.915-1.525a3.1 3.1 0 0 0 .442-1.597A2.5 2.5 0 0 0 8 6"/></svg>