<svg xmlns="http://www.w3.org/2000/svg" viewBox="0 0 16 16" height="16px" width="16px" fill="currentColor" aria-hidden="true" role="img"><path d="M13 0a2 2 0 0 1 2 2v9.586a1 1 0 0 1-.293.707l-3.414 3.414a1 1 0 0 1-.707.293H3a2 2 0 0 1-2-2V2a2 2 0 0 1 2-2zM3 1a1 1 0 0 0-1 1v12a1 1 0 0 0 1 1h7v-2.5a1.5 1.5 0 0 1 1.5-1.5H14V2a1 1 0 0 0-1-1zm8.5 11a.5.5 0 0 0-.5.5v2.086L13.586 12zM9 11.935a.5.5 0 0 1 0 1H7a.5.5 0 1 1 0-1zM7.266 4.072a3.8 3.8 0 0 1 1.468 0l.216.044a2.55 2.55 0 0 1 2.05 2.5c0 .64-.208 1.263-.592 1.776l-.807 1.077a.5.5 0 0 0-.101.3v.666a1 1 0 0 1-1 1h-1a1 1 0 0 1-1-1V9.77a.5.5 0 0 0-.1-.301l-.808-1.077A2.96 2.96 0 0 1 5 6.616a2.55 2.55 0 0 1 2.05-2.5zm1.272.982a2.8 2.8 0 0 0-1.076 0l-.216.043A1.55 1.55 0 0 0 6 6.617c0 .423.138.835.392 1.174L7.2 8.869c.195.26.3.576.3.9v.666h1V9.77c0-.325.105-.64.3-.9l.808-1.077A1.96 1.96 0 0 0 10 6.616a1.55 1.55 0 0 0-1.245-1.52z"/></svg>