<svg xmlns="http://www.w3.org/2000/svg" viewBox="0 0 16 16" height="16px" width="16px" fill="currentColor" aria-hidden="true" role="img"><path d="M12.5 13a.5.5 0 0 1 .5.495v.002l.003.035q.005.054.03.16c.034.137.103.323.242.508.262.348.847.8 2.225.8a.5.5 0 0 1 0 1c-1.557 0-2.461-.506-2.964-1.123C12.107 15.486 11.33 16 10 16s-2.108-.514-2.537-1.123C6.96 15.494 6.057 16 4.5 16a.5.5 0 0 1 0-1c1.378 0 1.963-.452 2.225-.8a1.43 1.43 0 0 0 .272-.668L7 13.497v-.002a.5.5 0 0 1 1 .001v.006l.003.039a1.6 1.6 0 0 0 .233.694C8.451 14.58 8.91 15 10 15s1.549-.421 1.764-.765a1.6 1.6 0 0 0 .236-.733v-.006a.5.5 0 0 1 .5-.496M15 0a1 1 0 0 1 1 1v9h-1V9H1v3h1v1H1l-.103-.005a1 1 0 0 1-.892-.893L0 12V1A1 1 0 0 1 .897.005L1 0zm-2.5 10a.5.5 0 0 1 .5.495v.002l.003.035q.005.054.03.16c.034.137.103.323.242.508.262.348.847.8 2.225.8a.5.5 0 0 1 0 1c-1.557 0-2.461-.506-2.964-1.123C12.107 12.486 11.33 13 10 13s-2.108-.514-2.537-1.123C6.96 12.494 6.057 13 4.5 13a.5.5 0 0 1 0-1c1.378 0 1.963-.452 2.225-.8a1.43 1.43 0 0 0 .272-.668L7 10.497v-.002a.5.5 0 0 1 1 .001v.006l.003.039a1.6 1.6 0 0 0 .233.694C8.451 11.58 8.91 12 10 12s1.549-.421 1.764-.765a1.6 1.6 0 0 0 .236-.733v-.006a.5.5 0 0 1 .5-.496M1 8h14V5H1zm11-1h-1V6h1zm2 0h-1V6h1zM1 4h14V1H1zm11-1h-1V2h1zm2 0h-1V2h1z"/></svg>