<svg xmlns="http://www.w3.org/2000/svg" viewBox="0 0 16 16" height="16px" width="16px" fill="currentColor" aria-hidden="true" role="img"><path d="M7.5 1C11.642 1 15 3.239 15 6c0 .91-.366 1.762-1.004 2.496l-.708-.708C13.765 7.217 14 6.602 14 6c0-.942-.573-1.918-1.751-2.703C11.078 2.516 9.401 2 7.5 2s-3.578.516-4.749 1.297C1.573 4.082 1 5.057 1 6c0 .71.325 1.438.988 2.09Q2.23 8.002 2.5 8a1.5 1.5 0 0 1 1.492 1.35c1.003.406 2.202.65 3.508.65.893 0 1.735-.116 2.5-.317v1.03c-.782.185-1.623.287-2.5.287-1.367 0-2.647-.245-3.751-.67q-.078.116-.177.217c.505 1.156.957 3.217-.681 5.265l-.782-.624c1.298-1.623.979-3.232.565-4.2A1.5 1.5 0 0 1 1.18 8.785l.034-.057C.447 7.943 0 7.007 0 6c0-2.761 3.358-5 7.5-5m7.515 10.014h-2.431L11 13.02V7zM2.5 9a.5.5 0 1 0 0 1 .5.5 0 0 0 0-1"/></svg>