<svg xmlns="http://www.w3.org/2000/svg" viewBox="0 0 16 16" height="16px" width="16px" fill="currentColor" aria-hidden="true" role="img"><path fill-rule="evenodd" d="M15.478 10.205a1 1 0 0 1 0 1.743l-6.974 3.923a1 1 0 0 1-.98 0L.55 11.948a1 1 0 0 1-.12-1.664l.12-.079 2.574-1.449 1.02.574-3.104 1.747L8.014 15l6.974-3.923-3.119-1.755 1.02-.573zM7.523.275a1 1 0 0 1 .98 0l6.975 3.923a1 1 0 0 1 0 1.744L8.504 9.864a1 1 0 0 1-.98 0L.55 5.942a1 1 0 0 1-.12-1.665l.12-.079zM1.04 5.07l6.974 3.923 6.974-3.923-6.974-3.922z" clip-rule="evenodd"/></svg>