<svg xmlns="http://www.w3.org/2000/svg" viewBox="0 0 16 16" height="16px" width="16px" fill="currentColor" aria-hidden="true" role="img"><g clip-path="url(#clip0_349_61)"><path fill-rule="evenodd" d="M9.698.336a1 1 0 0 0-1.386.367L4.64 7.231A1 1 0 0 0 4 7H1a1 1 0 0 0-1 1v7a1 1 0 0 0 1 1h3a1 1 0 0 0 .905-.575A2.5 2.5 0 0 0 6.5 16h5.48a2.5 2.5 0 0 0 2.409-1.831l1.389-5A2.5 2.5 0 0 0 13.368 6H10.27l.79-1.776a3 3 0 0 0-1.2-3.79zM5 13.5V8.63l4.184-7.438.162.098a2 2 0 0 1 .799 2.527L8.73 7h4.638a1.5 1.5 0 0 1 1.445 1.901l-1.389 5A1.5 1.5 0 0 1 11.98 15H6.5A1.5 1.5 0 0 1 5 13.5M4 8v7H1V8z" clip-rule="evenodd"/></g><defs><clipPath id="clip0_349_61"><path d="M0 0h16v16H0z"/></clipPath></defs></svg>