<svg xmlns="http://www.w3.org/2000/svg" viewBox="0 0 16 16" height="16px" width="16px" fill="currentColor" aria-hidden="true" role="img"><path fill-rule="evenodd" d="M9.698.336a1 1 0 0 0-1.386.367L4.64 7.232A1 1 0 0 0 4 7H1a1 1 0 0 0-1 1v7a1 1 0 0 0 1 1h3a1 1 0 0 0 .905-.575A2.5 2.5 0 0 0 6.5 16h5.48a2.5 2.5 0 0 0 2.409-1.83l1.389-5A2.5 2.5 0 0 0 13.368 6H10.27l.79-1.776a3 3 0 0 0-1.2-3.79zM5 13.5V8.631l4.184-7.437.162.097a2 2 0 0 1 .799 2.527L8.73 7h4.638a1.5 1.5 0 0 1 1.445 1.902l-1.389 5A1.5 1.5 0 0 1 11.98 15H6.5A1.5 1.5 0 0 1 5 13.5M4 8v7H1V8z" clip-rule="evenodd"/></svg>