<svg xmlns="http://www.w3.org/2000/svg" viewBox="0 0 16 16" height="16px" width="16px" fill="currentColor" aria-hidden="true" role="img"><path d="M4 1v4H1V1zm0 14H1v-4h3zm11-5h-3V5h3zM0 5a1 1 0 0 0 .897.995L1 6h3a1 1 0 0 0 1-1V2.893A2.2 2.2 0 0 1 7.526 4.7l.07.415A3.45 3.45 0 0 0 9.215 7.5a3.45 3.45 0 0 0-1.62 2.384l-.069.415A2.2 2.2 0 0 1 5 12.106V11l-.005-.102A1 1 0 0 0 4 10H1a1 1 0 0 0-.995.898L0 11v4a1 1 0 0 0 .897.995L1 16h3a1 1 0 0 0 1-1v-1.88a3.203 3.203 0 0 0 3.513-2.657l.069-.415A2.45 2.45 0 0 1 11 8v2l.005.102a1 1 0 0 0 .893.893L12 11h3a1 1 0 0 0 1-1V5a1 1 0 0 0-1-1h-3a1 1 0 0 0-.995.897L11 5v2a2.45 2.45 0 0 1-2.418-2.048l-.07-.415A3.204 3.204 0 0 0 5 1.88V1L4.995.897A1 1 0 0 0 4 0H1a1 1 0 0 0-.995.897L0 1z"/></svg>