<svg xmlns="http://www.w3.org/2000/svg" viewBox="0 0 16 16" height="16px" width="16px" fill="currentColor" aria-hidden="true" role="img"><g fill-rule="evenodd" clip-path="url(#clip0_380_2794)" clip-rule="evenodd"><path d="M13.397 2.604a1.975 1.975 0 0 0-2.793 0l-2.75 2.75-.708-.708 2.75-2.75a2.975 2.975 0 0 1 4.208 4.208l-2.75 2.75a3.33 3.33 0 0 1-4.708 0l.708-.708c.909.91 2.383.91 3.292 0l2.75-2.75a1.975 1.975 0 0 0 0-2.792"/><path d="M2.604 13.396a1.975 1.975 0 0 0 2.792 0l2.75-2.75.708.707-2.75 2.75a2.975 2.975 0 1 1-4.208-4.207l2.75-2.75a3.33 3.33 0 0 1 4.708 0l-.708.708a2.33 2.33 0 0 0-3.292 0l-2.75 2.75a1.975 1.975 0 0 0 0 2.792"/></g><defs><clipPath id="clip0_380_2794"><path d="M0 0h16v16H0z"/></clipPath></defs></svg>