<svg xmlns="http://www.w3.org/2000/svg" viewBox="0 0 16 16" height="16px" width="16px" fill="currentColor" aria-hidden="true" role="img"><path fill-rule="evenodd" d="M4.646 7.146c1.3-1.3 3.408-1.3 4.707 0l-.707.707a2.33 2.33 0 0 0-3.293 0l-2.75 2.75a1.975 1.975 0 0 0 2.793 2.793l2.75-2.75.707.707-2.75 2.75a2.975 2.975 0 1 1-4.207-4.207zm5.25-5.25a2.975 2.975 0 0 1 4.207 4.207l-2.75 2.75a3.33 3.33 0 0 1-4.707 0l.707-.707c.91.91 2.384.91 3.293 0l2.75-2.75a1.975 1.975 0 0 0-2.793-2.793l-2.75 2.75-.707-.707z" clip-rule="evenodd"/></svg>