<svg xmlns="http://www.w3.org/2000/svg" viewBox="0 0 16 16" height="16px" width="16px" fill="currentColor" aria-hidden="true" role="img"><path d="M3 11a1 1 0 0 1 1 1v1a1 1 0 0 1-.897.995L3 14H2l-.103-.005a1 1 0 0 1-.892-.893L1 13v-1a1 1 0 0 1 1-1zm-1 2h1v-1H2zm13 0H6v-1h9zM3 6.5a1 1 0 0 1 1 1v1a1 1 0 0 1-.897.995L3 9.5H2l-.103-.005a1 1 0 0 1-.892-.892L1 8.5v-1a1 1 0 0 1 1-1zm-1 2h1v-1H2zm13 0H6v-1h9zM3 2a1 1 0 0 1 1 1v1a1 1 0 0 1-.897.995L3 5H2l-.103-.005a1 1 0 0 1-.892-.892L1 4V3a1 1 0 0 1 1-1zM2 4h1V3H2zm13 0H6V3h9z"/></svg>