<svg xmlns="http://www.w3.org/2000/svg" viewBox="0 0 16 16" height="16px" width="16px" fill="currentColor" aria-hidden="true" role="img"><path fill-rule="evenodd" d="M7.684.113a.5.5 0 0 1 .632 0l.852.696c1.16.95 3.578 1.53 5.07 1.665l.307.028A.5.5 0 0 1 15 3v6.157c0 3.901-6.684 6.744-6.731 6.764a.5.5 0 0 1-.538 0C7.684 15.901 1 13.058 1 9.157V3a.5.5 0 0 1 .455-.498l.307-.028C3.162 2.347 5.374 1.83 6.6.983l.231-.174zM6.282 11c-.87 0-1.577.706-1.577 1.577v.44q.12.09.242.177a18.7 18.7 0 0 0 2.917 1.69l.136.062.136-.062a18.7 18.7 0 0 0 2.917-1.69q.122-.087.242-.178v-.44c0-.87-.707-1.576-1.577-1.576zm1.183-9.416c-.734.6-1.78 1.028-2.756 1.32-.94.282-1.919.467-2.709.55v5.703c0 .683.294 1.385.844 2.097.256.333.56.653.89.958A2.576 2.576 0 0 1 6.281 10h3.436c1.299 0 2.37.962 2.548 2.212.33-.305.633-.625.89-.958.55-.712.844-1.414.844-2.097V3.454c-.79-.083-1.77-.268-2.709-.55-.976-.292-2.022-.72-2.756-1.32L8 1.145zM8 4.5a2.5 2.5 0 1 1 0 5 2.5 2.5 0 0 1 0-5m0 1a1.5 1.5 0 1 0 0 3 1.5 1.5 0 0 0 0-3" clip-rule="evenodd"/></svg>