<svg xmlns="http://www.w3.org/2000/svg" viewBox="0 0 16 16" height="16px" width="16px" fill="currentColor" aria-hidden="true" role="img"><path d="M12.33 2.5v5l-3.465 2H13.5a1 1 0 0 1 1 1v1.565A2 2 0 0 1 16 14a2 2 0 0 1-4 0 2 2 0 0 1 1.5-1.935V10.5h-5v1.565A2 2 0 0 1 10 14a2 2 0 0 1-4 0 2 2 0 0 1 1.5-1.935V10.5h-5v1.565A2 2 0 0 1 4 14a2 2 0 0 1-4 0 2 2 0 0 1 1.5-1.935V10.5a1 1 0 0 1 1-1h4.635l-3.465-2v-5L8 0zM2 13c-.551 0-1 .449-1 1s.449 1 1 1 1-.449 1-1-.449-1-1-1m6 0c-.551 0-1 .449-1 1s.449 1 1 1 1-.449 1-1-.449-1-1-1m6 0c-.551 0-1 .449-1 1s.449 1 1 1 1-.449 1-1-.449-1-1-1M4.67 3.077v3.846L8 8.846l3.33-1.923V3.077L8 1.154z"/></svg>