<svg xmlns="http://www.w3.org/2000/svg" viewBox="0 0 16 16" height="16px" width="16px" fill="currentColor" aria-hidden="true" role="img"><path fill-rule="evenodd" d="M15 1a1 1 0 0 1 1 1v3c0 .888-.386 1.687-1 2.236V13.5a1.5 1.5 0 0 1-1.5 1.5h-11A1.5 1.5 0 0 1 1 13.5V7.236C.386 6.686 0 5.888 0 5V2a1 1 0 0 1 1-1zM5 2H1v3a2 2 0 1 0 4 0zm1 12h4v-3H6zm5 0v-3a1 1 0 0 0-1-1H6a1 1 0 0 0-1 1v3H2.5a.5.5 0 0 1-.5-.5V7.83a3 3 0 0 0 3.5-1.17A3 3 0 0 0 8 7.999a3 3 0 0 0 2.5-1.341 3 3 0 0 0 3.5 1.17V13.5a.5.5 0 0 1-.5.5zM6 2h4v3a2 2 0 1 1-4 0zm5 3V2h4v3a2 2 0 1 1-4 0" clip-rule="evenodd"/></svg>