<svg xmlns="http://www.w3.org/2000/svg" viewBox="0 0 16 16" height="16px" width="16px" fill="currentColor" aria-hidden="true" role="img"><path d="M3 4a1 1 0 0 1 1 1v1.778l1.564.47A3 3 0 0 1 7.5 6.04V4H7a1 1 0 0 1-1-1V1a1 1 0 0 1 1-1h2a1 1 0 0 1 1 1v2a1 1 0 0 1-1 1h-.5v2.041a3 3 0 0 1 1.935 1.206L12 6.778V5a1 1 0 0 1 1-1h2a1 1 0 0 1 1 1v2a1 1 0 0 1-1 1h-2a1 1 0 0 1-.694-.282l.009.01-1.435.43a3 3 0 0 1-.343 2.444l1.26 1.418h.002Q11.897 12 12 12h2a1 1 0 0 1 1 1v2a1 1 0 0 1-1 1h-2a1 1 0 0 1-1-1v-2a1 1 0 0 1 .045-.298l.006-.017-1.187-1.334A3 3 0 0 1 8 12a3 3 0 0 1-1.864-.65l-1.187 1.335-.005-.012A1 1 0 0 1 5 13v2a1 1 0 0 1-1 1H2a1 1 0 0 1-1-1v-2a1 1 0 0 1 1-1h2q.104 0 .201.02h.001l1.26-1.418a3 3 0 0 1-.342-2.444l-1.434-.43.007-.01A1 1 0 0 1 3 8H1a1 1 0 0 1-1-1V5a1 1 0 0 1 1-1zM2 15h2v-2H2zm10 0h2v-2h-2zM8 7a2 2 0 0 0-1.922 1.445 2.002 2.002 0 0 0 3.258 2.043 1.995 1.995 0 0 0 .332-2.592A2 2 0 0 0 8.5 7.063 2 2 0 0 0 8 7m-4.02.201-.012.046a1 1 0 0 0 .026-.14zM1 7h2V5H1zm12 0h2V5h-2zM7 3h2V1H7z"/></svg>