<svg xmlns="http://www.w3.org/2000/svg" viewBox="0 0 16 16" height="16px" width="16px" fill="currentColor" aria-hidden="true" role="img"><path d="M12.874 6.225a.5.5 0 0 1 0 .707l-4.242 4.242a3 3 0 1 1-4.243-4.242l4.243-4.243a.5.5 0 0 1 .707.707L5.096 7.64a2 2 0 1 0 2.829 2.828l4.242-4.242a.5.5 0 0 1 .707 0m-3.889 8.131.707.707a.5.5 0 0 1-.707.708l-1.06-1.061a.5.5 0 0 1 0-.707l6.01-6.01a2 2 0 0 0-2.828-2.829L6.864 9.407a.5.5 0 0 1-.707-.707l4.242-4.243a2 2 0 0 0-2.828-2.829l-6.01 6.01a.5.5 0 0 1-.707-.706l6.01-6.01a3 3 0 0 1 5.06 2.717 3 3 0 0 1 2.717 5.06z"/></svg>