<svg xmlns="http://www.w3.org/2000/svg" viewBox="0 0 16 16" height="16px" width="16px" fill="currentColor" aria-hidden="true" role="img"><path d="M1.5 0a.5.5 0 0 0-.5.5v14a.5.5 0 0 0 .5.5h14a.5.5 0 0 0 .5-.5v-6a.5.5 0 0 0-.5-.5H8V.5a.5.5 0 0 0-.5-.5zM2 4V1h5v7.293l-5 5V9h2V8H2V5h2V4zm.707 10 5-5H15v5h-3v-2h-1v2H8v-2H7v2z"/><path d="M1.5 0a.5.5 0 0 0-.5.5v14a.5.5 0 0 0 .5.5h14a.5.5 0 0 0 .5-.5v-6a.5.5 0 0 0-.5-.5H8V.5a.5.5 0 0 0-.5-.5zM2 4V1h5v7.293l-5 5V9h2V8H2V5h2V4zm.707 10 5-5H15v5h-3v-2h-1v2H8v-2H7v2z"/></svg>