<svg xmlns="http://www.w3.org/2000/svg" viewBox="0 0 16 16" height="16px" width="16px" fill="currentColor" aria-hidden="true" role="img"><path fill-rule="evenodd" d="m11.38 15.027-.525-1.246a7 7 0 0 1-1.44.574q-.797.224-1.616.224-1.576 0-2.88-.652-1.305-.652-2.083-1.956-.78-1.304-.779-3.212 0-1.674.565-3.027A7.3 7.3 0 0 1 4.14 3.406a6.7 6.7 0 0 1 2.15-1.489 6.2 6.2 0 0 1 2.483-.516q1.848 0 3.026.73a4.53 4.53 0 0 1 1.752 1.947q.574 1.216.574 2.696 0 1.167-.37 2.005t-.934 1.294-1.168.457q-1.46 0-.973-1.966l.837-4.107h-1.42l-.254.798h-.039q-.505-.953-1.518-.953a3.05 3.05 0 0 0-1.548.408q-.71.41-1.216 1.09-.506.682-.788 1.5a5 5 0 0 0-.283 1.654q0 1.323.691 2.082.691.76 1.762.76.622 0 1.275-.37a3.4 3.4 0 0 0 1.08-.954h.039q.135.72.72 1.1t1.421.38q.72 0 1.45-.332.73-.33 1.343-.992.614-.662.993-1.645.38-.983.38-2.287 0-1.985-.818-3.494A5.9 5.9 0 0 0 12.48.847Q10.991 0 8.949 0a8.5 8.5 0 0 0-3.241.623 8.1 8.1 0 0 0-2.696 1.79 8.5 8.5 0 0 0-1.84 2.794Q.502 6.832.5 8.837q0 1.77.564 3.114.565 1.343 1.558 2.249a6.5 6.5 0 0 0 2.277 1.352A8.2 8.2 0 0 0 7.624 16q2.044 0 3.757-.973M6.506 9.966q-.321-.37-.321-1.148 0-.663.262-1.363.263-.7.75-1.187a1.57 1.57 0 0 1 1.148-.487q.643 0 1.07.681L8.91 9.324q-.429.544-.808.778t-.73.234q-.545 0-.866-.37" clip-rule="evenodd"/></svg>