<svg xmlns="http://www.w3.org/2000/svg" viewBox="0 0 16 16" height="16px" width="16px" fill="currentColor" aria-hidden="true" role="img"><path d="M8 12a.5.5 0 0 1 .5.5v3a.5.5 0 0 1-1 0v-3A.5.5 0 0 1 8 12M0 2.618a1 1 0 0 1 1.447-.894l4 2A1 1 0 0 1 6 4.618v6.764a1 1 0 0 1-.553.894l-4 2A1 1 0 0 1 0 13.382zm14.553-.894A1 1 0 0 1 16 2.618v10.764a1 1 0 0 1-1.447.894l-4-2a1 1 0 0 1-.553-.894V4.618a1 1 0 0 1 .553-.894zM1 13.382l4-2V4.618l-4-2zm10-8.764v6.764l4 2V2.618zM8 6a.5.5 0 0 1 .5.5v3a.5.5 0 0 1-1 0v-3A.5.5 0 0 1 8 6m0-6a.5.5 0 0 1 .5.5v3a.5.5 0 0 1-1 0v-3A.5.5 0 0 1 8 0"/></svg>