<svg xmlns="http://www.w3.org/2000/svg" viewBox="0 0 16 16" height="16px" width="16px" fill="currentColor" aria-hidden="true" role="img"><path d="M7 2h2V0h1v2h1a3 3 0 0 1 3 3v1h2v1h-2v2h2v1h-2v1a3 3 0 0 1-3 3h-1v2H9v-2H7v2H6v-2H5a3 3 0 0 1-3-3v-1H0V9h2V7H0V6h2V5a3 3 0 0 1 3-3h1V0h1zM5 3a2 2 0 0 0-2 2v6a2 2 0 0 0 2 2h6a2 2 0 0 0 2-2V5a2 2 0 0 0-2-2zm1.132 4.78q.061.171.116.36.056.191.117.376h.025q.06-.185.11-.375.055-.19.116-.362L7.248 6h.982v4h-.822V8.534q0-.196.019-.436l.049-.49q.03-.247.048-.436H7.5l-.325.951-.57 1.527h-.498l-.57-1.527-.32-.951h-.024q.025.19.05.435.024.246.042.49.025.24.025.437V10H4.5V6h.987zm3.943 1.46h1.583V10H9.173V6h.902z"/></svg>