<svg xmlns="http://www.w3.org/2000/svg" viewBox="0 0 16 16" height="16px" width="16px" fill="currentColor" aria-hidden="true" role="img"><path fill-rule="evenodd" d="M7.803.54a.5.5 0 0 1 .394 0l3.5 1.5c.184.08.304.26.304.46L12 6.67l3.197 1.37a.5.5 0 0 1 .303.46V13a.5.5 0 0 1-.303.46l-3.5 1.5a.5.5 0 0 1-.393 0L8 13.543 4.698 14.96a.5.5 0 0 1-.394 0l-3.501-1.5A.5.5 0 0 1 .5 13l.001-4.5a.5.5 0 0 1 .303-.46L4 6.67l.001-4.17a.5.5 0 0 1 .303-.46zM1.5 12.67l2.501 1.072L4 10.33 1.501 9.26zM5 10.33v3.412l2.5-1.072.001-3.412zm3.5 2.34 2.5 1.072v-3.413l-2.5-1.07zm3.5-2.34.001 3.412 2.499-1.07.001-3.413zM2.27 8.5l2.231.955 2.23-.956-1.27-.544-.961-.41zm7 0 2.229.955 2.232-.955-2.23-.956zM5.002 6.67l2.5 1.07V4.33l-2.5-1.072zM8.5 4.33l.001 3.41L11 6.668l.001-3.409zM5.77 2.5 8 3.455l2.231-.955-2.23-.956z" clip-rule="evenodd"/></svg>