<svg xmlns="http://www.w3.org/2000/svg" viewBox="0 0 16 16" height="16px" width="16px" fill="currentColor" aria-hidden="true" role="img"><path fill-rule="evenodd" d="M6.5 2H1v9h12v1H7.5v3H10v1H4v-1h2.5v-3H1a1 1 0 0 1-.995-.897L0 11V2a1 1 0 0 1 1-1h5.5zm1 1.054A4.057 4.057 0 0 1 12.479.179a4.06 4.06 0 0 1 2.875 4.98c-.207.77-.6 1.437-1.17 1.955l1.68 2.908c.176.306-.15.801-.457.978-.306.177-.899.212-1.076-.095l-1.675-2.9c-.684.243-1.46.248-2.282.027A4.057 4.057 0 0 1 7.5 3.054M8 9H3V8h5zm4.22-7.854c-.786-.21-1.591-.103-2.341.279-.706.458-1.202 1.102-1.412 1.888s-.103 1.59.295 2.28c.442.766 1.086 1.262 1.872 1.473.785.21 1.59.103 2.34-.279.69-.398 1.186-1.043 1.413-1.888a2.98 2.98 0 0 0-.295-2.28c-.443-.767-1.087-1.263-1.872-1.473M6 7H3V6h3zm0-2H3V4h3z" clip-rule="evenodd"/></svg>