<svg xmlns="http://www.w3.org/2000/svg" viewBox="0 0 16 16" height="16px" width="16px" fill="currentColor" aria-hidden="true" role="img"><path fill-rule="evenodd" d="M7.518.364a.51.51 0 0 1 .964 0l1.214 3.542 3.363-1.646a.51.51 0 0 1 .681.681l-1.646 3.363 3.542 1.214a.51.51 0 0 1 0 .964l-3.542 1.214 1.646 3.363a.51.51 0 0 1-.681.681l-3.363-1.646-1.214 3.542a.51.51 0 0 1-.964 0l-1.214-3.542-3.363 1.646a.51.51 0 0 1-.681-.681l1.646-3.363L.364 8.482a.51.51 0 0 1 0-.964l3.542-1.214L2.26 2.941a.51.51 0 0 1 .681-.681l3.363 1.646zM8 2.043l-.93 2.714a.51.51 0 0 1-.706.292L3.788 3.787l1.261 2.577a.51.51 0 0 1-.292.706L2.043 8l2.714.93c.29.1.427.43.292.706l-1.261 2.577 2.576-1.262a.51.51 0 0 1 .706.292L8 13.957l.93-2.714a.51.51 0 0 1 .706-.292l2.577 1.261-1.262-2.576a.51.51 0 0 1 .292-.706L13.957 8l-2.714-.93a.51.51 0 0 1-.292-.706l1.261-2.577L9.637 5.05a.51.51 0 0 1-.706-.292z" clip-rule="evenodd"/></svg>