<svg xmlns="http://www.w3.org/2000/svg" viewBox="0 0 16 16" height="16px" width="16px" fill="currentColor" aria-hidden="true" role="img"><path d="M2.05 9q.372 0 .72.09.349.089.623.274.273.186.436.468t.163.66a1.38 1.38 0 0 1-.284.86 2.3 2.3 0 0 1-.304.333l-.174.155-.18.152-1.243 1.004H4V14H.114v-.963l2.095-1.72.123-.115q.114-.116.195-.235a.7.7 0 0 0 .122-.399.54.54 0 0 0-.182-.422.7.7 0 0 0-.486-.163.7.7 0 0 0-.52.204.83.83 0 0 0-.217.406l-.022.127L0 10.568l.031-.18q.06-.263.193-.48a1.8 1.8 0 0 1 .452-.492 2 2 0 0 1 .626-.31Q1.655 9 2.05 9M16 12H6v-1h10zM3 7H1.697V3.328l-1.022.72L0 3.208 1.807 2H3zm13-2H6V4h10z"/></svg>