<svg xmlns="http://www.w3.org/2000/svg" viewBox="0 0 16 16" height="16px" width="16px" fill="currentColor" aria-hidden="true" role="img"><path d="M9.49 1.022c2.433 0 4.011.337 5.001.795.964.447 1.487 1.076 1.488 1.702v3.987H16v.006l-.001.007v.016l-.003.043q-.005.045-.018.106v4.278a.9.9 0 0 1-.373.744C15.03 13.113 13.33 14 9.49 14c-1.442 0-2.582-.126-3.474-.304l.816-.874c.721.107 1.599.178 2.658.178 3.537 0 5.046-.783 5.489-1.076V8.95c-.88.565-2.49 1.051-5.465 1.051Q8.966 10 8.479 9.979L7.396 8.896a20 20 0 0 0 2.118.105c2.953 0 4.333-.496 4.96-.914.307-.205.433-.39.485-.493q.013-.03.02-.053V5.205c-.874.573-2.485 1.07-5.494 1.07-2.998 0-4.609-.493-5.484-1.064v.29L4 5.5l-.999.999v-2.69L3 3.792V3.78h.001v-.261c0-.626.524-1.255 1.487-1.702.99-.458 2.57-.795 5.002-.795M7.414 10.5l-3.207 3.207L3.5 13l2-2H0v-1h5.5l-2-2 .707-.707zM9.49 2.022c-2.357 0-3.774.33-4.58.703-.832.384-.909.753-.909.794v.24l.04.108c.052.104.177.289.484.493.628.419 2.007.914 4.96.914s4.333-.495 4.96-.914c.307-.204.433-.39.485-.493a.5.5 0 0 0 .04-.107l.002-.008-.001.009v.016h.008V3.52c0-.041-.078-.41-.909-.794-.806-.374-2.222-.703-4.58-.703"/></svg>