<svg xmlns="http://www.w3.org/2000/svg" viewBox="0 0 16 16" height="16px" width="16px" fill="currentColor" aria-hidden="true" role="img"><path d="m6.51 8.782-1.25 1.2 6.741.02-.003 1-6.841-.02 1.283 1.336-.722.693-2.425-2.525 2.524-2.424zm6.242-3.299L10.343 8.02l-.725-.688 1.25-1.318L3.999 6l.002-1 6.807.014-1.282-1.217.688-.725z"/><path fill-rule="evenodd" d="M.273 5.93a8 8 0 1 1 15.455 4.142A8 8 0 0 1 .273 5.931m9.539-4.69a7 7 0 1 0-3.623 13.524A7 7 0 0 0 9.812 1.239" clip-rule="evenodd"/></svg>