<svg xmlns="http://www.w3.org/2000/svg" viewBox="0 0 16 16" height="16px" width="16px" fill="currentColor" aria-hidden="true" role="img"><path d="M15 0a1 1 0 0 1 1 1v14a1 1 0 0 1-1 1H1l-.103-.005A1 1 0 0 1 0 15V1A1 1 0 0 1 .897.005L1 0zM1 15h6.5V8.5H1zm7.5 0H15V8.5H8.5zm-2.293-4.293-1.06 1.06 1.06 1.061-.707.707-1.06-1.06-1.061 1.06-.707-.707 1.06-1.06-1.06-1.061.707-.707 1.06 1.06L5.5 10zM11.5 12.5a.5.5 0 1 1 0 1 .5.5 0 0 1 0-1m2-.5h-4v-1h4zm-2-2.5a.5.5 0 1 1 0 1 .5.5 0 0 1 0-1M1 7.5h6.5V1H1zm7.5 0H15V1H8.5zM12 4h1.5v1H12v1.5h-1V5H9.5V4H11V2.5h1zM6 5H2.5V4H6z"/></svg>