<svg xmlns="http://www.w3.org/2000/svg" viewBox="0 0 16 16" height="16px" width="16px" fill="currentColor" aria-hidden="true" role="img"><path d="M8 13a1 1 0 0 1 1 1v1a1 1 0 0 1-.897.995L8 16H5l-.103-.005a1 1 0 0 1-.892-.893L4 15v-1a1 1 0 0 1 1-1zm7 0a1 1 0 0 1 1 1v1a1 1 0 0 1-.898.995L15 16h-3l-.102-.005a1 1 0 0 1-.893-.893L11 15v-1a1 1 0 0 1 1-1zM5 15h3v-1H5zm7 0h3v-1h-3zM8 9a1 1 0 0 1 1 1v1a1 1 0 0 1-.897.995L8 12H5l-.103-.005a1 1 0 0 1-.892-.893L4 11v-1a1 1 0 0 1 1-1h1V7H4a1 1 0 0 1-1-1V4H1a1 1 0 0 1-1-1V1a1 1 0 0 1 1-1h4l.103.005A1 1 0 0 1 6 1v2l-.005.103a1 1 0 0 1-.892.892L5 4H4v2h9a1 1 0 0 1 1 1v2h1a1 1 0 0 1 1 1v1a1 1 0 0 1-.898.995L15 12h-3l-.102-.005a1 1 0 0 1-.893-.893L11 11v-1a1 1 0 0 1 1-1h1V7H7v2zm-3 2h3v-1H5zm7 0h3v-1h-3zM1 3h4V1H1z"/></svg>