<svg xmlns="http://www.w3.org/2000/svg" viewBox="0 0 16 16" height="16px" width="16px" fill="currentColor" aria-hidden="true" role="img"><path fill-rule="evenodd" d="M6.5 4.25a.75.75 0 1 1-1.5 0 .75.75 0 0 1 1.5 0m-2 2.25h2V11h1v1h-3v-1h1V7.5h-1z" clip-rule="evenodd"/><path fill-rule="evenodd" d="M9.586 0a1 1 0 0 1 .707.293l4.414 4.414a1 1 0 0 1 .293.707V14a2 2 0 0 1-2 2H3a2 2 0 0 1-2-2V2a2 2 0 0 1 2-2zM2 14a1 1 0 0 0 1 1h10a1 1 0 0 0 1-1V6h-3a2 2 0 0 1-2-2V1H3a1 1 0 0 0-1 1zm9-9h2.5L10 1.5V4a1 1 0 0 0 1 1" clip-rule="evenodd"/></svg>