<svg xmlns="http://www.w3.org/2000/svg" viewBox="0 0 16 16" height="16px" width="16px" fill="currentColor" aria-hidden="true" role="img"><path d="M5 10H2a1 1 0 1 0 0 2h12a2 2 0 1 1 0 4H8a.5.5 0 0 1 0-1h6a1 1 0 1 0 0-2H2a2 2 0 1 1 0-4h3zM8 0c2.21 0 4 1.599 4 3.571C12 7.187 8 10 8 10S4 7.187 4 3.571C4 1.6 5.79 0 8 0m4.5 9a.5.5 0 0 1 0 1H11V9zM8 1C6.234 1 5 2.255 5 3.571c0 1.45.813 2.827 1.756 3.916.448.518.9.94 1.244 1.235.344-.296.796-.717 1.244-1.235C10.187 6.398 11 5.021 11 3.571 11 2.255 9.766 1 8 1m0 1a2 2 0 1 1 0 4 2 2 0 0 1 0-4m0 1a1 1 0 1 0 0 2 1 1 0 0 0 0-2"/></svg>