<svg xmlns="http://www.w3.org/2000/svg" viewBox="0 0 16 16" height="16px" width="16px" fill="currentColor" aria-hidden="true" role="img"><path d="M13 2.7a5.5 5.5 0 0 1-1.92 4.176l-.749.642a.4.4 0 0 0-.057.061l.003.004-.016.01a.434.434 0 0 0 .137.63A5.17 5.17 0 0 1 13 12.707V16H3v-3.293c0-1.853.993-3.565 2.603-4.484a.433.433 0 0 0 .135-.63l-.015-.01.002-.004q-.024-.033-.056-.061l-.748-.642A5.5 5.5 0 0 1 3 2.7V0h10zm-4.797 9.938a.5.5 0 0 0-.406 0L4 14.324V15h8v-.676zm.629-4.091a1.5 1.5 0 0 1-1.664 0l-.414-.276c-.102.33-.32.629-.655.82A4.17 4.17 0 0 0 4 12.707v.523l3.39-1.506a1.5 1.5 0 0 1 1.22 0L12 13.23v-.523a4.17 4.17 0 0 0-2.099-3.616 1.42 1.42 0 0 1-.656-.82zM4.632 5c.247.417.563.795.94 1.117l.748.642q.036.031.069.066l1.334.89a.5.5 0 0 0 .554 0l1.333-.89q.034-.034.07-.066l.749-.642c.376-.322.692-.7.94-1.117zM4 2.7c0 .445.067.883.193 1.3h7.614c.126-.417.193-.855.193-1.3V1H4z"/></svg>