<svg xmlns="http://www.w3.org/2000/svg" viewBox="0 0 16 16" height="16px" width="16px" fill="currentColor" aria-hidden="true" role="img"><path d="M13.5 12h-4v-1h4z"/><path fill-rule="evenodd" d="M11.5 7a4.5 4.5 0 1 1 0 9 4.5 4.5 0 0 1 0-9m0 1a3.5 3.5 0 1 0 0 7 3.5 3.5 0 0 0 0-7" clip-rule="evenodd"/><path d="M7.258 8a5.5 5.5 0 0 0-.656 1H4a3 3 0 0 0-3 3v1h5.208q.149.524.394 1H0v-2a4 4 0 0 1 4-4z"/><path fill-rule="evenodd" d="M6 1a3 3 0 1 1 0 6 3 3 0 0 1 0-6m0 1a2 2 0 1 0 0 4 2 2 0 0 0 0-4" clip-rule="evenodd"/></svg>