<svg xmlns="http://www.w3.org/2000/svg" viewBox="0 0 16 16" height="16px" width="16px" fill="currentColor" aria-hidden="true" role="img"><path d="M15 2.27c.597.346 1 .99 1 1.73v10a2 2 0 0 1-2 2H4c-.74 0-1.385-.403-1.73-1H14a1 1 0 0 0 1-1zM13.102.006A1 1 0 0 1 14 1v12l-.005.102a1 1 0 0 1-.893.893L13 14H1a1 1 0 0 1-.995-.898L0 13V1a1 1 0 0 1 1-1h12zM1 13h12V1H1zm8-8h1a1 1 0 0 1 1 1v3a1 1 0 0 1-1 1H4a1 1 0 0 1-1-1V6a1 1 0 0 1 1-1h1l1-1h2zM5.414 6H4v3h6V6H8.586l-1-1H6.414zM7 6.5A.75.75 0 1 1 7 8a.75.75 0 0 1 0-1.5"/></svg>