<svg xmlns="http://www.w3.org/2000/svg" viewBox="0 0 16 16" height="16px" width="16px" fill="currentColor" aria-hidden="true" role="img"><path d="M8.006 1H8v3h.006v1H8a3 3 0 0 0 0 6 2.98 2.98 0 0 0 2.01-.78l.342.342h.002l3 3h-.002l.197.197A7.97 7.97 0 0 1 8 16 8 8 0 1 1 8 0h.006zM7 1.072A7 7 0 0 0 8 15a6.96 6.96 0 0 0 4.07-1.308L9.897 11.52A4 4 0 1 1 7 4.126zM9.256.098a8.002 8.002 0 0 1 5.126 12.724l-.715-.715A7 7 0 0 0 9.256 1.114zm0 4.104a4 4 0 0 1 2.242 5.736l-.746-.746a3 3 0 0 0-1.496-3.915z"/></svg>