<svg xmlns="http://www.w3.org/2000/svg" viewBox="0 0 16 16" height="16px" width="16px" fill="currentColor" aria-hidden="true" role="img"><g clip-path="url(#clip0_392_2851)"><path d="M15.383 5.058a.501.501 0 0 1-.373.853l-1.703-.066a.5.5 0 0 0-.409.188l-2.32 2.898.457.984a3 3 0 0 1-.352 3.106l-1.191 1.53a1 1 0 0 1-1.496.093L4.86 11.51.714 15.655l-.708-.707 4.147-4.147-3.135-3.135a1 1 0 0 1 .093-1.496l1.527-1.187a3 3 0 0 1 3.114-.35l.99.463 2.937-2.351a.5.5 0 0 0 .188-.37l.066-1.58L9.94.72a.501.501 0 0 1 .845-.26zm-4.517-2.64a1.5 1.5 0 0 1-.562 1.108l-3.18 2.546-.243.194-.281-.132-1.272-.594a2 2 0 0 0-2.075.232L1.725 6.959l6.978 6.978 1.19-1.53c.46-.592.551-1.392.235-2.072l-.587-1.263-.13-.28 2.706-3.384a1.5 1.5 0 0 1 1.228-.562l.427.015-2.888-2.887z"/></g><defs><clipPath id="clip0_392_2851"><path d="M0 0h16v16H0z"/></clipPath></defs></svg>