<svg xmlns="http://www.w3.org/2000/svg" viewBox="0 0 16 16" height="16px" width="16px" fill="currentColor" aria-hidden="true" role="img"><path fill-rule="evenodd" d="M15.206 5.234a.25.25 0 0 1-.187.425l-1.702-.063a.75.75 0 0 0-.614.28l-2.417 3.02.522 1.124a2.75 2.75 0 0 1-.323 2.846l-1.19 1.53a.75.75 0 0 1-1.122.071l-3.136-3.135-4.324 4.323-.707-.707 4.324-4.323L1.195 7.49a.75.75 0 0 1 .07-1.123L2.792 5.18a2.75 2.75 0 0 1 2.853-.32l1.13.528L9.837 2.94a.75.75 0 0 0 .281-.554l.066-1.582.013-.071a.25.25 0 0 1 .413-.096z" clip-rule="evenodd"/></svg>