<svg xmlns="http://www.w3.org/2000/svg" viewBox="0 0 16 16" height="16px" width="16px" fill="currentColor" aria-hidden="true" role="img"><path fill-rule="evenodd" d="M3.293.707a1 1 0 0 1 1.414 0l2.586 2.586q.094.095.16.207H10V2a1 1 0 0 1 1-1h4a1 1 0 0 1 1 1v4a1 1 0 0 1-1 1h-4a1 1 0 0 1-1-1V4.5H7.452a1 1 0 0 1-.159.207L4.707 7.293a1 1 0 0 1-.207.159V10H6a1 1 0 0 1 1 1v1.5h2v1H7V15a1 1 0 0 1-1 1H2a1 1 0 0 1-1-1v-4a1 1 0 0 1 1-1h1.5V7.452a1 1 0 0 1-.207-.16L.707 4.708a1 1 0 0 1 0-1.414zM13 10a3 3 0 1 1 0 6 3 3 0 0 1 0-6M2 15h4v-4H2zm11-4a2 2 0 1 0 0 4 2 2 0 0 0 0-4M1.414 4 4 6.586 6.586 4 4 1.414zM11 6h4V2h-4z" clip-rule="evenodd"/></svg>