<svg xmlns="http://www.w3.org/2000/svg" viewBox="0 0 16 16" height="16px" width="16px" fill="currentColor" aria-hidden="true" role="img"><path d="M2 4a1 1 0 0 1 .995.897L3 5v10l-.005.102a1 1 0 0 1-.892.893L2 16H1a1 1 0 0 1-1-1V5a1 1 0 0 1 1-1zm13.854 3.646-.707.708L13 6.207V8.5A4.5 4.5 0 0 1 8.5 13H6.207l2.147 2.146-.708.707L4.293 12.5l3.353-3.354.708.708L6.207 12H8.5A3.5 3.5 0 0 0 12 8.5V6.207L9.854 8.354l-.708-.708L12.5 4.293zM1 15h1V5H1zM2 0a1 1 0 0 1 1 1v1a1 1 0 0 1-.897.995L2 3H1l-.103-.005a1 1 0 0 1-.892-.892L0 2V1a1 1 0 0 1 1-1zm13 0a1 1 0 0 1 1 1v1a1 1 0 0 1-.898.995L15 3H5l-.103-.005a1 1 0 0 1-.892-.892L4 2V1a1 1 0 0 1 1-1zM1 2h1V1H1zm4 0h10V1H5z"/></svg>