<svg xmlns="http://www.w3.org/2000/svg" viewBox="0 0 16 16" height="16px" width="16px" fill="currentColor" aria-hidden="true" role="img"><path d="M8 0q.51.002 1 .072v1.012A6 6 0 0 0 2 7c0 1.538.58 2.938 1.531 4h8.938a5.97 5.97 0 0 0 1.446-5h1.013q.07.49.072 1a6.97 6.97 0 0 1-1.996 4.89L13 12c0 .74.403 1.383 1 1.73V16H2v-2.27c.597-.347 1-.99 1-1.73q-.001-.056-.005-.11A6.97 6.97 0 0 1 1 7a7 7 0 0 1 7-7M4 12c0 .351-.06.688-.172 1H8v1H3.231q-.11.122-.231.231V15h10v-.769c-.61-.546-1-1.341-1-2.231zM10.583.336c.096-.444.718-.45.818-.005l.033.146.01.043.034.136v.002a4 4 0 0 0 .117.36 4.1 4.1 0 0 0 .99 1.515 4 4 0 0 0 2.082 1.064c.444.078.444.727 0 .806l-.146.03h-.002a3.97 3.97 0 0 0-1.933 1.035 4.1 4.1 0 0 0-1.107 1.875v.002l-.035.132v.004l-.01.043-.033.144a.418.418 0 0 1-.818-.003l-.026-.124a4 4 0 0 0-.163-.562 4.1 4.1 0 0 0-.979-1.507A4 4 0 0 0 7.481 4.43H7.48l-.147-.03c-.443-.078-.443-.722 0-.801a4 4 0 0 0 .564-.143q.081-.027.162-.059a4 4 0 0 0 1.357-.869A4.1 4.1 0 0 0 10.501.686l.001-.002.04-.16V.522l.015-.062zM5.172 4.172A4 4 0 0 0 4 7H3c0-1.38.56-2.63 1.465-3.535zm5.824-1.798A5.2 5.2 0 0 1 9.39 4a5.16 5.16 0 0 1 1.607 1.626A5.2 5.2 0 0 1 12.611 4a5.2 5.2 0 0 1-1.615-1.626"/></svg>