<svg xmlns="http://www.w3.org/2000/svg" viewBox="0 0 16 16" height="16px" width="16px" fill="currentColor" aria-hidden="true" role="img"><path d="M11 14H5v-1h6zm0-2H5v-1h6zm2-5h-2V6h2z"/><path fill-rule="evenodd" d="M12.103.005A1 1 0 0 1 13 1v3h1a2 2 0 0 1 2 2v4a2 2 0 0 1-2 2h-1v3a1 1 0 0 1-.898.995L12 16H4a1 1 0 0 1-1-1v-3H2a2 2 0 0 1-2-2V6a2 2 0 0 1 2-2h1V1a1 1 0 0 1 1-1h8zM4 15h8V9H4zM2 5a1 1 0 0 0-1 1v4a1 1 0 0 0 1 1h1V8h10v3h1a1 1 0 0 0 1-1V6a1 1 0 0 0-1-1zm2-1h8V1H4z" clip-rule="evenodd"/></svg>