<svg xmlns="http://www.w3.org/2000/svg" viewBox="0 0 16 16" height="16px" width="16px" fill="currentColor" aria-hidden="true" role="img"><g clip-path="url(#clip0_482_3195)"><path d="M7 2h2V0h1v2h1a3 3 0 0 1 3 3v1h2v1h-2v2h2v1h-2v1a3 3 0 0 1-3 3h-1v2H9v-2H7v2H6v-2H5a3 3 0 0 1-3-3v-1H0V9h2V7H0V6h2V5a3 3 0 0 1 3-3h1V0h1zM5 3a2 2 0 0 0-2 2v6a2 2 0 0 0 2 2h6a2 2 0 0 0 2-2V5a2 2 0 0 0-2-2zm6 8H5V5h6zm-5-1h4V6H6z"/></g><defs><clipPath id="clip0_482_3195"><path d="M0 0h16v16H0z"/></clipPath></defs></svg>