<svg xmlns="http://www.w3.org/2000/svg" viewBox="0 0 16 16" height="16px" width="16px" fill="currentColor" aria-hidden="true" role="img"><path d="M7 2h2V0h1v2h1a3 3 0 0 1 3 3v1h2v1h-2v2h2v1h-2v1a3 3 0 0 1-3 3h-1v2H9v-2H7v2H6v-2H5a3 3 0 0 1-3-3v-1H0V9h2V7H0V6h2V5a3 3 0 0 1 3-3h1V0h1zM5 3a2 2 0 0 0-2 2v6a2 2 0 0 0 2 2h6a2 2 0 0 0 2-2V5a2 2 0 0 0-2-2zm3.062 2q.465 0 .9.107.438.108.78.33.34.224.544.562t.204.792a1.6 1.6 0 0 1-.355 1.031q-.166.215-.38.4l-.217.185-.224.183-1.556 1.205H10.5V11H5.643V9.845L8.26 7.78l.154-.138q.143-.14.244-.283a.8.8 0 0 0 .153-.478.64.64 0 0 0-.229-.508q-.228-.193-.606-.193a.9.9 0 0 0-.65.243 1 1 0 0 0-.272.487l-.028.152-1.526-.18.04-.217q.073-.315.24-.575.223-.347.565-.591.34-.243.782-.371Q7.568 5 8.062 5"/></svg>