<svg xmlns="http://www.w3.org/2000/svg" viewBox="0 0 16 16" height="16px" width="16px" fill="currentColor" aria-hidden="true" role="img"><g clip-path="url(#clip0_482_3132)"><path d="M2 0a2 2 0 0 1 2 2v1h12v13H2a2 2 0 0 1-2-2V2a2 2 0 0 1 2-2m2 15h11V4H4zm-2-2a1 1 0 0 0-.995.898L1 14a1 1 0 0 0 1 1h1v-1a1 1 0 0 0-1-1m10.429-7.741A1.75 1.75 0 0 1 14 7l-.009.179A1.75 1.75 0 0 1 12.25 8.75l-.179-.009a1.75 1.75 0 0 1-1.173-.632L8.49 9.313q.01.093.011.187l-.009.179q-.012.101-.034.199l2.398 1.066c.32-.421.825-.694 1.395-.694l.179.009A1.75 1.75 0 0 1 14 12l-.009.179a1.75 1.75 0 0 1-1.741 1.571l-.179-.009a1.75 1.75 0 0 1-1.566-1.858l-2.538-1.13a1.74 1.74 0 0 1-1.217.497l-.179-.009A1.75 1.75 0 0 1 6.75 7.75l.179.009c.471.048.886.284 1.172.63l2.409-1.203a1.75 1.75 0 0 1 1.74-1.936zm-.179 5.991a.75.75 0 1 0 0 1.5.75.75 0 0 0 0-1.5M2 1a1 1 0 0 0-1 1v10.27a1.99 1.99 0 0 1 2 0V2a1 1 0 0 0-1-1m4.75 7.75a.75.75 0 1 0 0 1.5.75.75 0 0 0 0-1.5m5.5-2.5a.75.75 0 1 0 0 1.5.75.75 0 0 0 0-1.5"/></g><defs><clipPath id="clip0_482_3132"><path d="M0 0h16v16H0z"/></clipPath></defs></svg>