<svg xmlns="http://www.w3.org/2000/svg" viewBox="0 0 16 16" height="16px" width="16px" fill="currentColor" aria-hidden="true" role="img"><path fill-rule="evenodd" d="M16 14q-.03.54-.328.77-.297.23-.672.23H4q-.625 0-.875-.5A1.3 1.3 0 0 1 3 14v-2H1q-.54-.03-.77-.328A1.07 1.07 0 0 1 0 11V2q0-.625.5-.875.219-.11.5-.125h11q.625 0 .875.5.11.22.125.5v2h2q.54.03.77.328.117.152.175.323Q16 4.816 16 5zM1 11h11V2H1.023A.4.4 0 0 0 1 2.148zm13.977-6H13v6a.99.99 0 0 1-1 1H4v2h10.977l.023-.125v-8.75q0-.102-.023-.125M3.844 7.477q-.727-.188-1.047-.38a11 11 0 0 1-.328-.199l.539-.726q0 .024.347.191.348.168.739.246 1.187.266 2.086-.414 1.243-.976 2.914-.586.703.157 1.027.356.325.2.34.207l-.531.726a3.7 3.7 0 0 0-1.086-.437q-1.203-.273-2.098.418-.894.69-2.02.691a5 5 0 0 1-.882-.093m-.59 2.273a14 14 0 0 1-.672-.336 1 1 0 0 0-.113-.062l.539-.743q.461.306 1.086.446Q5.28 9.32 6.18 8.64q1.25-.969 2.914-.594.71.172 1.031.367t.336.195l-.531.743q0-.032-.985-.504-.984-.473-2.187.472a3.23 3.23 0 0 1-2.031.703q-.907 0-1.473-.273M3.25 4.848q-.563-.27-.668-.336a1 1 0 0 0-.113-.067l.539-.726q.429.28 1.086.43 1.187.265 2.086-.415 1.243-.967 2.914-.586.765.173 1.367.57l-.531.727A3.6 3.6 0 0 0 8.828 4q-1.164-.273-2.07.414a3.17 3.17 0 0 1-2.031.703q-.915 0-1.477-.27" clip-rule="evenodd"/></svg>