<svg xmlns="http://www.w3.org/2000/svg" viewBox="0 0 16 16" height="16px" width="16px" fill="currentColor" aria-hidden="true" role="img"><path d="M3.5 0A2.5 2.5 0 0 1 4 4.95v6.1a2.501 2.501 0 1 1-1 0v-6.1A2.5 2.5 0 0 1 3.5 0m6.854.854L9.207 2H10.5A2.5 2.5 0 0 1 13 4.5v6.55a2.501 2.501 0 1 1-1 0V4.5A1.5 1.5 0 0 0 10.5 3H9.207l1.146 1.146-.707.708L7.293 2.5 9.646.146zM3.5 12a1.5 1.5 0 1 0 0 3 1.5 1.5 0 0 0 0-3m9 0a1.5 1.5 0 1 0 0 3 1.5 1.5 0 0 0 0-3m-9-11a1.5 1.5 0 1 0 0 3 1.5 1.5 0 0 0 0-3"/></svg>