<svg xmlns="http://www.w3.org/2000/svg" viewBox="0 0 16 16" height="16px" width="16px" fill="currentColor" aria-hidden="true" role="img"><path d="M14 1a2 2 0 0 1 2 2v11a2 2 0 0 1-2 2H2a2 2 0 0 1-2-2V3a2 2 0 0 1 2-2zM2 2a1 1 0 0 0-1 1v11a1 1 0 0 0 1 1h12a1 1 0 0 0 1-1V4H5V3h10a1 1 0 0 0-1-1zm6 3.281a4.219 4.219 0 0 1 3.293 6.856l-.048.048 1.3 1.317h-1.161l-.722-.73A4.219 4.219 0 0 1 4.76 6.799l.014-.017q.262-.308.576-.562A4.2 4.2 0 0 1 8 5.28m0 .866a3.34 3.34 0 0 0-2.038.692q-.32.245-.574.56l-.016.02a3.353 3.353 0 0 0 4.678 4.733l.033-.025q.31-.246.554-.558A3.353 3.353 0 0 0 8 6.147M3 3c.4 0 .75.35.75.75S3.4 4.5 3 4.5s-.75-.35-.75-.75S2.6 3 3 3"/></svg>