<svg xmlns="http://www.w3.org/2000/svg" viewBox="0 0 16 16" height="16px" width="16px" fill="currentColor" aria-hidden="true" role="img"><path d="m9.559 14.826.221.975a8 8 0 0 1-3.56 0l.221-.975v-.003A7 7 0 0 0 8 15c.536 0 1.057-.063 1.558-.177zm-7.486-3.102a7 7 0 0 0 2.202 2.202v.002l-.533.846a8 8 0 0 1-2.516-2.516zm11.855 0 .846.534a8 8 0 0 1-2.516 2.516l-.533-.846-.001-.002a7 7 0 0 0 2.202-2.202zM1.174 6.442h.002a7 7 0 0 0 0 3.117h-.002l-.975.222a8 8 0 0 1 0-3.56zM15.8 6.22a8 8 0 0 1 0 3.56l-.975-.221-.003-.001A7 7 0 0 0 15 8c0-.536-.063-1.057-.177-1.559h.003zM4.275 2.072za7 7 0 0 0-2.202 2.202l-.847-.533a8 8 0 0 1 2.516-2.516zm7.983-.846a8 8 0 0 1 2.516 2.516l-.846.533h-.002a7 7 0 0 0-2.202-2.202zM8 0c.61 0 1.207.069 1.78.2l-.221.974-.001.002a7 7 0 0 0-3.117 0v-.002L6.22.199A8 8 0 0 1 8 0"/></svg>