<svg xmlns="http://www.w3.org/2000/svg" viewBox="0 0 16 16" height="16px" width="16px" fill="currentColor" aria-hidden="true" role="img"><path d="m4.94 6.628.413.083a2 2 0 0 1 1.395 2.858L6.532 10H8.28a1.5 1.5 0 0 1 1.471 1.794l-.6 3A1.5 1.5 0 0 1 7.681 16H1l-.103-.005a1 1 0 0 1-.892-.893L0 15v-4a1 1 0 0 1 .897-.995L1 10h1l.103.005c.172.017.33.08.465.174l1.837-3.304.177-.318zM1 15h1v-4H1zm2-3.537V15h4.68a.5.5 0 0 0 .49-.402l.6-3A.5.5 0 0 0 8.28 11H4.911l.363-.725.58-1.155a1 1 0 0 0-.697-1.429l-.055-.011zM13.68 0a1.5 1.5 0 0 1 1.471 1.206l.6 3A1.5 1.5 0 0 1 14.281 6h-1.749l.216.43a2 2 0 0 1-1.396 2.86l-.412.082-.358.071-.177-.318-1.837-3.304a1 1 0 0 1-.465.173L8 6H7l-.103-.005a1 1 0 0 1-.513-.207 3 3 0 0 0-.263-.312A1 1 0 0 1 6 4.999v-4l.005-.103a1 1 0 0 1 .892-.892L7-.001h1zM9 4.537l2.102 3.783.055-.011a1 1 0 0 0 .697-1.43l-.58-1.154L10.911 5h3.37a.5.5 0 0 0 .49-.598l-.6-3A.5.5 0 0 0 13.68 1H9zM7 5h1V1H7z"/></svg>