<svg xmlns="http://www.w3.org/2000/svg" viewBox="0 0 16 16" height="16px" width="16px" fill="currentColor" aria-hidden="true" role="img"><path d="M8 0a8 8 0 1 1 0 16A8 8 0 0 1 8 0m0 1a7 7 0 1 0 0 14A7 7 0 0 0 8 1m.879 11.414.096.49a5 5 0 0 1-1.95 0l.096-.49.097-.49a4 4 0 0 0 1.564 0zm-4.206-2.192a4 4 0 0 0 1.105 1.105l-.556.83a5 5 0 0 1-1.38-1.38zm7.484.555a5 5 0 0 1-1.38 1.38l-.555-.83a4 4 0 0 0 1.105-1.105zM3.586 7.121zl.491.097a4 4 0 0 0 0 1.564l-.491.096-.49.097a5 5 0 0 1 0-1.95zm9.317-.097a5 5 0 0 1 0 1.95l-.489-.095v-.001l-.49-.096a4 4 0 0 0 0-1.564l.49-.097zM5.778 4.673a4 4 0 0 0-1.105 1.105l-.831-.556a5 5 0 0 1 1.38-1.38zm5-.831a5 5 0 0 1 1.38 1.38l-.83.556a4 4 0 0 0-1.106-1.105zM8 3q.502 0 .975.096l-.095.487-.098.493a4 4 0 0 0-1.564 0l-.098-.493-.096-.487Q7.5 3 8 3"/></svg>