<svg xmlns="http://www.w3.org/2000/svg" viewBox="0 0 16 16" height="16px" width="16px" fill="currentColor" aria-hidden="true" role="img"><path d="m8.879 12.414.096.49a5 5 0 0 1-1.95 0l.193-.98a4 4 0 0 0 1.564 0zm-4.206-2.192a4 4 0 0 0 1.105 1.105l-.556.83a5 5 0 0 1-1.38-1.38zm7.484.555a5 5 0 0 1-1.38 1.38l-.555-.83a4 4 0 0 0 1.105-1.105zM4.076 7.218a4 4 0 0 0 0 1.564l-.491.096-.49.097a5 5 0 0 1 0-1.95zm8.827-.194a5 5 0 0 1 0 1.95l-.489-.095-.49-.097a4 4 0 0 0 0-1.564zM5.778 4.673a4 4 0 0 0-1.105 1.105l-.831-.556a5 5 0 0 1 1.38-1.38zm4.999-.831a5 5 0 0 1 1.38 1.38l-.83.556a4 4 0 0 0-1.105-1.105zM8 3q.502 0 .975.096l-.095.487-.098.493a4 4 0 0 0-1.564 0l-.098-.493-.096-.487Q7.5 3 8 3"/><path fill-rule="evenodd" d="M8 0a8 8 0 1 1 0 16A8 8 0 0 1 8 0m0 1a7 7 0 1 0 0 14A7 7 0 0 0 8 1" clip-rule="evenodd"/></svg>