<svg xmlns="http://www.w3.org/2000/svg" viewBox="0 0 16 16" height="16px" width="16px" fill="currentColor" aria-hidden="true" role="img"><path d="M7 16H0v-1h7zm5.364-10.293a2 2 0 1 1 2.828 2.828l-4.663 4.663a2.1 2.1 0 0 1-1.003.562l-2.348.565a.5.5 0 0 1-.604-.603l.566-2.35a2.1 2.1 0 0 1 .56-1.002zm-3.956 5.37a1.1 1.1 0 0 0-.297.53l-.374 1.554 1.556-.374c.2-.048.384-.15.53-.296l3.37-3.37-1.415-1.414zM6 1c2.761 0 5 .86 5 1.923L10.996 3h.009v2.495L9.128 7.372c-.857.265-1.944.423-3.128.423-1.633 0-3.083-.301-3.995-.767V9H2v.097a1 1 0 0 0 .065.068c.13.118.373.269.758.417.764.294 1.887.497 3.177.497q.24 0 .474-.01l-.378 1.01H6c-2.761 0-5-.86-5-1.923L1.005 7V5.954L1 5.872l.005-2.156v-.71L1 2.924C1 1.86 3.239 1 6 1m8.485 5.414a1 1 0 0 0-1.414 0L12.485 7 13.9 8.414l.586-.586a1 1 0 0 0 0-1.414m-4.48-2.34c-.912.469-2.367.772-4.005.772-1.633 0-3.083-.301-3.995-.767v1.74l.06.062c.13.118.373.269.758.417.764.294 1.887.497 3.177.497s2.413-.203 3.177-.497c.385-.148.628-.3.758-.417A1 1 0 0 0 10 5.812v-.096h.005zM6 2c-1.29 0-2.413.203-3.177.497-.385.148-.628.3-.758.417l-.008.009.008.009c.13.117.373.27.758.418.764.293 1.887.496 3.177.496s2.413-.203 3.177-.496c.385-.148.627-.3.757-.418l.01-.01-.01-.008c-.13-.118-.373-.269-.757-.417C8.413 2.203 7.29 2 6 2"/></svg>