<svg xmlns="http://www.w3.org/2000/svg" viewBox="0 0 16 16" height="16px" width="16px" fill="currentColor" aria-hidden="true" role="img"><g clip-path="url(#clip0_380_2725)"><path d="M8 0c4.4 0 8 3.6 8 8s-3.6 8-8 8-8-3.6-8-8 3.6-8 8-8m0 1C4.152 1 1 4.152 1 8s3.152 7 7 7 7-3.152 7-7-3.152-7-7-7m3.354 4.354L8.707 8l2.646 2.646-.707.707L8 8.708l-2.646 2.646-.708-.707L7.293 8 4.646 5.354l.708-.708L8 7.293l2.646-2.647z"/></g><defs><clipPath id="clip0_380_2725"><path d="M0 0h16v16H0z"/></clipPath></defs></svg>