<svg xmlns="http://www.w3.org/2000/svg" viewBox="0 0 16 16" height="16px" width="16px" fill="currentColor" aria-hidden="true" role="img"><g clip-path="url(#clip0_393_2927)"><path d="M9.354 0c.197 0 .37.12.443.297l.024.08.268 1.23q.328.106.642.247l.312.148 1.06-.68a.48.48 0 0 1 .523.003l.073.06 1.915 1.916a.48.48 0 0 1 .108.512l-.043.084-.681 1.06q.157.308.28.629l.116.325 1.229.268a.48.48 0 0 1 .37.383l.007.084v2.708a.48.48 0 0 1-.297.443l-.08.025-1.23.267a7 7 0 0 1-.247.643l-.148.312.68 1.058c.105.163.1.368-.003.524l-.06.073-1.916 1.916a.48.48 0 0 1-.512.107l-.085-.043-1.059-.681a7 7 0 0 1-.63.28l-.324.116-.268 1.23a.48.48 0 0 1-.383.37L9.354 16H6.646a.48.48 0 0 1-.444-.297l-.024-.079-.267-1.23a7 7 0 0 1-.643-.248l-.312-.148-1.059.68a.48.48 0 0 1-.523-.003l-.073-.06L1.385 12.7a.48.48 0 0 1-.107-.512l.043-.085.68-1.058-.02-.044h1.08a.5.5 0 0 1-.032.227l-.04.077-.62.965 1.362 1.362.965-.62a.48.48 0 0 1 .49-.015c.401.226.829.403 1.27.527a.47.47 0 0 1 .31.274l.027.083.244 1.12h1.926l.244-1.12a.48.48 0 0 1 .336-.357c.442-.124.869-.3 1.27-.527a.48.48 0 0 1 .414-.025l.077.04.965.62 1.362-1.362-.621-.965a.48.48 0 0 1-.014-.492c.226-.4.403-.827.527-1.269a.48.48 0 0 1 .274-.31l.082-.026L15 8.963V7.037l-1.121-.244a.48.48 0 0 1-.356-.336 5.7 5.7 0 0 0-.527-1.27.48.48 0 0 1-.026-.414l.04-.077.62-.965-1.36-1.361-.965.62a.48.48 0 0 1-.492.015 5.7 5.7 0 0 0-1.269-.526.48.48 0 0 1-.31-.275l-.026-.083L8.963 1H7.037l-.244 1.12a.48.48 0 0 1-.337.358c-.441.123-.869.3-1.27.526a.48.48 0 0 1-.413.025l-.077-.04-.965-.62L2.37 3.731l.62.965A.48.48 0 0 1 3.063 5H1.98L2 4.957l-.68-1.06a.48.48 0 0 1 .004-.523l.06-.073L3.3 1.386a.48.48 0 0 1 .512-.108l.084.043 1.06.68q.307-.155.629-.28l.325-.115.267-1.229a.48.48 0 0 1 .385-.37L6.646 0zm1.353 8-3.353 3.354-.708-.707L8.793 8.5H0v-1h8.793L6.646 5.354l.708-.708z"/></g><defs><clipPath id="clip0_393_2927"><path d="M0 0h16v16H0z"/></clipPath></defs></svg>