<svg xmlns="http://www.w3.org/2000/svg" viewBox="0 0 16 16" height="16px" width="16px" fill="currentColor" aria-hidden="true" role="img"><path fill-rule="evenodd" d="M2.5 14.21a.5.5 0 0 0 .762.426l1.261-.776.262.426.263.425-1.262.777c-1 .615-2.286-.105-2.286-1.279v-1.551h1zm7.332-3.03.262.426-2.524 1.553-.523-.852 2.522-1.553zm4.046-4.458a1.5 1.5 0 0 1 0 2.555l-1.262.776-.523-.851 1.261-.777a.5.5 0 0 0 0-.851l-1.261-.777.523-.851zM2.5 9.552h-1V6.447h1zm7.594-5.159-.262.426-.263.426-2.522-1.553.523-.852zM1.5 1.79A1.501 1.501 0 0 1 3.786.51l1.262.777-.263.425-.262.426-1.261-.776a.5.5 0 0 0-.762.427V3.34h-1z" clip-rule="evenodd"/></svg>