<svg xmlns="http://www.w3.org/2000/svg" viewBox="0 0 16 16" height="16px" width="16px" fill="currentColor" aria-hidden="true" role="img"><path fill-rule="evenodd" d="M16 2.7V.3q0-.3-.3-.3h-2.4q-.3 0-.3.3V1H3V.3Q3 0 2.7 0H.3Q0 0 0 .3v2.4q0 .3.3.3H1v10H.3q-.3 0-.3.3v2.4q0 .3.3.3h2.4q.3 0 .3-.3V15h10v.7q0 .3.3.3h2.4q.3 0 .3-.3v-2.4q0-.3-.3-.3H15V3h.7q.3 0 .3-.3M13.3 13q-.3 0-.3.3v.7H3v-.7q0-.3-.3-.3H2V3h.7Q3 3 3 2.7V2h10v.7q0 .3.3.3h.7v10zM8 4H4v4l1.5-1.5 4 4L8 12h4V8l-1.5 1.5-4-4z" clip-rule="evenodd"/></svg>