<svg xmlns="http://www.w3.org/2000/svg" viewBox="0 0 16 16" height="16px" width="16px" fill="currentColor" aria-hidden="true" role="img"><path d="M5.5 11C6.9 11 8 12.1 8 13.5S6.9 16 5.5 16 3 14.9 3 13.5 4.1 11 5.5 11m0 1c-.848 0-1.5.652-1.5 1.5S4.652 15 5.5 15 7 14.348 7 13.5 6.348 12 5.5 12m7-7C14.4 5 16 6.6 16 8.5S14.4 12 12.5 12 9 10.4 9 8.5 10.6 5 12.5 5m0 1C11.152 6 10 7.152 10 8.5s1.152 2.5 2.5 2.5S15 9.848 15 8.5 13.848 6 12.5 6M4 0c2.2 0 4 1.8 4 4S6.2 8 4 8 0 6.2 0 4s1.8-4 4-4m0 1C2.352 1 1 2.352 1 4s1.352 3 3 3 3-1.352 3-3-1.352-3-3-3"/></svg>