<svg xmlns="http://www.w3.org/2000/svg" viewBox="0 0 16 16" height="16px" width="16px" fill="currentColor" aria-hidden="true" role="img"><path fill-rule="evenodd" d="M8.5 16h-1v-1.018A7 7 0 0 1 1.018 8.5H0v-1h1.018A7 7 0 0 1 7.5 1.018V0h1v1.018a7 7 0 0 1 6.481 6.465L16 7.475v1l-1.016.008a7 7 0 0 1-6.484 6.5zm-1-2.5a.5.5 0 0 1 1 0v.48a6 6 0 0 0 5.48-5.488l-.48.004a.496.496 0 0 1-.5-.492V8c0-.277.223-.502.5-.504l.479-.004A6 6 0 0 0 8.5 2.02v.48a.5.5 0 0 1-1 0v-.48A6 6 0 0 0 2.02 7.5h.48a.5.5 0 0 1 0 1h-.48a6 6 0 0 0 5.48 5.48zM4 8a4 4 0 1 1 8 0 4 4 0 0 1-8 0m7 0a3 3 0 1 0-6 0 3 3 0 0 0 6 0M6.5 8a1.5 1.5 0 1 1 3 0 1.5 1.5 0 0 1-3 0" clip-rule="evenodd"/></svg>