<svg xmlns="http://www.w3.org/2000/svg" viewBox="0 0 16 16" height="16px" width="16px" fill="currentColor" aria-hidden="true" role="img"><path d="m14.206 10.463-.334.372-2.25 2.5-.316.35-2.01-1.607.626-.781 1.271 1.016 1.935-2.148.335-.371z"/><path fill-rule="evenodd" d="M11.5 7a4.5 4.5 0 1 1 0 9 4.5 4.5 0 0 1 0-9m0 1a3.5 3.5 0 1 0 0 7 3.5 3.5 0 0 0 0-7" clip-rule="evenodd"/><path fill-rule="evenodd" d="M12 1a2 2 0 0 1 2 2v1h-3v2.023q-.517.047-1 .185V3c0-.364.097-.706.268-1H6a2 2 0 0 0-2 2v7h2.023a5.6 5.6 0 0 0 0 1H1a1 1 0 0 0 1 1h4.208q.149.524.394 1H2a2 2 0 0 1-2-2v-1h3V4a3 3 0 0 1 3-3zm0 1a1 1 0 0 0-.59.193l-.01.007a1 1 0 0 0-.149.138A1 1 0 0 0 11 3h2a1 1 0 0 0-1-1" clip-rule="evenodd"/></svg>