<svg xmlns="http://www.w3.org/2000/svg" viewBox="0 0 16 16" height="16px" width="16px" fill="currentColor" aria-hidden="true" role="img"><g clip-path="url(#clip0_378_2681)"><path d="M6 0a6 6 0 0 1 5.415 8.585l4.103 4a1.5 1.5 0 0 1 .012 2.136l-.707.707a1.5 1.5 0 0 1-2.107.012l-4.13-4.026A6 6 0 1 1 6 0m4.89 9.472a6 6 0 0 1-1.412 1.415l3.935 3.838c.196.19.51.189.703-.004l.707-.707a.5.5 0 0 0-.004-.712zM6 1a5 5 0 1 0 0 10A5 5 0 0 0 6 1"/></g><defs><clipPath id="clip0_378_2681"><path d="M0 0h16v16H0z"/></clipPath></defs></svg>