<svg xmlns="http://www.w3.org/2000/svg" viewBox="0 0 16 16" height="16px" width="16px" fill="currentColor" aria-hidden="true" role="img"><path d="M1 14.5a.5.5 0 0 0 .5.5H3v1H1.5A1.5 1.5 0 0 1 0 14.5V13h1zm9 1.5H6v-1h4zm6-1.5a1.5 1.5 0 0 1-1.5 1.5H13v-1h1.5a.5.5 0 0 0 .5-.5V13h1zm-.097-6.004-.345.354-2.5 2.552-.715-.699 1.663-1.698-3.03.01A2.986 2.986 0 0 0 8 12H7a3.985 3.985 0 0 1 3.972-3.985l3.025-.01-1.65-1.651.707-.708zM1 10H0V6h1zm2-9H1.5a.5.5 0 0 0-.5.5V3H0V1.5A1.5 1.5 0 0 1 1.5 0H3zm11.5-1A1.5 1.5 0 0 1 16 1.5V3h-1V1.5a.5.5 0 0 0-.5-.5H13V0zM10 1H6V0h4z"/></svg>