<svg xmlns="http://www.w3.org/2000/svg" viewBox="0 0 16 16" height="16px" width="16px" fill="currentColor" aria-hidden="true" role="img"><g clip-path="url(#clip0_482_2959)"><path d="M3 5H1v10h10v-2h1v2a1 1 0 0 1-1 1H1a1 1 0 0 1-1-1V5a1 1 0 0 1 1-1h2zm12-5a1 1 0 0 1 1 1v10a1 1 0 0 1-1 1H5a1 1 0 0 1-1-1V1a1 1 0 0 1 1-1zM5 11h10V1H5zm8.36-6.653-3.857 4-.36.374-.36-.374L6.64 6.125 7 5.777l.36-.346 1.783 1.848 3.497-3.626z"/></g><defs><clipPath id="clip0_482_2959"><path d="M0 0h16v16H0z"/></clipPath></defs></svg>