<svg xmlns="http://www.w3.org/2000/svg" viewBox="0 0 16 16" height="16px" width="16px" fill="currentColor" aria-hidden="true" role="img"><path d="M10.103.005A1 1 0 0 1 11 1v14a1 1 0 0 1-.898.995L10 16H6a1 1 0 0 1-1-1V1a1 1 0 0 1 1-1h4zM6 15h4v-4H6zm-5-2.5a.5.5 0 0 0 .5.5H3v1H1.5A1.5 1.5 0 0 1 0 12.5V11h1zm15 0a1.5 1.5 0 0 1-1.5 1.5H13v-1h1.5a.5.5 0 0 0 .5-.5V11h1zM6 10h4V6H6zM1 9H0V7h1zm15 0h-1V7h1zM3 3H1.5a.5.5 0 0 0-.5.5V5H0V3.5A1.5 1.5 0 0 1 1.5 2H3zm3 2h4V1H6zm8.5-3A1.5 1.5 0 0 1 16 3.5V5h-1V3.5a.5.5 0 0 0-.5-.5H13V2z"/></svg>