<svg xmlns="http://www.w3.org/2000/svg" viewBox="0 0 16 16" height="16px" width="16px" fill="currentColor" aria-hidden="true" role="img"><path d="M1 14.5a.5.5 0 0 0 .5.5H3v1H1.5A1.5 1.5 0 0 1 0 14.5V13h1zm9 1.5H6v-1h4zM8.646 6.646a4.036 4.036 0 0 1 5.708 5.708l-.647.646H16v1h-4v-4h1v2.293l.646-.646a3.036 3.036 0 1 0-4.292 0l.5.5-.708.707-.5-.5a4.036 4.036 0 0 1 0-5.708M1 10H0V6h1zm2-9H1.5a.5.5 0 0 0-.5.5V3H0V1.5A1.5 1.5 0 0 1 1.5 0H3zm11.5-1A1.5 1.5 0 0 1 16 1.5V3h-1V1.5a.5.5 0 0 0-.5-.5H13V0zM10 1H6V0h4z"/></svg>