<svg xmlns="http://www.w3.org/2000/svg" viewBox="0 0 16 16" height="16px" width="16px" fill="currentColor" aria-hidden="true" role="img"><path d="M1 14.5a.5.5 0 0 0 .5.5H3v1H1.5A1.5 1.5 0 0 1 0 14.5V13h1zm9 .5v1H6v-1zm.065-10a4.06 4.06 0 0 1 4.066 4.065c0 .798-.209 1.544-.624 2.19l2.375 2.376c.25.25.063.813-.188 1.063-.25.25-.813.438-1.063.188l-2.368-2.368c-.599.411-1.347.617-2.198.617A4.06 4.06 0 0 1 6 9.065 4.057 4.057 0 0 1 10.065 5m0 1.001c-.813 0-1.564.312-2.189.875-.563.625-.875 1.376-.875 2.19 0 .812.312 1.563.875 2.125.625.626 1.376.939 2.19.939.812 0 1.563-.313 2.188-.876.563-.563.876-1.313.876-2.189a2.98 2.98 0 0 0-.876-2.127c-.625-.625-1.376-.937-2.189-.937M1 10H0V6h1zm2-9H1.5a.5.5 0 0 0-.5.5V3H0V1.5A1.5 1.5 0 0 1 1.5 0H3zm11.5-1A1.5 1.5 0 0 1 16 1.5V3h-1V1.5a.5.5 0 0 0-.5-.5H13V0zM10 1H6V0h4z"/></svg>