<svg xmlns="http://www.w3.org/2000/svg" viewBox="0 0 16 16" height="16px" width="16px" fill="currentColor" aria-hidden="true" role="img"><path d="M1 14.5a.5.5 0 0 0 .5.5H3v1H1.5A1.5 1.5 0 0 1 0 14.5V13h1zm9 .5v1H6v-1zm6-.5a1.5 1.5 0 0 1-1.5 1.5H13v-1h1.5a.5.5 0 0 0 .5-.5V13h1zM12 3a1 1 0 0 1 1 1v8a1 1 0 0 1-1 1H4a1 1 0 0 1-1-1V4a1 1 0 0 1 1-1zm-8 9h8V4H4zm-3-2H0V6h1zm15 0h-1V6h1zM3 1H1.5a.5.5 0 0 0-.5.5V3H0V1.5A1.5 1.5 0 0 1 1.5 0H3zm11.5-1A1.5 1.5 0 0 1 16 1.5V3h-1V1.5a.5.5 0 0 0-.5-.5H13V0zM10 1H6V0h4z"/></svg>