<svg xmlns="http://www.w3.org/2000/svg" viewBox="0 0 16 16" height="16px" width="16px" fill="currentColor" aria-hidden="true" role="img"><path d="M9.354 0c.197 0 .37.12.443.297l.025.08.267 1.23q.327.106.643.247l.312.148 1.058-.68a.48.48 0 0 1 .524.003l.073.06 1.916 1.916a.48.48 0 0 1 .107.512l-.043.084-.681 1.06q.157.308.28.629l.116.325 1.23.268a.48.48 0 0 1 .37.383l.006.084v2.708a.48.48 0 0 1-.297.443l-.079.025-1.23.267a7 7 0 0 1-.248.643l-.148.312.68 1.058c.105.163.1.368-.003.524l-.06.073-1.916 1.916a.48.48 0 0 1-.512.107l-.085-.043-1.058-.681a7 7 0 0 1-.63.28l-.325.116-.267 1.23a.48.48 0 0 1-.384.37L9.354 16H6.646a.48.48 0 0 1-.443-.297l-.024-.079-.268-1.23a7 7 0 0 1-.643-.248l-.311-.148-1.06.68a.48.48 0 0 1-.523-.003l-.073-.06L1.386 12.7a.48.48 0 0 1-.108-.512l.043-.085.68-1.058a7 7 0 0 1-.28-.63l-.115-.325-1.229-.267a.48.48 0 0 1-.37-.384L0 9.354V6.646c0-.197.12-.37.297-.443l.08-.024 1.23-.268q.106-.327.247-.643l.148-.311-.68-1.06a.48.48 0 0 1 .003-.523l.06-.073 1.916-1.915a.48.48 0 0 1 .512-.108l.084.043 1.06.68a7 7 0 0 1 .629-.28l.325-.115L6.18.377a.48.48 0 0 1 .383-.37L6.647 0zM6.793 2.12a.48.48 0 0 1-.336.358c-.442.123-.87.3-1.27.526a.48.48 0 0 1-.414.025l-.077-.04-.965-.62L2.37 3.731l.62.965a.48.48 0 0 1 .015.492c-.226.4-.403.827-.526 1.269a.48.48 0 0 1-.275.31l-.083.026L1 7.037v1.926l1.121.244c.172.038.31.167.357.336.123.442.3.869.526 1.27.072.127.08.28.026.414l-.04.077-.62.965 1.36 1.361.965-.62a.48.48 0 0 1 .492-.015c.4.226.827.403 1.269.527a.48.48 0 0 1 .31.274l.026.083.244 1.12h1.926l.244-1.12a.48.48 0 0 1 .336-.357c.442-.124.87-.3 1.27-.527a.48.48 0 0 1 .414-.025l.077.04.965.62 1.362-1.362-.62-.965a.48.48 0 0 1-.015-.492c.226-.4.403-.827.527-1.269a.48.48 0 0 1 .274-.31l.083-.026L15 8.963V7.037l-1.121-.244a.48.48 0 0 1-.356-.336 5.7 5.7 0 0 0-.527-1.27.48.48 0 0 1-.026-.414l.04-.077.62-.965-1.36-1.361-.965.62a.48.48 0 0 1-.492.015 5.7 5.7 0 0 0-1.269-.526.48.48 0 0 1-.31-.275l-.026-.083L8.963 1H7.037zM8 4.5a3.5 3.5 0 1 1 0 7 3.5 3.5 0 0 1 0-7m0 1a2.5 2.5 0 1 0 0 5 2.5 2.5 0 0 0 0-5"/></svg>