<svg xmlns="http://www.w3.org/2000/svg" viewBox="0 0 16 16" height="16px" width="16px" fill="currentColor" aria-hidden="true" role="img"><g clip-path="url(#clip0_394_2943)"><path d="M8 0a2 2 0 0 1 1.986 1.776 7.25 7.25 0 0 1 5.092 8.541 1.999 1.999 0 0 1-1.901 3.504A7.23 7.23 0 0 1 8 16a7.23 7.23 0 0 1-5.179-2.18c-.25.114-.528.18-.821.18a1.999 1.999 0 0 1-1.078-3.683 7.253 7.253 0 0 1 5.09-8.541A2 2 0 0 1 8 0m1.842 2.777A2 2 0 0 1 8 4a2 2 0 0 1-1.843-1.223 6.25 6.25 0 0 0-4.28 7.229Q1.937 10 2 10c1.103 0 2 .897 2 2 0 .446-.15.857-.397 1.19A6.23 6.23 0 0 0 8 15a6.23 6.23 0 0 0 4.397-1.81A2 2 0 0 1 12 12c0-1.103.897-2 2-2q.062 0 .122.006.126-.61.128-1.256a6.25 6.25 0 0 0-4.408-5.973M2 11a1 1 0 0 0-1 1 1.001 1.001 0 0 0 1.92.392 1 1 0 0 0-.79-1.383l-.04-.005A1 1 0 0 0 2 11m12 0a1 1 0 0 0-.868 1.494A1 1 0 0 0 15 12a1 1 0 0 0-.233-.642l-.074-.078a1 1 0 0 0-.58-.273zM8 1a1 1 0 0 0 0 2 1 1 0 0 0 0-2"/></g><defs><clipPath id="clip0_394_2943"><path d="M0 0h16v16H0z"/></clipPath></defs></svg>