<svg xmlns="http://www.w3.org/2000/svg" viewBox="0 0 16 16" height="16px" width="16px" fill="currentColor" aria-hidden="true" role="img"><path d="M7.999 2c2.545 0 4.508 1.543 5.89 3 .8.857 1.526 1.886 2.108 3a13.8 13.8 0 0 1-2.108 3c-1.382 1.457-3.345 3-5.89 3s-4.509-1.543-5.89-3A13.8 13.8 0 0 1 0 8a13.8 13.8 0 0 1 2.108-3C3.49 3.543 5.454 2 8 2m0 1C5.88 3 4.166 4.284 2.84 5.682c-.625.67-1.205 1.46-1.698 2.318a12.7 12.7 0 0 0 1.699 2.317C4.166 11.715 5.88 13 7.999 13s3.832-1.285 5.158-2.683A12.6 12.6 0 0 0 14.855 8a12.7 12.7 0 0 0-1.698-2.317v-.001C11.831 4.285 10.118 3 8 3m0 1.5a3.5 3.5 0 1 1 0 7 3.5 3.5 0 0 1 0-7m0 1a2.5 2.5 0 1 0 0 5 2.5 2.5 0 0 0 0-5m-.707 1.793a1 1 0 1 1 1.414 1.414 1 1 0 0 1-1.414-1.414"/></svg>