<svg xmlns="http://www.w3.org/2000/svg" viewBox="0 0 16 16" height="16px" width="16px" fill="currentColor" aria-hidden="true" role="img"><path fill-rule="evenodd" d="M5.57.168a1.98 1.98 0 0 1 1.429.862c.662.962.672 2.569-.025 4.631a28.8 28.8 0 0 1-2.778 5.88 20 20 0 0 1-1.36 1.923c.33.403.653.675.948.852.368.22.73.178 1.12-.079.412-.271.805-.76 1.098-1.308.7-1.31 1.546-2.779 2.256-3.725a6 6 0 0 1 .524-.625c.163-.166.348-.326.546-.42.205-.097.53-.165.819.063.235.185.315.477.348.705.097.658.116 1.32.136 1.848.01.27.02.502.04.694a3 3 0 0 0 .028.198c.277-.2.723-.647 1.415-1.485a3.38 3.38 0 0 1 2.298-1.242 3.7 3.7 0 0 1 1.113.053l.076.017.023.006.008.002h.003v.001c0 .005-.012.05-.135.482l-.136.48h-.006q-.011-.004-.04-.01a2.8 2.8 0 0 0-.802-.035 2.38 2.38 0 0 0-1.63.883c-.735.89-1.283 1.458-1.7 1.729-.202.13-.476.26-.775.202-.34-.067-.512-.33-.594-.527a2.4 2.4 0 0 1-.14-.652 12 12 0 0 1-.046-.757c-.02-.492-.039-1.028-.106-1.563l-.027.026a5 5 0 0 0-.44.528c-.66.88-1.476 2.29-2.174 3.595-.338.632-.83 1.277-1.43 1.672-.623.41-1.404.569-2.183.102a4.6 4.6 0 0 1-1.102-.947c-.47.497-.941.907-1.403 1.197l-.532-.848c.42-.263.872-.661 1.335-1.169-.374-.596-.729-1.335-1.042-2.244-.791-2.3-.376-4.723.4-6.648a12 12 0 0 1 1.368-2.498c.481-.661.997-1.19 1.459-1.452l.01-.006.01-.004C4.381.245 5 .1 5.568.168m-.12.993c-.316-.038-.73.036-1.214.28-.277.16-.686.551-1.132 1.164a11 11 0 0 0-1.25 2.285c-.723 1.792-1.068 3.952-.381 5.947.243.706.506 1.284.774 1.757.367-.473.739-1.004 1.102-1.583a27.8 27.8 0 0 0 2.677-5.67c.673-1.989.53-3.19.149-3.743a.98.98 0 0 0-.725-.437" clip-rule="evenodd"/></svg>