<svg xmlns="http://www.w3.org/2000/svg" viewBox="0 0 16 16" height="16px" width="16px" fill="currentColor" aria-hidden="true" role="img"><path d="M2 16H1v-4h1zm6 0H7v-4h1zm6 0h-1v-4h1zm-9-1.5H4V12h1zm6 0h-1V12h1zM5.5 3a.5.5 0 0 1 .5.5v3a.5.5 0 0 1-1 0v-3a.5.5 0 0 1 .5-.5m2 0a.5.5 0 0 1 .5.5v3a.5.5 0 0 1-1 0v-3a.5.5 0 0 1 .5-.5"/><path fill-rule="evenodd" d="M8.5 0A2.5 2.5 0 0 1 11 2.5V3h3a2 2 0 0 1 0 4h-3v.5A2.5 2.5 0 0 1 8.5 10h-4A2.5 2.5 0 0 1 2 7.5V7a2 2 0 1 1 0-4v-.5A2.5 2.5 0 0 1 4.5 0zm-4 1A1.5 1.5 0 0 0 3 2.5v5A1.5 1.5 0 0 0 4.5 9h4A1.5 1.5 0 0 0 10 7.5v-5A1.5 1.5 0 0 0 8.5 1zM2 4a1 1 0 0 0 0 2zm9 2h3a1 1 0 1 0 0-2h-3z" clip-rule="evenodd"/></svg>