<svg xmlns="http://www.w3.org/2000/svg" viewBox="0 0 16 16" height="16px" width="16px" fill="currentColor" aria-hidden="true" role="img"><path d="M8 0a1.998 1.998 0 0 1 .5 3.934V6H10l.102.005A1 1 0 0 1 11 7v.19l1.105-.552A2 2 0 1 1 14 8a2 2 0 0 1-1.342-.52L11 8.308V11l-.005.102a1 1 0 0 1-.03.156l1.02 1.02a2 2 0 1 1-.707.707l-1.02-1.02a1 1 0 0 1-.155.03L10 12H6a1 1 0 0 1-.274-.04l-1.025.993C4.89 13.258 5 13.616 5 14a2 2 0 1 1-1.019-1.741l1.05-1.017a1 1 0 0 1-.026-.14L5 11V8.321l-1.723-.784a2 2 0 1 1 .59-.83L5 7.224V7a1 1 0 0 1 1-1h1.5V3.934A1.998 1.998 0 0 1 8 0M3 13a1 1 0 1 0 0 2 1 1 0 0 0 0-2m10 0a1 1 0 1 0 0 2 1 1 0 0 0 0-2m-7-2h4V7H6zM2 5a1 1 0 1 0 0 2 1 1 0 0 0 0-2m12 0a1 1 0 1 0 0 2 1 1 0 0 0 0-2M8 1a1 1 0 1 0 0 2 1 1 0 0 0 0-2"/></svg>