<svg xmlns="http://www.w3.org/2000/svg" viewBox="0 0 16 16" height="16px" width="16px" fill="currentColor" aria-hidden="true" role="img"><path d="M11.5 10c.808 0 1.504.135 2.14.418.635.282 1.184.699 1.713 1.229l-.707.707c-.47-.47-.92-.804-1.412-1.022-.488-.217-1.042-.332-1.734-.332s-1.246.115-1.734.332c-.491.218-.942.551-1.412 1.021-.53.53-1.08.947-1.713 1.229-.637.283-1.333.418-2.141.418s-1.504-.135-2.14-.418c-.635-.282-1.184-.699-1.714-1.229l.708-.707c.47.471.92.804 1.412 1.022.488.217 1.042.332 1.734.332s1.246-.115 1.734-.332c.491-.218.942-.551 1.412-1.021.53-.53 1.08-.947 1.713-1.229.637-.283 1.333-.418 2.141-.418m0-4c.808 0 1.504.135 2.14.418.635.282 1.184.699 1.713 1.228l-.707.708c-.47-.47-.92-.804-1.412-1.022C12.746 7.115 12.192 7 11.5 7s-1.246.115-1.734.332c-.491.218-.942.551-1.412 1.022-.53.529-1.08.946-1.713 1.228C6.004 9.865 5.308 10 4.5 10s-1.504-.135-2.14-.418C1.724 9.3 1.175 8.883.645 8.354l.708-.708c.47.471.92.804 1.412 1.022C3.254 8.885 3.808 9 4.5 9s1.246-.115 1.734-.332c.491-.218.942-.551 1.412-1.022.53-.529 1.08-.946 1.713-1.228C9.996 6.135 10.692 6 11.5 6m0-4c.808 0 1.504.135 2.14.418.635.282 1.184.699 1.713 1.228l-.707.708c-.47-.47-.92-.804-1.412-1.022C12.746 3.115 12.192 3 11.5 3s-1.246.115-1.734.332c-.491.218-.942.551-1.412 1.022-.53.529-1.08.946-1.713 1.228C6.004 5.865 5.308 6 4.5 6s-1.504-.135-2.14-.418C1.724 5.3 1.175 4.883.645 4.354l.708-.708c.47.471.92.804 1.412 1.022C3.254 4.885 3.808 5 4.5 5s1.246-.115 1.734-.332c.491-.218.942-.551 1.412-1.022.53-.529 1.08-.946 1.713-1.228C9.996 2.135 10.692 2 11.5 2"/></svg>