<svg xmlns="http://www.w3.org/2000/svg" viewBox="0 0 16 16" height="16px" width="16px" fill="currentColor" aria-hidden="true" role="img"><path d="M8.196 4v2.282a1.7 1.7 0 0 1 1.181-.455c1.171 0 1.936.992 1.936 2.511 0 1.717-1.013 2.69-2.065 2.69-.437 0-.778-.119-1.052-.43v.311H6.488V4zm6.295 1.827c.596 0 1.112.218 1.45.555l-.775 1.053c-.218-.179-.397-.239-.576-.239-.635 0-1.012.477-1.012 1.231s.417 1.231.953 1.231c.317 0 .576-.159.794-.317L16 10.413c-.496.436-1.152.615-1.668.615-1.41 0-2.501-.953-2.501-2.6 0-1.649 1.25-2.601 2.66-2.601M4.031 4l1.965 6.909H4.189l-.318-1.37H2.065l-.318 1.37H0L1.965 4zm4.84 3.216c-.258 0-.457.1-.675.358V9.4a.9.9 0 0 0 .635.238c.397 0 .735-.317.735-1.27 0-.814-.239-1.152-.695-1.152M2.978 5.727h-.04c-.139.655-.298 1.43-.456 2.045l-.11.447h1.192l-.11-.447c-.158-.615-.317-1.4-.476-2.045"/></svg>