<svg xmlns="http://www.w3.org/2000/svg" viewBox="0 0 16 16" height="16px" width="16px" fill="currentColor" aria-hidden="true" role="img"><path d="M15 10h-2.11q.109.454.11.994 0 1.095-.595 2.003-.594.909-1.72 1.466Q9.583 15 8.012 15q-1.401 0-2.718-.517A7.1 7.1 0 0 1 3 13.018l1.443-1.631a6.4 6.4 0 0 0 1.7 1.115 4.8 4.8 0 0 0 1.91.412q1.189 0 1.804-.474.616-.476.617-1.26-.001-.806-.562-1.18H1V9h14zM8.287 1q1.21 0 2.335.475 1.125.454 1.932 1.239l-1.252 1.528A5.7 5.7 0 0 0 9.9 3.396a4.1 4.1 0 0 0-1.613-.31q-.977 0-1.593.434-.594.412-.594 1.156 0 .516.297.867.319.33.828.578.51.227 1.083.454l1.89.764q.668.282 1.205.661H5.64a8 8 0 0 1-.559-.35A3.85 3.85 0 0 1 4.02 6.491Q3.615 5.79 3.615 4.8q0-1.075.595-1.921.616-.867 1.656-1.362Q6.928 1 8.287 1"/></svg>