<svg xmlns="http://www.w3.org/2000/svg" viewBox="0 0 16 16" height="16px" width="16px" fill="currentColor" aria-hidden="true" role="img"><path d="M9 8c.352 0 .68.026 1 .07.557.075 1.085.205 1.65.343C12.772 8.688 14.044 9 16 9v5q-.531 0-1-.028c-1.412-.084-2.431-.333-3.35-.559-.565-.138-1.093-.268-1.65-.344V16H9zm4-6a2 2 0 0 1 2 2v4h-1V4a1 1 0 0 0-.062-.349L8.354 7.517a1.5 1.5 0 0 1-1.708 0L1.063 3.65A1 1 0 0 0 1 4v7a1 1 0 0 0 1 1h6v1H2a2 2 0 0 1-2-2V4a2 2 0 0 1 2-2zm-3 10.062c.676.081 1.291.233 1.89.38l.352.085c.782.188 1.637.372 2.758.443V9.973c-1.34-.075-2.352-.29-3.227-.5q-.187-.045-.362-.09c-.52-.126-.965-.235-1.411-.304zM1.888 3.006l5.328 3.69a.5.5 0 0 0 .568 0l5.328-3.69A1 1 0 0 0 13 3H2q-.057 0-.112.006"/></svg>