<svg xmlns="http://www.w3.org/2000/svg" viewBox="0 0 16 16" height="16px" width="16px" fill="currentColor" aria-hidden="true" role="img"><path fill-rule="evenodd" d="M8 1C4.893 1 1.983 3.158 1.203 6H3a1 1 0 0 1 1 1v4a1 1 0 0 1-1 1H1a1 1 0 0 1-1-1V7a1 1 0 0 1 .05-.31C.511 2.894 4.171 0 8 0s7.488 2.895 7.95 6.69A1 1 0 0 1 16 7v4a1 1 0 0 1-1 1h-.527A4.5 4.5 0 0 1 10 16H7a1 1 0 0 1-1-1v-1a1 1 0 0 1 1-1h2a1 1 0 0 1 1 1v1a3.5 3.5 0 0 0 3.465-3H13a1 1 0 0 1-1-1V7a1 1 0 0 1 1-1h1.797c-.78-2.842-3.69-5-6.797-5m1 14v-1H7v1zm5.978-8H13v4h2V7.5q0-.252-.022-.5M1.022 7A6 6 0 0 0 1 7.5V11h2V7z" clip-rule="evenodd"/></svg>