<svg xmlns="http://www.w3.org/2000/svg" viewBox="0 0 16 16" height="16px" width="16px" fill="currentColor" aria-hidden="true" role="img"><path d="M1 13.6c0 .22.18.4.4.4H2v1H1a1 1 0 0 1-1-1v-1h1zM7 15H4v-1h3zm5 0H9v-1h3zm4-1a1 1 0 0 1-1 1h-1v-1h.6a.4.4 0 0 0 .4-.4V13h1zm-4.5-7a.5.5 0 0 1 .5.5v4l-.01.1a.5.5 0 0 1-.49.4h-7l-.1-.01a.5.5 0 0 1-.39-.39L4 11.5v-4a.5.5 0 0 1 .4-.49L4.5 7zM1 11H0V8h1zm4 0h6V8H5zm11 0h-1V8h1zM15 1a1 1 0 0 1 1 1v4h-1V5H5V2H1.5a.5.5 0 0 0-.5.5V6H0V2a1 1 0 0 1 1-1zM6 4h4V2H6zm5 0h4V2.5a.5.5 0 0 0-.5-.5H11z"/></svg>