<svg xmlns="http://www.w3.org/2000/svg" viewBox="0 0 16 16" height="16px" width="16px" fill="currentColor" aria-hidden="true" role="img"><path d="m14.206 10.463-.334.372-2.25 2.5-.316.35-2.01-1.607.626-.781 1.271 1.016 1.935-2.148.335-.371z"/><path fill-rule="evenodd" d="M11.5 7a4.5 4.5 0 1 1 0 9 4.5 4.5 0 0 1 0-9m0 1a3.5 3.5 0 1 0 0 7 3.5 3.5 0 0 0 0-7" clip-rule="evenodd"/><path fill-rule="evenodd" d="M12 1a1 1 0 0 1 1 1v4.207a5.5 5.5 0 0 0-1-.185V5H9v1.6a5.5 5.5 0 0 0-1 .657V5H5v6h1.022a5.6 5.6 0 0 0 0 1H1l-.103-.005a1 1 0 0 1-.892-.893L0 11V2a1 1 0 0 1 1-1zM1 11h3V5H1zm0-7h11V2H1z" clip-rule="evenodd"/></svg>