<svg xmlns="http://www.w3.org/2000/svg" viewBox="0 0 16 16" height="16px" width="16px" fill="currentColor" aria-hidden="true" role="img"><path d="M11.5 7a4.5 4.5 0 1 1 0 9 4.5 4.5 0 0 1 0-9m0 1a3.5 3.5 0 1 0 0 7 3.5 3.5 0 0 0 0-7m2.706 2.463-.334.372-2.25 2.5-.316.35-.368-.294-1.641-1.313.625-.781.39.312.881.704 1.935-2.148.335-.371zM12 1a1 1 0 0 1 1 1v4.207a5.5 5.5 0 0 0-1-.185V5H9v1.6a5.5 5.5 0 0 0-1 .657V5H5v6h1.022a5.6 5.6 0 0 0 0 1H1l-.103-.005a1 1 0 0 1-.892-.893L0 11V2a1 1 0 0 1 1-1zM1 11h3V5H1zm0-7h11V2H1z"/></svg>