<svg xmlns="http://www.w3.org/2000/svg" viewBox="0 0 16 16" height="16px" width="16px" fill="currentColor" aria-hidden="true" role="img"><path d="M8.5 13a1.5 1.5 0 1 1 0 3 1.5 1.5 0 0 1 0-3m0 1a.5.5 0 1 0 0 1 .5.5 0 0 0 0-1m6.5 1h-4v-1h4zm-1-2.5h-3v-1h3zM11.667 0C12.403 0 13 .597 13 1.333V7h-1V4H9v3H8V4H5v6h1v1H1.333A1.333 1.333 0 0 1 0 9.667V1.333C0 .597.597 0 1.333 0zM8.5 8a1.5 1.5 0 1 1 0 3 1.5 1.5 0 0 1 0-3M1 9.667c0 .184.15.333.333.333H4V4H1zM8.5 9a.5.5 0 1 0 0 1 .5.5 0 0 0 0-1m6.5 1h-4V9h4zM1.333 1A.333.333 0 0 0 1 1.333V3h11V1.333A.333.333 0 0 0 11.667 1z"/></svg>