<svg xmlns="http://www.w3.org/2000/svg" viewBox="0 0 16 16" height="16px" width="16px" fill="currentColor" aria-hidden="true" role="img"><path d="M12.063 7.938a1 1 0 0 1 1.58.22l1.49 2.683.068.15a1 1 0 0 1-.128.916l-.106.127-1.114 1.112 2 2-.707.707-2-2-1.112 1.114-.127.106a1 1 0 0 1-.916.128l-.15-.067-2.682-1.49a1 1 0 0 1-.304-1.49l.082-.091.71-.71-1-1 .707-.707 1 1 1.293-1.292-1-1 .707-.708 1 1zM8.645 12.77l2.682 1.49 2.933-2.933-1.49-2.682zM12 1a1 1 0 0 1 1 1v4.207a5.5 5.5 0 0 0-1-.185V5H9v1.6a5.5 5.5 0 0 0-1 .657V5H5v6h1.022a5.6 5.6 0 0 0 0 1H1l-.103-.005a1 1 0 0 1-.892-.893L0 11V2a1 1 0 0 1 1-1zM1 11h3V5H1zm0-7h11V2H1z"/></svg>