<svg xmlns="http://www.w3.org/2000/svg" viewBox="0 0 16 16" height="16px" width="16px" fill="currentColor" aria-hidden="true" role="img"><g clip-path="url(#clip0_482_2975)"><path d="M7.617 0a1 1 0 0 1 .707.293l7.373 7.373a1.033 1.033 0 0 1 0 1.461l-6.57 6.57a1.033 1.033 0 0 1-1.461 0L.293 8.324A1 1 0 0 1 0 7.617V1a1 1 0 0 1 1-1zM1.25 1a.25.25 0 0 0-.25.25v6.138c0 .066.026.13.073.176l7.194 7.166a.25.25 0 0 0 .352 0l6.096-6.106a.25.25 0 0 0 0-.353L7.577 1.074A.25.25 0 0 0 7.398 1zm2.043 2.293a1 1 0 1 1 1.414 1.414 1 1 0 0 1-1.414-1.414"/></g><defs><clipPath id="clip0_482_2975"><path d="M0 0h16v16H0z"/></clipPath></defs></svg>