<svg xmlns="http://www.w3.org/2000/svg" viewBox="0 0 16 16" height="16px" width="16px" fill="currentColor" aria-hidden="true" role="img"><g fill-rule="evenodd" clip-path="url(#clip0_389_2831)" clip-rule="evenodd"><path d="M14 8.5a6.5 6.5 0 1 1-5.142-6.358l.82-.82a7.5 7.5 0 1 0 5 5l-.82.82q.14.658.142 1.358M8 4.027A4.5 4.5 0 1 0 11.973 8h-1.008q.035.245.035.5a3.5 3.5 0 1 1-3-3.465z"/><path d="m10.354 6.354-2 2-.708-.708 2-2z"/><path d="M7.5 9a.5.5 0 1 0 0-1 .5.5 0 0 0 0 1m0 1a1.5 1.5 0 1 0 0-3 1.5 1.5 0 0 0 0 3M12.69.827a.5.5 0 0 0-.853-.354l-2.69 2.69A.5.5 0 0 0 9 3.517V7h3.483a.5.5 0 0 0 .354-.147l2.69-2.69a.5.5 0 0 0-.354-.853H12.69zM10 6h2.276l1.69-1.69H11.69V2.034L10 3.724z"/></g><defs><clipPath id="clip0_389_2831"><path d="M0 0h16v16H0z"/></clipPath></defs></svg>