<svg xmlns="http://www.w3.org/2000/svg" viewBox="0 0 16 16" height="16px" width="16px" fill="currentColor" aria-hidden="true" role="img"><path d="M14.793 10.293a1 1 0 0 1 0 1.414l-3 3-.073.066a1 1 0 0 1-.535.222l-.1.005H5l-.103-.005A1 1 0 0 1 4 14v-1h1v1h6.086l3-3-1.043-1.043.707-.707zm-2-3a1 1 0 0 1 0 1.414l-3 3-.073.066a1 1 0 0 1-.535.222l-.1.005H3l-.103-.005A1 1 0 0 1 2 11v-1h1v1h6.086l3-3-1.043-1.043.707-.707zM7.185 1.005a1 1 0 0 1 .608.288l3 3a1 1 0 0 1 0 1.414l-3 3-.073.066a1 1 0 0 1-.535.222l-.1.005H1l-.103-.005A1 1 0 0 1 0 8V2a1 1 0 0 1 1-1h6.086zM1 8h6.086l3-3-3-3H1z"/></svg>