<svg xmlns="http://www.w3.org/2000/svg" viewBox="0 0 16 16" height="16px" width="16px" fill="currentColor" aria-hidden="true" role="img"><path fill-rule="evenodd" d="M16 2h-1v12h1v1h-3v-1h1V2h-1V1h3zm-5.882 3.812q1.105 0 1.645.66.552.648.552 1.884v3.492h-1.14l-.097-.648h-.048a4.3 4.3 0 0 1-.851.564 2.1 2.1 0 0 1-.973.228q-.768 0-1.26-.48-.48-.48-.48-1.248 0-.948.828-1.464.829-.528 2.64-.72a1.4 1.4 0 0 0-.251-.804q-.228-.348-.829-.348a2.3 2.3 0 0 0-.852.168q-.408.168-.804.408l-.504-.924A6 6 0 0 1 8.8 6.04a3.8 3.8 0 0 1 1.32-.228m-3.4 6.036H5.256l-.611-2.124H2.004l-.612 2.124H-.023L2.532 4h1.632zm4.215-2.904q-1.2.156-1.668.468-.468.3-.468.744 0 .397.24.576.24.18.611.18.36 0 .649-.168.3-.18.636-.48zM3.3 5.08q-.156.66-.336 1.32-.168.648-.36 1.272l-.276.96h2.004l-.276-.96a42 42 0 0 1-.372-1.284L3.348 5.08z" clip-rule="evenodd"/></svg>