<svg xmlns="http://www.w3.org/2000/svg" viewBox="0 0 16 16" height="16px" width="16px" fill="currentColor" aria-hidden="true" role="img"><path d="M6.103 9.005A1 1 0 0 1 7 10v4l-.005.102a1 1 0 0 1-.892.893L6 15H1l-.103-.005a1 1 0 0 1-.892-.893L0 14v-4a1 1 0 0 1 1-1h5zm9 0A1 1 0 0 1 16 10v4l-.005.102a1 1 0 0 1-.893.893L15 15h-5l-.103-.005a1 1 0 0 1-.892-.893L9 14v-4a1 1 0 0 1 1-1h5zM10 14h5v-4h-5zm-9 0h5v-4H1zM6.103 1.005A1 1 0 0 1 7 2v4l-.005.103a1 1 0 0 1-.892.892L6 7H1l-.103-.005a1 1 0 0 1-.892-.892L0 6V2a1 1 0 0 1 1-1h5zm9 0A1 1 0 0 1 16 2v4l-.005.103a1 1 0 0 1-.893.892L15 7h-5l-.103-.005a1 1 0 0 1-.892-.892L9 6V2a1 1 0 0 1 1-1h5zM1 6h5V2H1zm9 0h5V2h-5z"/></svg>