<svg xmlns="http://www.w3.org/2000/svg" viewBox="0 0 16 16" height="16px" width="16px" fill="currentColor" aria-hidden="true" role="img"><path fill-rule="evenodd" d="M7 2a2 2 0 0 1 2 2v3.587a1.496 1.496 0 0 1 1.764.606 1.5 1.5 0 0 1 2.183.913A1.5 1.5 0 0 1 15 10.5v3.73a4.5 4.5 0 0 1-.323 1.671l-.714 1.785-.928-.372.714-1.785a3.5 3.5 0 0 0 .25-1.3V10.5a.5.5 0 0 0-1 0h-1v-1a.5.5 0 0 0-1 0v.5h-1V9a.5.5 0 0 0-1 0v1H8V4a1 1 0 0 0-2 0v9a.5.5 0 0 1-.91.287l-2.03-2.901a1.026 1.026 0 0 0-1.745 1.074l3.125 5.803-.88.474-3.124-5.802a2.03 2.03 0 0 1-.029-1.867C1.094 8.695 3 8.555 3.88 9.813L5 11.414V4a2 2 0 0 1 2-2m0-2a4 4 0 0 1 4 4v.5h-1V4a3 3 0 0 0-6 0v.5H3V4a4 4 0 0 1 4-4" clip-rule="evenodd"/></svg>