<svg xmlns="http://www.w3.org/2000/svg" viewBox="0 0 16 16" height="16px" width="16px" fill="currentColor" aria-hidden="true" role="img"><path d="M15 9a1 1 0 0 1 1 1v4a1 1 0 0 1-1 1h-4a1 1 0 0 1-1-1v-4a1 1 0 0 1 1-1zm-4 5h4v-4h-4zM3.888 9.496q.215.54.51 1.032A6.15 6.15 0 0 1-.529 13H-2v-1h1.47a5.15 5.15 0 0 0 4.418-2.504M-.53 3a6.15 6.15 0 0 1 6.018 4.898A5.15 5.15 0 0 0 9 11.768v1.04a6.15 6.15 0 0 1-4.49-4.706A5.15 5.15 0 0 0-.53 4H-1V3zM15 1a1 1 0 0 1 1 1v4a1 1 0 0 1-1 1h-4a1 1 0 0 1-1-1V2a1 1 0 0 1 1-1zM9 4.231a5.16 5.16 0 0 0-2.888 2.273 7 7 0 0 0-.51-1.032A6.16 6.16 0 0 1 9 3.192zM11 6h4V2h-4z"/></svg>