<svg xmlns="http://www.w3.org/2000/svg" viewBox="0 0 16 16" height="16px" width="16px" fill="currentColor" aria-hidden="true" role="img"><path fill-rule="evenodd" d="M1.47 3a6.15 6.15 0 0 1 6.02 4.898A5.15 5.15 0 0 0 12.53 12h1.556l-1.621-1.621.707-.707L16 12.5l-2.828 2.828-.707-.707L14.085 13H12.53a6.15 6.15 0 0 1-6.018-4.898A5.15 5.15 0 0 0 1.47 4H0V3zm4.418 6.495q.215.541.51 1.033A6.15 6.15 0 0 1 1.471 13H0v-1h1.47a5.15 5.15 0 0 0 4.418-2.505M16 3.5l-2.828 2.828-.707-.707L14.085 4H12.53c-1.85 0-3.508.985-4.417 2.504a7 7 0 0 0-.51-1.032A6.15 6.15 0 0 1 12.529 3h1.557l-1.621-1.621.707-.708z" clip-rule="evenodd"/></svg>