<svg xmlns="http://www.w3.org/2000/svg" viewBox="0 0 16 16" height="16px" width="16px" fill="currentColor" aria-hidden="true" role="img"><path fill-rule="evenodd" d="M16 2.7V.3q0-.3-.3-.3h-2.4q-.3 0-.3.3V1H9V.3Q9 0 8.7 0H7.3Q7 0 7 .3V1H3V.3Q3 0 2.7 0H.3Q0 0 0 .3v2.4q0 .3.3.3H1v4H.3Q0 7 0 7.3v1.4q0 .3.3.3H1v4H.3q-.3 0-.3.3v2.4q0 .3.3.3h2.4q.3 0 .3-.3V15h4v.7q0 .3.3.3h1.4q.3 0 .3-.3V15h4v.7q0 .3.3.3h2.4q.3 0 .3-.3v-2.4q0-.3-.3-.3H15V9h.7q.3 0 .3-.3V7.3q0-.3-.3-.3H15V3h.7q.3 0 .3-.3M13.3 7q-.3 0-.3.3v1.4q0 .3.3.3h.7v4h-.7q-.3 0-.3.3v.7H9v-.7q0-.3-.3-.3H7.3q-.3 0-.3.3v.7H3v-.7q0-.3-.3-.3H2V9h.7Q3 9 3 8.7V7.3Q3 7 2.7 7H2V3h.7Q3 3 3 2.7V2h4v.7q0 .3.3.3h1.4Q9 3 9 2.7V2h4v.7q0 .3.3.3h.7v4z" clip-rule="evenodd"/></svg>