<svg xmlns="http://www.w3.org/2000/svg" viewBox="0 0 16 16" height="16px" width="16px" fill="currentColor" aria-hidden="true" role="img"><path d="M3.103.005A1 1 0 0 1 4 1v2l-.005.103A1 1 0 0 1 3 4h-.5v3H5a1 1 0 0 1 1-1h2l.103.005A1 1 0 0 1 9 7v2l-.005.103A1 1 0 0 1 8 10H6a1 1 0 0 1-1-1V8H2.5v4.5a.5.5 0 0 0 .5.5h2a1 1 0 0 1 1-1h2l.103.005A1 1 0 0 1 9 13v2l-.005.102A1 1 0 0 1 8 16H6a1 1 0 0 1-1-1v-1H3a1.5 1.5 0 0 1-1.5-1.5V4H1a1 1 0 0 1-1-1V1a1 1 0 0 1 1-1h2zM6 15h2v-2H6zm10-1h-5v-1h5zM6 9h2V7H6zm10-1h-5V7h5zM1 3h2V1H1zm10 0H6V2h5z"/></svg>