<svg xmlns="http://www.w3.org/2000/svg" viewBox="0 0 16 16" height="16px" width="16px" fill="currentColor" aria-hidden="true" role="img"><path fill-rule="evenodd" d="M7.756.063a.5.5 0 0 1 .56.05l.852.697a7.5 7.5 0 0 0 4.07 1.665l.307.027A.5.5 0 0 1 14 3v5.157a7.5 7.5 0 0 1-3.474 6.327L8.27 15.922a.5.5 0 0 1-.538 0l-2.257-1.438A7.5 7.5 0 0 1 2 8.157V3l.009-.095a.5.5 0 0 1 .446-.403l.307-.027A7.5 7.5 0 0 0 6.832.81l.852-.697zm-.291 1.52A8.5 8.5 0 0 1 3 3.454v4.704a6.5 6.5 0 0 0 3.01 5.485L8 14.907l1.99-1.265A6.5 6.5 0 0 0 13 8.157V3.453a8.5 8.5 0 0 1-4.465-1.87L8 1.146zm4.253 4.892L7.12 11.07 4.646 8.596l.708-.707L7.12 9.657l3.89-3.89z" clip-rule="evenodd"/></svg>