<svg xmlns="http://www.w3.org/2000/svg" viewBox="0 0 16 16" height="16px" width="16px" fill="currentColor" aria-hidden="true" role="img"><path d="M6.602 2a5.5 5.5 0 0 0-.394 1H2.802l-1.555 7h13.506l-.205-.923q.47-.313.865-.715l.493 2.216q.092.194.094.422v4l-.005.102A1 1 0 0 1 15 16H1l-.103-.005a1 1 0 0 1-.892-.893L0 15v-4c0-.15.033-.294.093-.422l1.733-7.795A1 1 0 0 1 2.802 2zM1 15h14v-4H1zm13-2h-2v-1h2zM11.5 0a4.5 4.5 0 1 1 0 9 4.5 4.5 0 0 1 0-9m0 1a3.5 3.5 0 1 0 0 7 3.5 3.5 0 0 0 0-7m1.854 2.354L12.207 4.5l1.146 1.146-.707.708L11.5 5.207l-1.146 1.147-.708-.708L10.793 4.5 9.646 3.354l.707-.708L11.5 3.793l1.146-1.147z"/></svg>