<svg xmlns="http://www.w3.org/2000/svg" viewBox="0 0 16 16" height="16px" width="16px" fill="currentColor" aria-hidden="true" role="img"><path d="M7 4H1v10.5a.5.5 0 0 0 .5.5H12V9h1v6a1 1 0 0 1-.898.995L12 16H1.5a1.5 1.5 0 0 1-1.492-1.347L0 14.5V4a1 1 0 0 1 1-1h6zm-2 6a1 1 0 0 1 1 1v2l-.005.102A1 1 0 0 1 5 14H3a1 1 0 0 1-1-1v-2a1 1 0 0 1 1-1zm5 0a1 1 0 0 1 1 1v2l-.005.102A1 1 0 0 1 10 14H8a1 1 0 0 1-1-1v-2a1 1 0 0 1 1-1zm-7 3h2v-2H3zm5 0h2v-2H8zM5 5a1 1 0 0 1 1 1v2l-.005.103A1 1 0 0 1 5 9H3a1 1 0 0 1-1-1V6a1 1 0 0 1 1-1zM3 8h2V6H3zm12.001-6.5L15 6.001h-.5L13.999 6l-.001-3.292-4.644 4.646a.5.5 0 0 1-.708-.708L13.292 2H10V1h5.001z"/></svg>