<svg xmlns="http://www.w3.org/2000/svg" viewBox="0 0 16 16" height="16px" width="16px" fill="currentColor" aria-hidden="true" role="img"><path d="M3.103 1.005c.143.015.278.06.397.13A1 1 0 0 1 4 1h2l.103.005q.216.024.397.13A1 1 0 0 1 7 1h8l.102.005A1 1 0 0 1 16 2v2l-.005.103a1 1 0 0 1-.893.892L15 5H7v9l-.005.102A1 1 0 0 1 6 15H4a1 1 0 0 1-.5-.135A1 1 0 0 1 3 15H1a1 1 0 0 1-.995-.898L0 14V2a1 1 0 0 1 1-1h2zM15 13H9.771l1.082 1.082-.707.707L7.858 12.5l2.29-2.29.707.708L9.77 12H14V6h1zM1 14h2V2H1zm3 0h2V2H4zM7 4h8V2H7z"/></svg>