<svg xmlns="http://www.w3.org/2000/svg" viewBox="0 0 16 16" height="16px" width="16px" fill="currentColor" aria-hidden="true" role="img"><path fill-rule="evenodd" d="M7.346.232c.381-.31.927-.31 1.308 0l.812.66c.2.163.453.244.709.231l.11-.012 1.031-.165c.486-.078.959.195 1.134.655l.373.976c.106.276.324.494.6.6l.976.373c.46.175.733.648.655 1.134l-.165 1.03-.012.111c-.014.256.067.509.23.71l.66.81c.31.382.31.928 0 1.31l-.66.81-.064.09c-.14.214-.195.475-.154.73l.165 1.031c.078.486-.195.959-.655 1.134l-.976.373-.1.045a1.04 1.04 0 0 0-.5.555l-.373.976-.036.084a1.04 1.04 0 0 1-1.098.57l-1.03-.164a1.04 1.04 0 0 0-.82.218l-.812.66-.073.055c-.35.237-.812.237-1.162 0l-.073-.054-.812-.66a1.04 1.04 0 0 0-.82-.22l-1.03.166-.091.01c-.423.03-.822-.2-1.007-.58l-.036-.085-.373-.976a1.04 1.04 0 0 0-.5-.555l-.1-.045-.976-.373a1.04 1.04 0 0 1-.665-1.043l.01-.09.165-1.032a1.04 1.04 0 0 0-.154-.73l-.064-.09-.66-.81a1.04 1.04 0 0 1-.055-1.236l.054-.073.66-.812a1.04 1.04 0 0 0 .22-.82l-.166-1.03a1.04 1.04 0 0 1 .57-1.098l.085-.036.976-.373c.276-.106.494-.324.6-.6l.373-.976c.175-.46.648-.733 1.134-.655l1.03.165c.256.041.517-.014.731-.154l.09-.064zm.63.777-.81.659a2.04 2.04 0 0 1-1.61.43l-1.032-.164a.04.04 0 0 0-.04.023l-.373.977c-.206.542-.635.97-1.177 1.177l-.977.372a.04.04 0 0 0-.023.041l.165 1.033a2.04 2.04 0 0 1-.431 1.609l-.66.81a.04.04 0 0 0 0 .047l.66.81c.366.451.523 1.037.43 1.61l-.164 1.033a.04.04 0 0 0 .023.04l.977.373c.542.207.97.635 1.177 1.177l.372.977a.04.04 0 0 0 .041.023l1.033-.165a2.04 2.04 0 0 1 1.61.431l.81.66a.04.04 0 0 0 .046 0l.811-.66a2.04 2.04 0 0 1 1.61-.43l1.032.164a.04.04 0 0 0 .04-.023l.373-.977c.207-.542.635-.97 1.178-1.177l.976-.372a.04.04 0 0 0 .024-.041l-.166-1.033a2.04 2.04 0 0 1 .431-1.61l.66-.81a.04.04 0 0 0 0-.046l-.66-.811a2.04 2.04 0 0 1-.43-1.61l.165-1.032a.04.04 0 0 0-.024-.04l-.976-.373a2.04 2.04 0 0 1-1.178-1.177l-.372-.977a.04.04 0 0 0-.041-.023l-1.033.165a2.04 2.04 0 0 1-1.609-.431l-.81-.66a.04.04 0 0 0-.047 0m3.378 4.344L8.707 8l2.647 2.646-.707.707L8 8.708l-2.646 2.646-.707-.707L7.293 8 4.647 5.353l.707-.707L8 7.293l2.646-2.647z" clip-rule="evenodd"/></svg>