<svg xmlns="http://www.w3.org/2000/svg" viewBox="0 0 16 16" height="16px" width="16px" fill="currentColor" aria-hidden="true" role="img"><path d="M15 1a1 1 0 0 1 1 1v12l-.005.102A1 1 0 0 1 15 15H1l-.103-.005a1 1 0 0 1-.892-.893L0 14V2a1 1 0 0 1 .897-.995L1 1zM1 14h14V4H1zm3.716-8q.26 0 .388.161.199.257.334 1.017l.13.734q.555-.888.864-1.249a2.5 2.5 0 0 1 .525-.49.87.87 0 0 1 .469-.16q.21 0 .34.064.234.115.234.438 0 .22-.117.341a.4.4 0 0 1-.303.123.6.6 0 0 1-.13-.013 1 1 0 0 1-.129-.052l-.16-.07a1 1 0 0 0-.13-.052.3.3 0 0 0-.093-.026q-.277 0-.771.754-.494.745-.494.862 0 .097.111.63.118.53.253 1.12.123.561.21.773.143.348.321.348.166 0 .34-.193.171-.192.518-.695l.173.11q-.265.502-.55.855-.537.67-1.025.67-.308 0-.487-.309-.105-.18-.204-.592l-.383-1.59-1.264 1.731q-.37.45-.575.606a.78.78 0 0 1-.494.154q-.394 0-.537-.258a.6.6 0 0 1-.08-.321q0-.251.148-.355.149-.108.302-.109.075 0 .149.025.073.02.16.072l.217.122q.042.025.08.039.043.006.092.006.154 0 .235-.077.087-.084.431-.567.23-.315 1.038-1.538 0-.045-.142-.69-.143-.65-.26-1.1-.117-.456-.209-.599-.092-.147-.345-.148-.087 0-.34.064-.161.039-.346.09l-.056-.199.686-.244q.265-.097.487-.155Q4.555 6 4.716 6M13 10h-3V9h3zm0-2h-3V7h3zM1 3h14V2H1z"/></svg>