<svg xmlns="http://www.w3.org/2000/svg" viewBox="0 0 16 16" height="16px" width="16px" fill="currentColor" aria-hidden="true" role="img"><path fill-rule="evenodd" d="M7.72 1.224a.4.4 0 0 1 .533.03l.63.63A.4.4 0 0 1 9 2.165v11.668a.4.4 0 0 1-.117.284l-.63.63-.058.047a.4.4 0 0 1-.412.023l-.062-.041L3 11H1l-.103-.005A1 1 0 0 1 0 10V6a1 1 0 0 1 1-1h2zm4.89.464a.5.5 0 0 1 .703-.078L13 2l.313-.39.002.002.002.002.008.007.027.023.092.081c.077.07.185.174.312.309.253.27.586.67.918 1.202C15.339 4.3 16 5.89 16 8s-.66 3.7-1.326 4.765a8 8 0 0 1-.918 1.202 6 6 0 0 1-.404.39q-.016.015-.027.023l-.008.007-.002.002-.002.001L13 14l.313.391a.5.5 0 0 1-.626-.781l.002-.001.014-.012q.022-.018.068-.06c.059-.054.147-.139.254-.253.216-.23.508-.58.801-1.048C14.411 11.3 15 9.89 15 8s-.59-3.3-1.174-4.235a7 7 0 0 0-.8-1.048 5 5 0 0 0-.323-.313l-.014-.012-.002-.001-.072-.071a.5.5 0 0 1-.006-.632M3.624 5.782 3.351 6H1v4h2.35l.275.22 4.3 3.44.075-.074V2.414l-.074-.074zm7.522-2.135a.5.5 0 0 1 .707 0h.002l.001.003.005.006.018.018q.022.022.057.063.074.08.19.228a6.62 6.62 0 0 1 0 8.07 5 5 0 0 1-.247.292l-.018.018-.005.006-.002.002h-.002a.5.5 0 0 1-.771-.628l.064-.078.008-.008.037-.04q.054-.06.15-.18A5.62 5.62 0 0 0 12.5 8a5.62 5.62 0 0 0-1.16-3.419 4 4 0 0 0-.15-.18l-.037-.04-.008-.008a.5.5 0 0 1 0-.707" clip-rule="evenodd"/></svg>