<svg xmlns="http://www.w3.org/2000/svg" viewBox="0 0 16 16" height="16px" width="16px" fill="currentColor" aria-hidden="true" role="img"><path fill-rule="evenodd" d="M7.72 1.224a.4.4 0 0 1 .533.03l.63.63A.4.4 0 0 1 9 2.166v11.668a.4.4 0 0 1-.117.283l-.63.63-.058.048a.4.4 0 0 1-.412.022l-.062-.041L3 11.001H1l-.103-.005A1 1 0 0 1 0 10V6a1 1 0 0 1 1-1h2zM3.626 5.782 3.351 6H1v4h2.35l.275.218 4.3 3.44.075-.072V2.415l-.074-.075z" clip-rule="evenodd"/><path d="M12.61 1.688a.5.5 0 0 1 .703-.078L13 2l.313-.39.002.002.002.002.008.007.027.023.092.081c.077.07.185.174.312.309.253.27.586.67.918 1.202C15.339 4.301 16 5.892 16 8.001s-.66 3.7-1.326 4.764a8 8 0 0 1-.918 1.202 6 6 0 0 1-.404.39l-.027.024-.008.006-.002.002-.002.001s-.007-.007-.313-.39l.313.391a.501.501 0 0 1-.626-.781h.002l.014-.013q.022-.018.068-.06c.059-.054.147-.139.254-.253.216-.23.508-.58.801-1.048C14.411 11.301 15 9.891 15 8.001s-.59-3.3-1.174-4.236a7 7 0 0 0-.8-1.048 5 5 0 0 0-.323-.313l-.014-.012h-.002l-.072-.072a.5.5 0 0 1-.006-.632"/><path d="M11.147 3.647a.5.5 0 0 1 .707 0v.001l.003.002.005.006.018.018.057.063c.048.053.114.13.19.228a6.62 6.62 0 0 1 0 8.07 5 5 0 0 1-.247.292l-.018.018-.005.006-.002.002-.002.001a.5.5 0 0 1-.771-.629l.064-.078.008-.008.037-.04q.054-.06.15-.18A5.62 5.62 0 0 0 12.5 8a5.62 5.62 0 0 0-1.16-3.418 4 4 0 0 0-.15-.18l-.037-.041-.008-.008a.5.5 0 0 1 0-.707"/></svg>