<svg xmlns="http://www.w3.org/2000/svg" viewBox="0 0 16 16" height="16px" width="16px" fill="currentColor" aria-hidden="true" role="img"><g clip-path="url(#clip0_378_2675)"><path d="M7.058 1.6c.501-.8 1.303-.8 1.804 0l6.92 11.9c.5.8.1 1.5-.803 1.5H1.04c-.955 0-1.273-.635-.868-1.387zm.891.453L1.104 14h13.812L7.998 2.103l-.02-.041-.014-.042-.002-.013a.2.2 0 0 1-.013.046M8 11.25a.75.75 0 1 1 0 1.5.75.75 0 0 1 0-1.5M8.5 10h-1V5h1z"/></g><defs><clipPath id="clip0_378_2675"><path d="M0 0h16v16H0z"/></clipPath></defs></svg>