<svg xmlns="http://www.w3.org/2000/svg" viewBox="0 0 16 16" height="16px" width="16px" fill="currentColor" aria-hidden="true" role="img"><path d="M3.103 1.005A1 1 0 0 1 4 2v12l-.005.102A1 1 0 0 1 3 15H1a1 1 0 0 1-.995-.898L0 14V2a1 1 0 0 1 1-1h2zm11 8A1 1 0 0 1 15 10v4l-.005.102A1 1 0 0 1 14 15h-2a1 1 0 0 1-.995-.898L11 14v-4a1 1 0 0 1 1-1h2zM12 14h2v-4h-2zM1 14h2V2H1zm10.103-8.995A1 1 0 0 1 12 6v2l-.005.103A1 1 0 0 1 11 9H9a1 1 0 0 1-1-1V6a1 1 0 0 1 1-1h2zM9 8h2V6H9zm-.897-6.995A1 1 0 0 1 9 2v2l-.005.103A1 1 0 0 1 8 5H6a1 1 0 0 1-1-1V2a1 1 0 0 1 1-1h2zM6 4h2V2H6z"/></svg>