<svg xmlns="http://www.w3.org/2000/svg" viewBox="0 0 16 16" height="16px" width="16px" fill="currentColor" aria-hidden="true" role="img"><path d="M8 0c.92 0 1.692.466 1.926 1.1l2.514 1.437c.574.097 1.053.378 1.324.756l.732.419A1 1 0 0 1 15 4.58v6.839a1 1 0 0 1-.504.868l-6 3.429a1 1 0 0 1-.992 0l-6-3.429A1 1 0 0 1 1 11.42V4.58a1 1 0 0 1 .504-.868l.731-.419c.27-.378.75-.66 1.324-.756L6.073 1.1C6.307.466 7.08 0 8 0M2 11.419l5.5 3.143V8.286L2 5.078zm6.5-3.133v6.276l5.5-3.143v-6.34zM8 6c-.357 0-.642.11-.814.24-.173.128-.186.23-.186.26s.013.131.186.26c.172.13.457.24.814.24s.642-.11.814-.24C8.987 6.632 9 6.53 9 6.5s-.013-.131-.186-.26C8.642 6.11 8.357 6 8 6M5.154 2.775C5.666 3.047 6 3.495 6 4c0 .674-.592 1.243-1.407 1.433l1.433.836C6.175 5.55 7.001 5 8 5c1 0 1.824.55 1.973 1.269l1.433-.836C10.592 5.243 10 4.673 10 4c0-.505.333-.952.844-1.224l-1.058-.604C9.457 2.662 8.782 3 8 3s-1.459-.338-1.787-.83zm-1.275.729-.002.002a2 2 0 0 0-.138.015 1.26 1.26 0 0 0-.553.218C3.013 3.87 3 3.971 3 4s.013.131.186.26c.172.13.457.24.814.24s.642-.11.814-.24C4.987 4.132 5 4.03 5 4s-.013-.131-.186-.26C4.642 3.61 4.357 3.5 4 3.5q-.062 0-.121.004M12 3.5c-.357 0-.642.11-.815.24-.172.129-.185.231-.185.26s.013.131.185.26c.173.13.458.24.815.24s.642-.11.815-.24c.172-.128.185-.23.185-.26s-.013-.131-.185-.26a1.26 1.26 0 0 0-.551-.219 2 2 0 0 0-.144-.015l-.003-.002zM8 1c-.357 0-.642.11-.814.24-.173.128-.186.23-.186.26s.013.131.186.26c.172.13.457.24.814.24s.642-.11.814-.24C8.987 1.632 9 1.53 9 1.5s-.013-.131-.186-.26C8.642 1.11 8.357 1 8 1"/></svg>